<?xml version="1.0" encoding="utf-8"?>
<!-- Generator: Adobe Illustrator 16.0.0, SVG Export Plug-In . SVG Version: 6.00 Build 0)  -->
<!DOCTYPE svg PUBLIC "-//W3C//DTD SVG 1.1//EN" "http://www.w3.org/Graphics/SVG/1.1/DTD/svg11.dtd">
<svg version="1.1" id="Layer_1" xmlns="http://www.w3.org/2000/svg" xmlns:xlink="http://www.w3.org/1999/xlink" x="0px" y="0px"
	 width="73px" height="74px" viewBox="0 0 73 74" enable-background="new 0 0 73 74" xml:space="preserve">
<g>
	<path fill="#FFFFFF" d="M35.947,64.363c-14.852,0-26.932-12.081-26.932-26.932c0-14.85,12.08-26.932,26.932-26.932
		c14.85,0,26.931,12.082,26.931,26.932C62.878,52.282,50.797,64.363,35.947,64.363z M35.947,12.5
		c-13.748,0-24.932,11.184-24.932,24.932c0,13.748,11.185,24.933,24.932,24.933c13.746,0,24.931-11.185,24.931-24.933
		C60.878,23.684,49.693,12.5,35.947,12.5z"/>
	<path fill="#FFFFFF" d="M35.947,48.583c-6.149,0-11.152-5.003-11.152-11.151S29.798,26.28,35.947,26.28
		c6.148,0,11.15,5.003,11.15,11.151S42.096,48.583,35.947,48.583z M35.947,28.279c-5.047,0-9.152,4.106-9.152,9.153
		c0,5.045,4.105,9.15,9.152,9.15c5.045,0,9.15-4.105,9.15-9.15C45.098,32.385,40.992,28.279,35.947,28.279z"/>
	<path fill="#FFFFFF" d="M35.947,41.977c-2.508,0-4.547-2.039-4.547-4.545s2.039-4.544,4.547-4.544c2.506,0,4.545,2.039,4.545,4.544
		S38.453,41.977,35.947,41.977z M35.947,34.887c-1.404,0-2.547,1.142-2.547,2.544c0,1.403,1.143,2.545,2.547,2.545
		c1.402,0,2.545-1.142,2.545-2.545C38.492,36.029,37.35,34.887,35.947,34.887z"/>
	<path fill="#FFFFFF" d="M35.947,41.977c-2.508,0-4.547-2.039-4.547-4.545s2.039-4.544,4.547-4.544c2.506,0,4.545,2.039,4.545,4.544
		S38.453,41.977,35.947,41.977z M35.947,34.887c-1.404,0-2.547,1.142-2.547,2.544c0,1.403,1.143,2.545,2.547,2.545
		c1.402,0,2.545-1.142,2.545-2.545C38.492,36.029,37.35,34.887,35.947,34.887z"/>
	<rect x="15.75" y="1.5" fill="#FFFFFF" width="2" height="18"/>
	<rect x="15.75" y="55.354" fill="#FFFFFF" width="2" height="18.146"/>
	<rect x="54.75" y="55.354" fill="#FFFFFF" width="2" height="18.146"/>
	<rect x="53.75" y="1.5" fill="#FFFFFF" width="2" height="18.146"/>
	<rect x="46.75" y="1.5" fill="#FFFFFF" width="2" height="13.187"/>
	<rect x="22.75" y="1.5" fill="#FFFFFF" width="2" height="13.187"/>
	<rect x="47.75" y="60.314" fill="#FFFFFF" width="2" height="13.186"/>
	<rect x="21.75" y="60.314" fill="#FFFFFF" width="2" height="13.186"/>
	<path fill="#FFFFFF" d="M65.898,41.826h-4.097v-2h3.697v-4.738h-3.772v-2h4.172c0.883,0,1.602,0.718,1.602,1.6v5.539
		C67.5,41.107,66.781,41.826,65.898,41.826z"/>
	<rect x="56.75" y="36.5" fill="#FFFFFF" width="2" height="2"/>
	<rect x="13.75" y="36.5" fill="#FFFFFF" width="2" height="2"/>
	<rect x="34.75" y="57.5" fill="#FFFFFF" width="2" height="2"/>
	<rect x="34.75" y="14.5" fill="#FFFFFF" width="2" height="2"/>
	<rect x="34.75" y="1.5" fill="#FFFFFF" width="2" height="2"/>
	<rect x="34.75" y="6.5" fill="#FFFFFF" width="2" height="2"/>
	<rect x="34.75" y="66.5" fill="#FFFFFF" width="2" height="2"/>
	<rect x="34.75" y="71.5" fill="#FFFFFF" width="2" height="2"/>
	<rect id="big" x="34.5" y="14.5" fill="#FFFFFF" width="3" height="18"/>
	<rect id="small" x="34.5" y="21.5" fill="#FFFFFF" width="3" height="11"/>
</g>
</svg>
