<?xml version="1.0" encoding="utf-8"?>
<!-- Generator: Adobe Illustrator 16.0.0, SVG Export Plug-In . SVG Version: 6.00 Build 0)  -->
<!DOCTYPE svg PUBLIC "-//W3C//DTD SVG 1.1//EN" "http://www.w3.org/Graphics/SVG/1.1/DTD/svg11.dtd">
<svg version="1.1" id="Layer_1" xmlns="http://www.w3.org/2000/svg" xmlns:xlink="http://www.w3.org/1999/xlink" x="0px" y="0px"
	 width="73px" height="74px" viewBox="0 0 73 74" enable-background="new 0 0 73 74" xml:space="preserve">
<path fill="#FFFFFF" d="M36.501,8.137C20.584,8.137,7.636,21.085,7.636,37c0,15.916,12.948,28.863,28.865,28.863
	c15.914,0,28.863-12.947,28.863-28.863C65.364,21.085,52.415,8.137,36.501,8.137z M9.625,37c0-14.819,12.056-26.875,26.875-26.875
	c14.818,0,26.875,12.056,26.875,26.875c0,2.754-0.418,5.412-1.191,7.919c0.674-2.979,0.863-6.069,0.5-9.104
	c-1.324-10.059-8.781-18.556-18.562-21.145c-10.24-2.713-21.248,1.588-26.765,10.457c-5.968,9.595-4.11,22.275,4.323,29.494
	c8.234,7.051,20.784,6.912,28.573-0.316c6.272-5.824,8.354-15.218,5.058-22.841c-2.076-4.797-6.127-8.595-11.119-10.422
	c-4.869-1.783-10.037-1.529-14.548,0.711c-4.674,2.321-8.064,6.625-9.303,11.809c-1.169,4.896-0.17,9.941,2.738,13.838
	c3.229,4.365,8.671,6.795,14.21,6.341c5.274-0.435,9.647-3.314,11.998-7.905c2.014-3.934,2.062-8.673,0.123-12.676
	c-1.791-3.71-5.093-6.293-9.056-7.085c-4.882-0.979-9.972,1.065-12.652,5.083c-3.085,4.623-2.294,10.955,1.801,14.421
	c2.089,1.769,4.848,2.596,7.578,2.263c2.541-0.31,4.744-1.587,6.203-3.603c2.195-3.031,2.176-7.175-0.047-9.854
	c-1.67-2.011-4.641-2.976-7.226-2.344c-2.181,0.533-3.705,2.098-4.18,4.294c-0.332,1.531,0.072,3.197,1.054,4.352
	c0.818,0.959,1.947,1.451,3.172,1.388c1.493-0.08,2.267-0.832,2.652-1.448c0.264-0.423,0.85-2.042-0.018-2.927
	c-0.729-0.748-1.416-0.521-1.416-0.521s1,1-0.141,2.438c-0.137,0.172-0.492,0.525-1.188,0.563c-0.786,0.041-1.262-0.443-1.55-0.781
	c-0.579-0.68-0.823-1.715-0.624-2.639c0.422-1.948,1.878-2.58,2.708-2.782c1.843-0.45,4.039,0.256,5.222,1.683
	c1.625,1.957,1.611,5.146-0.033,7.416c-1.13,1.562-2.846,2.553-4.83,2.793c-2.174,0.266-4.384-0.396-6.053-1.808
	c-3.335-2.821-3.964-8.005-1.431-11.798c2.24-3.357,6.499-5.059,10.608-4.239c3.396,0.681,6.112,2.812,7.653,6.001
	c1.666,3.446,1.627,7.522-0.104,10.902c-2.029,3.967-5.816,6.454-10.391,6.831c-4.854,0.397-9.625-1.726-12.45-5.544
	c-2.557-3.428-3.432-7.869-2.4-12.188c1.101-4.609,4.109-8.433,8.252-10.489c4.02-1.997,8.629-2.219,12.98-0.626
	c4.479,1.64,8.117,5.046,9.976,9.344c2.971,6.863,1.086,15.332-4.582,20.596c-7.063,6.549-18.449,6.666-25.927,0.263
	c-7.695-6.589-9.384-18.165-3.93-26.934c5.06-8.134,15.164-12.075,24.568-9.583c9.007,2.385,15.877,10.212,17.095,19.468
	c0.819,6.854-1.363,14.037-5.845,19.212c-4.771,5.511-11.854,8.563-19.068,8.584C21.302,63.48,9.625,51.582,9.625,37z"/>
</svg>
