<?xml version="1.0" encoding="utf-8"?>
<!-- Generator: Adobe Illustrator 16.0.0, SVG Export Plug-In . SVG Version: 6.00 Build 0)  -->
<!DOCTYPE svg PUBLIC "-//W3C//DTD SVG 1.1//EN" "http://www.w3.org/Graphics/SVG/1.1/DTD/svg11.dtd">
<svg version="1.1" id="Layer_1" xmlns="http://www.w3.org/2000/svg" xmlns:xlink="http://www.w3.org/1999/xlink" x="0px" y="0px"
	 width="63px" height="69px" viewBox="775.5 439.5 63 69" enable-background="new 775.5 439.5 63 69" xml:space="preserve">
<path fill="#3AADD5" d="M835.5,444.5h-57c-2,0-3,1.094-3,3.031v57.99c0,1.979,1,2.979,3,2.979h57c2,0,3-1,3-3v-58
	C838.5,445.5,837.5,444.5,835.5,444.5z M778.5,446.5h57c0.664,0,1,0.335,1,1v12h-59v-12C777.5,446.835,777.835,446.5,778.5,446.5z
	 M835.5,506.5h-57c-0.665,0-1-0.335-1-1v-44h59v44C836.5,506.165,836.164,506.5,835.5,506.5z"/>
<path fill="#3AADD5" d="M786.5,450.5c-0.499,0-1-0.501-1-1v-7.976c0-0.499,0.501-1.024,1-1.024c0.499,0,1,0.442,1,0.941v8.059
	C787.5,449.916,786.999,450.5,786.5,450.5z"/>
<path fill="#3AADD5" d="M796.5,450.5c-0.499,0-1-0.501-1-1v-8c0-0.499,0.501-1,1-1c0.499,0,1,0.501,1,1v8
	C797.5,449.916,796.999,450.5,796.5,450.5z"/>
<path fill="#3AADD5" d="M806.5,450.5c-0.5,0-1-0.501-1-1v-8c0-0.499,0.5-1,1-1c0.498,0,1,0.501,1,1v8
	C807.5,449.916,806.998,450.5,806.5,450.5z"/>
<path fill="#3AADD5" d="M817.5,450.5c-0.498,0-1-0.501-1-1v-8c0-0.499,0.502-1,1-1c0.5,0,1,0.501,1,1v8
	C818.5,449.916,818,450.5,817.5,450.5z"/>
<path fill="#3AADD5" d="M827.5,450.5c-0.5,0-1-0.501-1-1v-8c0-0.499,0.5-1,1-1c0.498,0,1,0.501,1,1v8
	C828.5,449.916,827.998,450.5,827.5,450.5z"/>
<path fill="#3AADD5" d="M793.316,488.712l2.656-0.349c0.279,1.537,0.838,2.585,1.607,3.284s1.677,0.979,2.725,0.979
	c1.258,0,2.307-0.419,3.215-1.328c0.838-0.909,1.328-1.957,1.328-3.285c0-1.258-0.42-2.236-1.189-3.075
	c-0.838-0.769-1.816-1.188-3.074-1.188c-0.489,0-1.118,0.07-1.887,0.28l0.28-2.376c0.209,0,0.349,0,0.419,0
	c1.118,0,2.167-0.28,3.075-0.909s1.398-1.537,1.398-2.725c0-0.979-0.35-1.817-0.979-2.446c-0.699-0.629-1.537-0.979-2.586-0.979
	c-1.048,0-1.887,0.35-2.585,0.979s-1.118,1.607-1.328,2.935l-2.795-0.279c0.349-1.817,1.048-3.214,2.236-4.193
	c1.188-0.978,2.585-1.467,4.333-1.467c1.189,0,2.306,0.279,3.285,0.769s1.746,1.188,2.307,2.097
	c0.559,0.908,0.768,1.817,0.768,2.795c0,0.979-0.279,1.817-0.768,2.585c-0.49,0.769-1.258,1.398-2.236,1.817
	c1.258,0.28,2.305,0.909,3.004,1.887c0.699,0.909,1.049,2.097,1.049,3.494c0,1.887-0.699,3.494-2.096,4.822
	c-1.398,1.328-3.145,1.957-5.312,1.957c-1.887,0-3.494-0.559-4.752-1.747C794.155,491.856,793.526,490.529,793.316,488.712z"/>
<path fill="#3AADD5" d="M817.5,494.5v-18c-1,2-4,3-6,4v-2c2-1,5-4,6-6h3v22.012L817.5,494.5z"/>
</svg>
