<?xml version="1.0" encoding="utf-8"?>
<!-- Generator: Adobe Illustrator 16.0.0, SVG Export Plug-In . SVG Version: 6.00 Build 0)  -->
<!DOCTYPE svg PUBLIC "-//W3C//DTD SVG 1.1//EN" "http://www.w3.org/Graphics/SVG/1.1/DTD/svg11.dtd">
<svg version="1.1" id="Isolation_Mode" xmlns="http://www.w3.org/2000/svg" xmlns:xlink="http://www.w3.org/1999/xlink" x="0px"
	 y="0px" width="21px" height="20px" viewBox="0 0 21 20" enable-background="new 0 0 21 20" xml:space="preserve">
<path fill="#424242" d="M10.659,0.528c-5.472,0-9.958,3.74-10,8.336c-0.026,2.844,1.067,4.887,3.545,6.622
	c0.036,0.035,0.073,0.074,0.099,0.103c0.076,1.048-0.573,2.235-1.929,3.529l-0.096,0.093c-0.109,0.11-0.139,0.275-0.075,0.416
	c0.061,0.132,0.192,0.215,0.335,0.215c0.009,0,0.019,0.005,0.029,0.005c2.84-0.223,5.738-2.309,6.255-2.698l0.225-0.024
	c0.33,0.043,1.27,0.133,1.61,0.133c0,0,0,0,0.001,0c5.514,0,10-3.767,10-8.365S16.173,0.528,10.659,0.528z M10.634,16.469
	c-0.318,0-1.34-0.075-1.528-0.107c-0.039-0.006-0.08-0.006-0.12,0l-0.372,0.06c-0.062,0.01-0.12,0.036-0.169,0.074
	c-0.026,0.021-2.374,1.832-4.864,2.434c1.083-1.233,1.57-2.41,1.448-3.507c-0.003-0.03-0.011-0.06-0.021-0.088
	c-0.015-0.04-0.06-0.162-0.316-0.403c-0.013-0.012-0.027-0.024-0.042-0.034c-2.304-1.606-3.277-3.408-3.253-6.026
	c0.039-4.193,4.193-7.605,9.262-7.605c5.107,0,9.262,3.41,9.262,7.602S15.766,16.469,10.634,16.469z"/>
</svg>
