<?xml version="1.0" encoding="utf-8"?>
<!-- Generator: Adobe Illustrator 16.0.0, SVG Export Plug-In . SVG Version: 6.00 Build 0)  -->
<!DOCTYPE svg PUBLIC "-//W3C//DTD SVG 1.1//EN" "http://www.w3.org/Graphics/SVG/1.1/DTD/svg11.dtd">
<svg version="1.1" id="Capa_1" xmlns="http://www.w3.org/2000/svg" xmlns:xlink="http://www.w3.org/1999/xlink" x="0px" y="0px"
	 width="13.516px" height="25px" viewBox="41.304 35.562 13.516 25" enable-background="new 41.304 35.562 13.516 25"
	 xml:space="preserve">
<g>
	<path fill="#FFFFFF" d="M54.31,35.567l-3.241-0.005c-3.642,0-5.996,2.415-5.996,6.152v2.837h-3.26c-0.282,0-0.509,0.228-0.509,0.51
		v4.11c0,0.282,0.229,0.509,0.509,0.509h3.26v10.373c0,0.28,0.228,0.509,0.509,0.509h4.253c0.281,0,0.51-0.229,0.51-0.509V49.68
		h3.812c0.281,0,0.51-0.227,0.51-0.509l0.001-4.11c0-0.136-0.054-0.265-0.149-0.361c-0.095-0.096-0.225-0.149-0.359-0.149h-3.813
		v-2.405c0-1.156,0.275-1.743,1.782-1.743l2.183-0.001c0.281,0,0.51-0.229,0.51-0.509v-3.816
		C54.82,35.795,54.591,35.567,54.31,35.567z"/>
</g>
</svg>
