<?xml version="1.0" encoding="utf-8"?>
<!-- Generator: Adobe Illustrator 16.0.0, SVG Export Plug-In . SVG Version: 6.00 Build 0)  -->
<!DOCTYPE svg PUBLIC "-//W3C//DTD SVG 1.1//EN" "http://www.w3.org/Graphics/SVG/1.1/DTD/svg11.dtd">
<svg version="1.1" id="Layer_1" xmlns="http://www.w3.org/2000/svg" xmlns:xlink="http://www.w3.org/1999/xlink" x="0px" y="0px"
	 width="21.388px" height="24px" viewBox="0 0 21.388 24" enable-background="new 0 0 21.388 24" xml:space="preserve">
<g>
	<g>
		<path fill="#FFFFFF" d="M13.92,1.001H8.674c-2.338,0-3.957,0.513-5.413,1.716C2.116,3.706,1.432,5.142,1.432,6.559
			c0,2.185,1.666,4.506,4.751,4.506c0.298,0,0.626-0.031,0.915-0.058l-0.043,0.104c-0.123,0.297-0.241,0.577-0.241,1.014
			c0,0.853,0.411,1.377,0.809,1.886l0.051,0.064l-0.089,0.007c-1.274,0.087-3.646,0.25-5.38,1.313C0.159,16.613,0,18.384,0,18.897
			C0,20.939,1.902,23,6.154,23c4.944,0,7.532-2.728,7.532-5.421c0-1.993-1.17-2.978-2.409-4.021l-1.046-0.813
			c-0.324-0.269-0.727-0.602-0.727-1.219c0-0.607,0.402-1.008,0.759-1.362l0.036-0.037c1.129-0.891,2.411-1.899,2.411-4.082
			c0-2.195-1.372-3.328-2.031-3.874h1.741c0.021,0,0.042-0.006,0.06-0.017l1.499-0.943c0.045-0.028,0.063-0.08,0.049-0.128
			C14.016,1.036,13.971,1.001,13.92,1.001z M7.558,21.798c-3.014,0-5.038-1.407-5.038-3.502c0-1.368,0.828-2.361,2.459-2.952
			c1.307-0.44,2.992-0.463,3.009-0.463c0.286,0,0.43,0,0.658,0.029c2.109,1.501,3.121,2.288,3.121,3.79
			C11.767,20.611,10.155,21.798,7.558,21.798z M7.529,10.261c-2.528,0-3.578-3.324-3.578-5.104c0-0.906,0.206-1.599,0.629-2.125
			c0.46-0.576,1.247-0.947,2.006-0.947c2.321,0,3.606,3.121,3.606,5.279c0,0.341,0,1.376-0.716,2.095
			C8.995,9.939,8.212,10.261,7.529,10.261z"/>
		<path fill="#FFFFFF" d="M21.273,11.276h-2.764V8.521c0-0.063-0.051-0.113-0.113-0.113h-1.189c-0.063,0-0.113,0.05-0.113,0.113
			v2.755h-2.751c-0.063,0-0.113,0.051-0.113,0.114v1.205c0,0.063,0.051,0.113,0.113,0.113h2.751v2.773
			c0,0.062,0.051,0.112,0.113,0.112h1.189c0.063,0,0.113-0.051,0.113-0.112v-2.773h2.764c0.063,0,0.115-0.051,0.115-0.113V11.39
			C21.388,11.327,21.337,11.276,21.273,11.276z"/>
	</g>
</g>
</svg>
