<?xml version="1.0" encoding="utf-8"?>
<!-- Generator: Adobe Illustrator 16.0.0, SVG Export Plug-In . SVG Version: 6.00 Build 0)  -->
<!DOCTYPE svg PUBLIC "-//W3C//DTD SVG 1.1//EN" "http://www.w3.org/Graphics/SVG/1.1/DTD/svg11.dtd">
<svg version="1.1" id="Isolation_Mode" xmlns="http://www.w3.org/2000/svg" xmlns:xlink="http://www.w3.org/1999/xlink" x="0px"
	 y="0px" width="70px" height="52px" viewBox="1.5 1.5 70 52" enable-background="new 1.5 1.5 70 52" xml:space="preserve">
<path fill="#3AADD5" d="M66.5,1.5h-55c-3,0-5,2-5,5v37c0,3,2,5,5,5h55c3,0,5-2,5-5v-37C71.5,3.5,69.5,1.5,66.5,1.5z M66.5,3.5
	c0.513,0,0.961,0.085,1.351,0.238l-29.13,22.338L10.149,3.739c0.39-0.153,0.838-0.238,1.352-0.238L66.5,3.5L66.5,3.5z M69.5,43.5
	c0,1.907-1.093,3-3,3h-55c-1.394,0-2.346-0.589-2.762-1.648l1.522,1.297l15.451-18.16l-1.523-1.296L8.738,44.852
	C8.585,44.462,8.5,44.013,8.5,43.5v-37c0-1.354,0.562-2.288,1.563-2.722l-1.18,1.509l29.825,23.316L69.108,5.292l-1.155-1.507
	C68.945,4.222,69.5,5.152,69.5,6.498V43.5z"/>
<rect x="48.584" y="35.409" transform="matrix(0.6554 0.7553 -0.7553 0.6554 48.3857 -33.2283)" fill="#3AADD5" width="24.044" height="2"/>
<path fill="#3AADD5" d="M6.5,53.5h55c3,0,5-2,5-5v-1c-1,0-1,0-2,0v1c0,1.907-1.093,3-3,3h-55c-1.907,0-3-1.093-3-3v-37
	c0-1.907,1.093-3,3-3h1c0-0.667,0-1.333,0-2h-1c-3,0-5,2-5,5v37C1.5,51.5,3.5,53.5,6.5,53.5z"/>
</svg>
