<?xml version="1.0" encoding="utf-8"?>
<!-- Generator: Adobe Illustrator 16.0.0, SVG Export Plug-In . SVG Version: 6.00 Build 0)  -->
<!DOCTYPE svg PUBLIC "-//W3C//DTD SVG 1.1//EN" "http://www.w3.org/Graphics/SVG/1.1/DTD/svg11.dtd">
<svg version="1.1" id="Layer_1" xmlns="http://www.w3.org/2000/svg" xmlns:xlink="http://www.w3.org/1999/xlink" x="0px" y="0px"
	 width="18px" height="13px" viewBox="0 0 18 13" enable-background="new 0 0 18 13" xml:space="preserve">
<g>
	<path fill="#000000" d="M18,1.445v10.106c0,0.397-0.157,0.737-0.472,1.02c-0.314,0.283-0.693,0.425-1.135,0.425H1.607
		c-0.442,0-0.82-0.142-1.135-0.425C0.157,12.288,0,11.948,0,11.551V1.445c0-0.397,0.157-0.737,0.472-1.021
		C0.787,0.142,1.165,0,1.607,0h14.786c0.442,0,0.821,0.142,1.135,0.424C17.843,0.708,18,1.047,18,1.445z M16.714,1.778
		c0-0.012,0-0.045,0-0.099c0-0.054,0-0.095,0-0.122s-0.002-0.066-0.005-0.117c-0.003-0.051-0.013-0.089-0.03-0.113
		c-0.017-0.024-0.035-0.051-0.056-0.082c-0.02-0.03-0.05-0.053-0.09-0.067c-0.04-0.015-0.087-0.023-0.141-0.023H1.607
		c-0.087,0-0.162,0.029-0.226,0.086C1.317,1.299,1.286,1.367,1.286,1.445c0,1.011,0.492,1.866,1.477,2.564
		C4.054,4.924,5.397,5.878,6.79,6.872c0.041,0.031,0.157,0.119,0.352,0.267S7.49,7.399,7.604,7.477S7.867,7.65,8.051,7.761
		C8.235,7.873,8.404,7.956,8.558,8.01s0.298,0.081,0.431,0.081H9h0.01c0.134,0,0.278-0.027,0.432-0.081s0.323-0.137,0.507-0.249
		c0.184-0.111,0.333-0.206,0.447-0.284c0.113-0.078,0.267-0.191,0.461-0.339s0.312-0.236,0.352-0.267
		c1.393-0.993,2.736-1.947,4.028-2.862c0.362-0.259,0.698-0.606,1.01-1.043C16.559,2.53,16.714,2.134,16.714,1.778z M16.714,11.551
		V4.334C16.5,4.551,16.269,4.75,16.021,4.93c-1.794,1.24-3.221,2.258-4.279,3.053c-0.342,0.259-0.62,0.46-0.834,0.604
		c-0.214,0.144-0.504,0.291-0.869,0.438C9.675,9.173,9.332,9.248,9.01,9.248H9H8.989c-0.321,0-0.664-0.075-1.029-0.222
		C7.596,8.878,7.306,8.731,7.091,8.587C6.877,8.443,6.599,8.242,6.258,7.983C5.2,7.188,3.773,6.17,1.979,4.93
		C1.731,4.75,1.5,4.551,1.286,4.334v7.216c0,0.078,0.032,0.146,0.096,0.203c0.063,0.057,0.139,0.086,0.226,0.086h14.786
		c0.087,0,0.163-0.029,0.227-0.086C16.683,11.697,16.714,11.629,16.714,11.551z"/>
</g>
</svg>
