<?xml version="1.0" encoding="utf-8"?>
<!-- Generator: Adobe Illustrator 16.0.0, SVG Export Plug-In . SVG Version: 6.00 Build 0)  -->
<!DOCTYPE svg PUBLIC "-//W3C//DTD SVG 1.1//EN" "http://www.w3.org/Graphics/SVG/1.1/DTD/svg11.dtd">
<svg version="1.1" id="Layer_1" xmlns="http://www.w3.org/2000/svg" xmlns:xlink="http://www.w3.org/1999/xlink" x="0px" y="0px"
	 width="70px" height="66px" viewBox="764.5 446.5 70 66" enable-background="new 764.5 446.5 70 66" xml:space="preserve">
<path fill="#3CAED5" d="M771.5,500.5c2.757,0,5,2.243,5,5s-2.243,5-5,5s-5-2.243-5-5S768.743,500.5,771.5,500.5 M771.5,498.5
	c-3.866,0-7,3.134-7,7s3.134,7,7,7s7-3.134,7-7S775.366,498.5,771.5,498.5L771.5,498.5z"/>
<path fill="#3CAED5" d="M814,492.479c-8.667,0-16.434-5.486-19.327-13.651l1.885-0.668c2.611,7.368,9.621,12.319,17.442,12.319
	c10.201,0,18.5-8.299,18.5-18.5s-8.299-18.5-18.5-18.5c-7.838,0-14.853,4.964-17.454,12.353l-1.887-0.664
	c2.883-8.188,10.655-13.688,19.341-13.688c11.304,0,20.5,9.196,20.5,20.5S825.304,492.479,814,492.479z"/>
<rect x="778.222" y="453" transform="matrix(0.7071 0.7071 -0.7071 0.7071 551.2405 -422.8124)" fill="#3CAED5" width="15.556" height="2"/>
<rect x="785" y="446.222" transform="matrix(0.7071 0.7071 -0.7071 0.7071 551.2405 -422.8124)" fill="#3CAED5" width="2" height="15.556"/>
<rect x="763.222" y="469.005" transform="matrix(0.7071 0.7071 -0.7071 0.7071 558.1647 -407.5179)" fill="#3CAED5" width="15.556" height="2"/>
<rect x="811.05" y="467" transform="matrix(0.7071 0.7071 -0.7071 0.7071 569.9268 -439.9251)" fill="#3CAED5" width="9.899" height="2"/>
<rect x="815" y="470.05" transform="matrix(0.7071 0.7071 -0.7071 0.7071 574.8766 -437.8749)" fill="#3CAED5" width="2" height="9.899"/>
<rect x="770" y="462.227" transform="matrix(0.7071 0.7071 -0.7071 0.7071 558.1647 -407.5179)" fill="#3CAED5" width="2" height="15.556"/>
<rect x="782.222" y="492" transform="matrix(0.7071 0.7071 -0.7071 0.7071 579.9893 -414.218)" fill="#3CAED5" width="15.556" height="2"/>
<rect x="789" y="485.222" transform="matrix(0.7071 0.7071 -0.7071 0.7071 579.9893 -414.218)" fill="#3CAED5" width="2" height="15.556"/>
<rect x="798.222" y="505" transform="matrix(0.7071 0.7071 -0.7071 0.7071 593.868 -421.7241)" fill="#3CAED5" width="15.556" height="2"/>
<rect x="805" y="498.222" transform="matrix(0.7071 0.7071 -0.7071 0.7071 593.868 -421.7241)" fill="#3CAED5" width="2" height="15.556"/>
<rect x="818.222" y="502" transform="matrix(0.7071 0.7071 -0.7071 0.7071 597.6045 -436.7449)" fill="#3CAED5" width="15.556" height="2"/>
<rect x="825" y="495.222" transform="matrix(0.7071 0.7071 -0.7071 0.7071 597.6045 -436.7449)" fill="#3CAED5" width="2" height="15.556"/>
<path fill="#3CAED5" d="M772.5,498.5h-2c0-15.439,11.664-28,26-28h22v2h-22C783.267,472.5,772.5,484.164,772.5,498.5z"/>
</svg>
