<?xml version="1.0" encoding="utf-8"?>
<!-- Generator: Adobe Illustrator 16.0.0, SVG Export Plug-In . SVG Version: 6.00 Build 0)  -->
<!DOCTYPE svg PUBLIC "-//W3C//DTD SVG 1.1//EN" "http://www.w3.org/Graphics/SVG/1.1/DTD/svg11.dtd">
<svg version="1.1" id="Layer_1" xmlns="http://www.w3.org/2000/svg" xmlns:xlink="http://www.w3.org/1999/xlink" x="0px" y="0px"
	 width="75px" height="69px" viewBox="761.5 474.5 75 69" enable-background="new 761.5 474.5 75 69" xml:space="preserve">
<g>
	<path fill="#3AADD5" d="M761.5,476.5h7v48l-7,0.042v1.958h30l-8,17h2l5-10h17l5,10h2l-8-17h30v-2h-7.026l0.026-48h7v-2h-75V476.5z
		 M806.5,531.5h-15l2-5h11L806.5,531.5z M827.5,524.5h-57v-48h57V524.5z"/>
	<circle fill="#3AADD5" cx="787.527" cy="491.75" r="2.109"/>
	<path fill="#3AADD5" d="M781.603,495.214l-1.892,2.313l2.039,2.039l2.405-1.969c0.504,0.265,1.043,0.469,1.612,0.598l0.316,3.167
		h1.441h0.012h1.441l0.316-3.167c0.57-0.129,1.109-0.333,1.613-0.598l2.404,1.969l2.037-2.039l-1.892-2.315
		c0.328-0.53,0.581-1.111,0.75-1.728l2.937-0.293v-2.883l-2.934-0.293c-0.169-0.616-0.424-1.198-0.752-1.729l1.892-2.313
		l-2.037-2.039l-2.404,1.969c-0.504-0.265-1.043-0.469-1.613-0.598l-0.316-3.167h-1.441h-0.012h-1.441l-0.316,3.167
		c-0.572,0.129-1.111,0.333-1.615,0.598l-2.405-1.969l-2.039,2.039l1.892,2.313c-0.328,0.532-0.586,1.111-0.752,1.729l-2.932,0.293
		v2.883l2.937,0.293C781.021,494.101,781.274,494.682,781.603,495.214z M787.527,487.412c2.396,0,4.336,1.943,4.336,4.338
		s-1.94,4.338-4.336,4.338c-2.393,0-4.336-1.943-4.336-4.338C783.194,489.354,785.134,487.412,787.527,487.412z"/>
	<circle fill="#3AADD5" cx="810.518" cy="509.888" r="2.109"/>
	<path fill="#3AADD5" d="M804.59,513.35l-1.894,2.315l2.039,2.039l2.404-1.969c0.504,0.265,1.043,0.469,1.612,0.598l0.316,3.167
		h1.441h0.012h1.441l0.316-3.167c0.57-0.129,1.109-0.333,1.613-0.598l2.404,1.969l2.039-2.039l-1.892-2.315
		c0.328-0.53,0.581-1.111,0.75-1.728l2.937-0.293v-2.883l-2.934-0.293c-0.169-0.616-0.425-1.197-0.753-1.729l1.892-2.313
		l-2.039-2.039l-2.404,1.969c-0.504-0.265-1.043-0.469-1.613-0.598l-0.316-3.166h-1.441h-0.012h-1.441l-0.316,3.166
		c-0.569,0.129-1.108,0.333-1.612,0.598l-2.404-1.969l-2.039,2.039l1.892,2.313c-0.328,0.532-0.586,1.111-0.753,1.729l-2.935,0.293
		v2.883l2.938,0.293C804.009,512.239,804.264,512.82,804.59,513.35z M810.515,505.55c2.396,0,4.336,1.943,4.336,4.338
		c0,2.396-1.94,4.338-4.336,4.338c-2.393,0-4.336-1.943-4.336-4.338C806.179,507.493,808.122,505.55,810.515,505.55z"/>
	<rect x="801.5" y="483.5" fill="#3AADD5" width="19" height="2"/>
	<rect x="801.5" y="488.5" fill="#3AADD5" width="19" height="2"/>
	<rect x="801.5" y="493.5" fill="#3AADD5" width="19" height="2"/>
	<rect x="777.5" y="505.5" fill="#3AADD5" width="20" height="2"/>
	<rect x="777.5" y="510.5" fill="#3AADD5" width="20" height="2"/>
	<rect x="777.5" y="515.5" fill="#3AADD5" width="20" height="2"/>
</g>
</svg>
