<?xml version="1.0" encoding="utf-8"?>
<!-- Generator: Adobe Illustrator 16.0.0, SVG Export Plug-In . SVG Version: 6.00 Build 0)  -->
<!DOCTYPE svg PUBLIC "-//W3C//DTD SVG 1.1//EN" "http://www.w3.org/Graphics/SVG/1.1/DTD/svg11.dtd">
<svg version="1.1" id="Layer_1" xmlns="http://www.w3.org/2000/svg" xmlns:xlink="http://www.w3.org/1999/xlink" x="0px" y="0px"
	 width="76px" height="74px" viewBox="760.5 440.5 76 74" enable-background="new 760.5 440.5 76 74" xml:space="preserve">
<g>
	<path fill="#3AADD5" d="M835.5,450.5v-10h-74v10h3v49h-3c-1,0-1,1-1,1s0,1,1,1h36c0,0,0,2,0,3c-2,0-4,2-4,5s2,5,5,5s5-2,5-5
		s-2-5-4-5c0-1,0-3,0-3h36c1,0,1-1,1-1s0-1-1-1h-3v-49H835.5z M801.5,509.5c0,1.357-1,3-3,3s-3-1.643-3-3c0-1.356,1-3,3-3
		S801.5,508.144,801.5,509.5z M763.5,442.5h70v6h-70V442.5z M830.566,499.7h-64.133l0.067-49.2h64L830.566,499.7z"/>
	<path fill="#3AADD5" d="M823.5,464.5h-19c-1,0-1,1-1,1s0,1,1,1h19c1,0,1-1,1-1S824.5,464.5,823.5,464.5z"/>
	<path fill="#3AADD5" d="M823.5,473.5h-15c-1,0-1,1-1,1s0,1,1,1h15c1,0,1-1,1-1S824.5,473.5,823.5,473.5z"/>
	<path fill="#3AADD5" d="M785.5,482.5h-12c-1,0-1,1-1,1s0,1,1,1h12c1,0,1-1,1-1S786.5,482.5,785.5,482.5z"/>
	<path fill="#3AADD5" d="M798.5,490.5h-19c-1,0-1,1-1,1s0,1,1,1h19c1,0,1-1,1-1S799.5,490.5,798.5,490.5z"/>
	<path fill="#3AADD5" d="M823.5,490.5h-20c-1,0-1,1-1,1s0,1,1,1h20c1,0,1-1,1-1S824.5,490.5,823.5,490.5z"/>
	<path fill="#3AADD5" d="M818.5,482.5h-20c-1,0-1,1-1,1s0,1,1,1h20c1,0,1-1,1-1S819.5,482.5,818.5,482.5z"/>
	<path fill="#3AADD5" d="M798.5,458.5h19c1,0,1-1,1-1s0-1-1-1h-19c-1,0-1,1-1,1S797.5,458.5,798.5,458.5z"/>
	<path fill="#3AADD5" d="M792.333,456.533H772.6v19.733h19.733V456.533z M790.5,474.5h-16v-16h16V474.5z"/>
</g>
<circle fill="#3AADD5" cx="823" cy="458" r="1.5"/>
<circle fill="#3AADD5" cx="799" cy="466" r="1.5"/>
<circle fill="#3AADD5" cx="799" cy="475" r="1.5"/>
<circle fill="#3AADD5" cx="791" cy="484" r="1.5"/>
<circle fill="#3AADD5" cx="774" cy="492" r="1.5"/>
<circle fill="#3AADD5" cx="823" cy="484" r="1.5"/>
<circle fill="#3AADD5" cx="804" cy="475" r="1.5"/>
</svg>
