<?xml version="1.0" encoding="utf-8"?>
<!-- Generator: Adobe Illustrator 16.0.0, SVG Export Plug-In . SVG Version: 6.00 Build 0)  -->
<!DOCTYPE svg PUBLIC "-//W3C//DTD SVG 1.1//EN" "http://www.w3.org/Graphics/SVG/1.1/DTD/svg11.dtd">
<svg version="1.1" id="Isolation_Mode" xmlns="http://www.w3.org/2000/svg" xmlns:xlink="http://www.w3.org/1999/xlink" x="0px"
	 y="0px" width="70px" height="72px" viewBox="1.5 0.5 70 72" enable-background="new 1.5 0.5 70 72" xml:space="preserve">
<path d="M36.5,71.646l-35-19.559V22.05l35-20.712L71.518,22.05L71.5,52.087L36.5,71.646z M3.5,50.913l33,18.441l33-18.441
	l0.018-27.723L36.5,3.662L3.5,23.19V50.913z"/>
<polygon points="37.5,70.5 35.5,70.5 35.5,42.089 2.015,23.494 2.985,21.746 37.5,40.911 "/>
<rect x="52.509" y="12.607" transform="matrix(0.4855 0.8742 -0.8742 0.4855 55.5598 -30.2845)" width="1.999" height="38.906"/>
<path d="M46.5,55.368V36.054L13.657,15.527l10.839-7.226L57.5,29.96v18.075L46.5,55.368z M17.343,15.473L48.5,34.946v16.686l7-4.667
	V31.04L24.504,10.699L17.343,15.473z"/>
<rect x="21.159" y="21.5" transform="matrix(0.8423 0.5391 -0.5391 0.8423 17.8069 -15.857)" width="29.682" height="2"/>
<polygon points="52.5,42.5 50.5,43.5 50.5,36.5 52.5,35.5 "/>
<polygon points="52.5,46.209 50.5,47.5 50.5,45.5 52.5,44.5 "/>
</svg>
