<?xml version="1.0" encoding="utf-8"?>
<!-- Generator: Adobe Illustrator 16.0.0, SVG Export Plug-In . SVG Version: 6.00 Build 0)  -->
<!DOCTYPE svg PUBLIC "-//W3C//DTD SVG 1.1//EN" "http://www.w3.org/Graphics/SVG/1.1/DTD/svg11.dtd">
<svg version="1.1" id="Isolation_Mode" xmlns="http://www.w3.org/2000/svg" xmlns:xlink="http://www.w3.org/1999/xlink" x="0px"
	 y="0px" width="58px" height="73px" viewBox="-0.5 0 58 73" enable-background="new -0.5 0 58 73" xml:space="preserve">
<g transform="translate(0,-952.36216)">
	<path fill="#2AACD5" d="M4.5,952.362v5h-5v68h53v-5h5v-68H4.5z M50.5,1023.362h-49v-64h3v61h46V1023.362z M55.5,1018.362h-49v-64
		h49V1018.362z"/>
</g>
<path fill="#2AACD5" d="M14.5,23c1.103,0,2,0.897,2,2s-0.897,2-2,2s-2-0.897-2-2S13.397,23,14.5,23 M14.5,21c-2.209,0-4,1.791-4,4
	c0,2.209,1.791,4,4,4c2.209,0,4-1.791,4-4C18.5,22.791,16.709,21,14.5,21L14.5,21z"/>
<path fill="#2AACD5" d="M36.5,23c1.103,0,2,0.897,2,2s-0.897,2-2,2s-2-0.897-2-2S35.397,23,36.5,23 M36.5,21c-2.209,0-4,1.791-4,4
	c0,2.209,1.791,4,4,4s4-1.791,4-4C40.5,22.791,38.709,21,36.5,21L36.5,21z"/>
<path fill="#2AACD5" d="M25.5,12c1.103,0,2,0.897,2,2s-0.897,2-2,2s-2-0.897-2-2S24.397,12,25.5,12 M25.5,10c-2.209,0-4,1.791-4,4
	c0,2.209,1.791,4,4,4c2.209,0,4-1.791,4-4C29.5,11.791,27.709,10,25.5,10L25.5,10z"/>
<path fill="#2AACD5" d="M47.5,12c1.103,0,2,0.897,2,2s-0.897,2-2,2s-2-0.897-2-2S46.397,12,47.5,12 M47.5,10c-2.209,0-4,1.791-4,4
	c0,2.209,1.791,4,4,4s4-1.791,4-4C51.5,11.791,49.709,10,47.5,10L47.5,10z"/>
<rect x="19" y="14.55" transform="matrix(0.7071 0.7071 -0.7071 0.7071 19.6464 -8.4307)" fill="#2AACD5" width="2" height="9.899"/>
<rect x="26.05" y="18.5" transform="matrix(0.7071 0.7071 -0.7071 0.7071 22.8683 -16.2089)" fill="#2AACD5" width="9.899" height="2"/>
<rect x="41" y="14.55" transform="matrix(0.7071 0.7071 -0.7071 0.7071 26.0901 -23.9871)" fill="#2AACD5" width="2" height="9.899"/>
<polygon fill="#2AACD5" points="13.5,46.414 9.793,42.707 11.207,41.293 13.5,43.586 18.793,38.293 20.207,39.707 "/>
<polygon fill="#2AACD5" points="13.5,59.414 9.793,55.707 11.207,54.293 13.5,56.586 18.793,51.293 20.207,52.707 "/>
<rect x="25.5" y="38" fill="#2AACD5" width="26" height="2"/>
<rect x="25.5" y="43" fill="#2AACD5" width="26" height="2"/>
<rect x="25.5" y="51" fill="#2AACD5" width="26" height="2"/>
<rect x="25.5" y="56" fill="#2AACD5" width="26" height="2"/>
</svg>
