<?xml version="1.0" encoding="utf-8"?>
<!-- Generator: Adobe Illustrator 16.0.0, SVG Export Plug-In . SVG Version: 6.00 Build 0)  -->
<!DOCTYPE svg PUBLIC "-//W3C//DTD SVG 1.1//EN" "http://www.w3.org/Graphics/SVG/1.1/DTD/svg11.dtd">
<svg version="1.1" id="Isolation_Mode" xmlns="http://www.w3.org/2000/svg" xmlns:xlink="http://www.w3.org/1999/xlink" x="0px"
	 y="0px" width="58px" height="73px" viewBox="1.5 -1.5 58 73" enable-background="new 1.5 -1.5 58 73" xml:space="preserve">
<g transform="translate(0,-952.36216)">
	<path fill="#2AACD5" d="M32.5,963.862l10,5v12l-10,5l-10-5v-12L32.5,963.862z M32.5,965.862l-8,4v10l8,4l8-4v-10L32.5,965.862z
		 M32.554,968.862l2.946,1v4l-3,1l-3-1v-4L32.554,968.862z M32.5,969.862l-1,1v2l1,1l1-1v-2L32.5,969.862z M38.5,974.862v4l-6,3
		l-6-3v-4h2v3l4,2l4-2v-3H38.5z M46.5,990.862v2h-27v-2H46.5z M46.5,997.862v2h-27v-2H46.5z M46.5,1004.862v2h-27v-2H46.5z"/>
	<path fill="#2AACD5" d="M6.5,950.862v5h-5v68h53v-5h5v-68H6.5z M52.5,1021.862h-49v-64h3v61h46V1021.862z M57.5,1016.862h-49v-64
		h49V1016.862z"/>
</g>
</svg>
