<?xml version="1.0" encoding="utf-8"?>
<!-- Generator: Adobe Illustrator 16.0.0, SVG Export Plug-In . SVG Version: 6.00 Build 0)  -->
<!DOCTYPE svg PUBLIC "-//W3C//DTD SVG 1.1//EN" "http://www.w3.org/Graphics/SVG/1.1/DTD/svg11.dtd">
<svg version="1.1" id="Layer_1" xmlns="http://www.w3.org/2000/svg" xmlns:xlink="http://www.w3.org/1999/xlink" x="0px" y="0px"
	 width="22px" height="29px" viewBox="0 0 22 29" enable-background="new 0 0 22 29" xml:space="preserve">
<g>
	<path fill="#62808D" d="M20.963,27.447c0,0.286-0.232,0.519-0.519,0.519L1.578,27.963c-0.286,0-0.519-0.232-0.519-0.519
		L1.037,8.028L6.444,8C7.302,8,8,7.302,8,6.444V1l12.456,0.04c0.286,0,0.519,0.232,0.519,0.519L20.963,27.447z M22.012,1.558
		c0-0.858-0.698-1.556-1.556-1.556L8-0.037c-0.702,0-1.641,0.389-2.137,0.885L0.886,5.891C0.389,6.387,0,7.326,0,8.028l0.022,19.417
		C0.022,28.302,0.721,29,1.578,29l18.866,0.002c0.857,0,1.556-0.698,1.556-1.556L22.012,1.558z M6.596,1.581
		c0.094-0.093,0.223-0.182,0.367-0.263v5.126c0,0.286-0.232,0.519-0.519,0.519L1.355,6.991c0.081-0.145,0.17-0.273,0.263-0.367
		L6.596,1.581z"/>
</g>
</svg>
