<?xml version="1.0" encoding="utf-8"?>
<!-- Generator: Adobe Illustrator 16.0.0, SVG Export Plug-In . SVG Version: 6.00 Build 0)  -->
<!DOCTYPE svg PUBLIC "-//W3C//DTD SVG 1.1//EN" "http://www.w3.org/Graphics/SVG/1.1/DTD/svg11.dtd">
<svg version="1.1" id="Layer_1" xmlns="http://www.w3.org/2000/svg" xmlns:xlink="http://www.w3.org/1999/xlink" x="0px" y="0px"
	 width="205.214px" height="15.94px" viewBox="0 0.893 205.214 15.94" enable-background="new 0 0.893 205.214 15.94"
	 xml:space="preserve">
<g>
	<path fill="#ECA229" d="M16.714,7.07c0,0.147-0.087,0.308-0.261,0.482l-3.646,3.556l0.864,5.022c0.007,0.047,0.01,0.113,0.01,0.2
		c0,0.141-0.035,0.26-0.105,0.357c-0.07,0.097-0.172,0.146-0.307,0.146c-0.127,0-0.261-0.04-0.401-0.121l-4.51-2.37l-4.51,2.37
		c-0.147,0.081-0.281,0.121-0.402,0.121c-0.141,0-0.246-0.049-0.316-0.146c-0.07-0.099-0.105-0.217-0.105-0.357
		c0-0.04,0.007-0.105,0.02-0.2l0.864-5.022L0.251,7.553C0.083,7.372,0,7.211,0,7.07c0-0.248,0.188-0.401,0.563-0.462l5.042-0.733
		l2.26-4.57C7.992,1.03,8.156,0.893,8.357,0.893c0.2,0,0.364,0.138,0.492,0.412l2.26,4.57l5.042,0.733
		C16.526,6.669,16.714,6.822,16.714,7.07z"/>
</g>
<g>
	<path fill="#ECA229" d="M37.714,7.07c0,0.147-0.087,0.308-0.261,0.482l-3.646,3.556l0.864,5.022c0.007,0.047,0.01,0.113,0.01,0.2
		c0,0.141-0.035,0.26-0.105,0.357c-0.07,0.097-0.172,0.146-0.307,0.146c-0.127,0-0.261-0.04-0.401-0.121l-4.51-2.37l-4.51,2.37
		c-0.147,0.081-0.281,0.121-0.402,0.121c-0.141,0-0.246-0.049-0.316-0.146c-0.07-0.099-0.105-0.217-0.105-0.357
		c0-0.04,0.007-0.105,0.02-0.2l0.864-5.022l-3.656-3.556C21.083,7.372,21,7.211,21,7.07c0-0.248,0.188-0.401,0.563-0.462
		l5.042-0.733l2.26-4.57c0.127-0.274,0.291-0.412,0.492-0.412c0.2,0,0.364,0.138,0.492,0.412l2.26,4.57l5.042,0.733
		C37.526,6.669,37.714,6.822,37.714,7.07z"/>
</g>
<g>
	<path fill="#ECA229" d="M58.714,7.07c0,0.147-0.087,0.308-0.261,0.482l-3.646,3.556l0.864,5.022c0.007,0.047,0.011,0.113,0.011,0.2
		c0,0.141-0.035,0.26-0.105,0.357c-0.07,0.097-0.172,0.146-0.307,0.146c-0.127,0-0.262-0.04-0.401-0.121l-4.51-2.37l-4.511,2.37
		c-0.146,0.081-0.281,0.121-0.401,0.121c-0.141,0-0.246-0.049-0.316-0.146c-0.07-0.099-0.105-0.217-0.105-0.357
		c0-0.04,0.007-0.105,0.021-0.2l0.863-5.022l-3.656-3.556C42.083,7.372,42,7.211,42,7.07c0-0.248,0.188-0.401,0.563-0.462
		l5.042-0.733l2.261-4.57c0.127-0.274,0.291-0.412,0.492-0.412c0.2,0,0.364,0.138,0.492,0.412l2.259,4.57l5.043,0.733
		C58.525,6.669,58.714,6.822,58.714,7.07z"/>
</g>
<g>
	<path fill="#ECA229" d="M79.714,7.07c0,0.147-0.087,0.308-0.261,0.482l-3.646,3.556l0.864,5.022c0.007,0.047,0.011,0.113,0.011,0.2
		c0,0.141-0.035,0.26-0.105,0.357c-0.07,0.097-0.172,0.146-0.307,0.146c-0.127,0-0.262-0.04-0.401-0.121l-4.511-2.37l-4.51,2.37
		c-0.146,0.081-0.281,0.121-0.402,0.121c-0.141,0-0.245-0.049-0.315-0.146c-0.069-0.099-0.104-0.217-0.104-0.357
		c0-0.04,0.007-0.105,0.021-0.2l0.863-5.022l-3.656-3.556C63.083,7.372,63,7.211,63,7.07c0-0.248,0.188-0.401,0.563-0.462
		l5.043-0.733l2.261-4.57c0.127-0.274,0.291-0.412,0.491-0.412c0.201,0,0.365,0.138,0.492,0.412l2.26,4.57l5.043,0.733
		C79.525,6.669,79.714,6.822,79.714,7.07z"/>
</g>
<g>
	<path fill="#ECA229" d="M100.714,7.07c0,0.147-0.087,0.308-0.261,0.482l-3.646,3.556l0.864,5.022
		c0.007,0.047,0.011,0.113,0.011,0.2c0,0.141-0.035,0.26-0.105,0.357c-0.07,0.097-0.172,0.146-0.307,0.146
		c-0.127,0-0.262-0.04-0.401-0.121l-4.511-2.37l-4.51,2.37c-0.146,0.081-0.281,0.121-0.402,0.121c-0.141,0-0.245-0.049-0.315-0.146
		c-0.069-0.099-0.104-0.217-0.104-0.357c0-0.04,0.007-0.105,0.021-0.2l0.863-5.022l-3.656-3.556C84.083,7.372,84,7.211,84,7.07
		c0-0.248,0.188-0.401,0.563-0.462l5.043-0.733l2.261-4.57c0.127-0.274,0.291-0.412,0.491-0.412c0.201,0,0.365,0.138,0.492,0.412
		l2.26,4.57l5.043,0.733C100.525,6.669,100.714,6.822,100.714,7.07z"/>
</g>
<g>
	<path fill="#ECA229" d="M121.214,7.07c0,0.147-0.087,0.308-0.261,0.482l-3.646,3.556l0.863,5.022c0.008,0.047,0.01,0.113,0.01,0.2
		c0,0.141-0.035,0.26-0.104,0.357c-0.07,0.097-0.173,0.146-0.308,0.146c-0.127,0-0.261-0.04-0.4-0.121l-4.51-2.37l-4.51,2.37
		c-0.147,0.081-0.281,0.121-0.402,0.121c-0.141,0-0.246-0.049-0.316-0.146c-0.07-0.099-0.105-0.217-0.105-0.357
		c0-0.04,0.008-0.105,0.021-0.2l0.864-5.022l-3.658-3.554c-0.168-0.181-0.251-0.342-0.251-0.483c0-0.248,0.188-0.401,0.563-0.462
		l5.041-0.733l2.261-4.57c0.127-0.275,0.291-0.412,0.491-0.412c0.201,0,0.365,0.138,0.492,0.412l2.26,4.57l5.043,0.733
		C121.026,6.669,121.214,6.822,121.214,7.07z"/>
</g>
<g>
	<path fill="#ECA229" d="M142.214,7.07c0,0.147-0.087,0.308-0.261,0.482l-3.646,3.556l0.863,5.022c0.008,0.047,0.01,0.113,0.01,0.2
		c0,0.141-0.035,0.26-0.104,0.357c-0.07,0.097-0.173,0.146-0.308,0.146c-0.127,0-0.261-0.04-0.4-0.121l-4.51-2.37l-4.51,2.37
		c-0.147,0.081-0.281,0.121-0.402,0.121c-0.141,0-0.246-0.049-0.316-0.146c-0.07-0.099-0.105-0.217-0.105-0.357
		c0-0.04,0.008-0.105,0.021-0.2l0.864-5.022l-3.656-3.556c-0.17-0.18-0.253-0.341-0.253-0.482c0-0.248,0.188-0.401,0.563-0.462
		l5.041-0.733l2.261-4.57c0.127-0.274,0.291-0.412,0.491-0.412c0.201,0,0.365,0.138,0.492,0.412l2.26,4.57l5.043,0.733
		C142.026,6.669,142.214,6.822,142.214,7.07z"/>
</g>
<g>
	<path fill="#ECA229" d="M163.214,7.07c0,0.147-0.087,0.308-0.261,0.482l-3.646,3.556l0.864,5.022
		c0.007,0.047,0.011,0.113,0.011,0.2c0,0.141-0.035,0.26-0.105,0.357c-0.07,0.097-0.172,0.146-0.307,0.146
		c-0.127,0-0.262-0.04-0.401-0.121l-4.51-2.37l-4.512,2.37c-0.146,0.081-0.281,0.121-0.4,0.121c-0.141,0-0.246-0.049-0.316-0.146
		c-0.07-0.099-0.105-0.217-0.105-0.357c0-0.04,0.008-0.105,0.021-0.2l0.863-5.022l-3.656-3.556c-0.17-0.18-0.253-0.341-0.253-0.482
		c0-0.248,0.188-0.401,0.563-0.462l5.041-0.733l2.262-4.57c0.127-0.274,0.291-0.412,0.492-0.412c0.199,0,0.363,0.138,0.492,0.412
		l2.259,4.57l5.043,0.733C163.025,6.669,163.214,6.822,163.214,7.07z"/>
</g>
<g>
	<path fill="#ECA229" d="M184.214,7.07c0,0.147-0.087,0.308-0.261,0.482l-3.646,3.556l0.864,5.022
		c0.007,0.047,0.011,0.113,0.011,0.2c0,0.141-0.035,0.26-0.105,0.357c-0.07,0.097-0.172,0.146-0.307,0.146
		c-0.127,0-0.262-0.04-0.401-0.121l-4.511-2.37l-4.51,2.37c-0.146,0.081-0.281,0.121-0.402,0.121c-0.141,0-0.245-0.049-0.315-0.146
		c-0.069-0.099-0.104-0.217-0.104-0.357c0-0.04,0.007-0.105,0.021-0.2l0.863-5.022l-3.656-3.556c-0.17-0.18-0.253-0.341-0.253-0.482
		c0-0.248,0.188-0.401,0.563-0.462l5.043-0.733l2.261-4.57c0.127-0.274,0.291-0.412,0.491-0.412c0.201,0,0.365,0.138,0.492,0.412
		l2.26,4.57l5.043,0.733C184.025,6.669,184.214,6.822,184.214,7.07z"/>
</g>
<g>
	<path fill="#ECA229" d="M205.214,7.07c0,0.147-0.087,0.308-0.261,0.482l-3.646,3.556l0.864,5.022
		c0.007,0.047,0.011,0.113,0.011,0.2c0,0.141-0.035,0.26-0.105,0.357c-0.07,0.097-0.172,0.146-0.307,0.146
		c-0.127,0-0.262-0.04-0.401-0.121l-4.511-2.37l-4.51,2.37c-0.146,0.081-0.281,0.121-0.402,0.121c-0.141,0-0.245-0.049-0.315-0.146
		c-0.069-0.099-0.104-0.217-0.104-0.357c0-0.04,0.007-0.105,0.021-0.2l0.863-5.022l-3.656-3.556c-0.17-0.18-0.253-0.341-0.253-0.482
		c0-0.248,0.188-0.401,0.563-0.462l5.043-0.733l2.261-4.57c0.127-0.274,0.291-0.412,0.491-0.412c0.201,0,0.365,0.138,0.492,0.412
		l2.26,4.57l5.043,0.733C205.025,6.669,205.214,6.822,205.214,7.07z"/>
</g>
</svg>
