<?xml version="1.0" encoding="utf-8"?>
<!-- Generator: Adobe Illustrator 16.0.0, SVG Export Plug-In . SVG Version: 6.00 Build 0)  -->
<!DOCTYPE svg PUBLIC "-//W3C//DTD SVG 1.1//EN" "http://www.w3.org/Graphics/SVG/1.1/DTD/svg11.dtd">
<svg version="1.1" id="Layer_1" xmlns="http://www.w3.org/2000/svg" xmlns:xlink="http://www.w3.org/1999/xlink" x="0px" y="0px"
	 width="17px" height="13px" viewBox="0.5 0 17 13" enable-background="new 0.5 0 17 13" xml:space="preserve">
<g>
	<path fill="#ffffff" d="M15.405,9.929c0,0.16-0.03,0.37-0.089,0.629c-0.061,0.259-0.123,0.463-0.188,0.612
		c-0.125,0.297-0.488,0.612-1.09,0.946c-0.559,0.304-1.113,0.455-1.66,0.455c-0.161,0-0.317-0.011-0.469-0.031
		c-0.152-0.021-0.323-0.058-0.514-0.111s-0.332-0.097-0.424-0.13c-0.093-0.032-0.258-0.094-0.496-0.183
		c-0.238-0.09-0.384-0.144-0.438-0.161c-0.583-0.208-1.104-0.455-1.562-0.741c-0.762-0.47-1.549-1.111-2.362-1.924
		s-1.454-1.6-1.924-2.361C3.905,6.47,3.658,5.949,3.45,5.366C3.432,5.313,3.378,5.167,3.29,4.929C3.2,4.69,3.139,4.525,3.106,4.433
		C3.074,4.341,3.03,4.199,2.977,4.009c-0.054-0.19-0.091-0.361-0.112-0.514C2.844,3.344,2.834,3.188,2.834,3.026
		c0-0.547,0.152-1.101,0.456-1.66c0.333-0.602,0.648-0.965,0.946-1.09c0.148-0.065,0.353-0.128,0.611-0.188
		C5.106,0.029,5.316,0,5.477,0C5.56,0,5.623,0.009,5.665,0.026c0.107,0.036,0.265,0.263,0.473,0.679
		c0.065,0.113,0.155,0.274,0.268,0.482c0.113,0.208,0.217,0.397,0.313,0.566c0.095,0.17,0.188,0.329,0.277,0.479
		c0.018,0.023,0.07,0.098,0.156,0.223s0.15,0.23,0.192,0.317c0.042,0.086,0.063,0.171,0.063,0.254c0,0.119-0.084,0.269-0.254,0.446
		C6.981,3.651,6.797,3.815,6.597,3.964C6.398,4.113,6.213,4.271,6.044,4.438C5.874,4.604,5.79,4.741,5.79,4.848
		c0,0.054,0.015,0.121,0.044,0.201S5.889,5.19,5.91,5.232c0.021,0.041,0.063,0.112,0.125,0.214s0.097,0.158,0.103,0.17
		c0.452,0.815,0.97,1.515,1.553,2.098c0.583,0.584,1.283,1.102,2.098,1.554c0.012,0.006,0.068,0.04,0.17,0.103
		s0.172,0.104,0.215,0.125c0.041,0.021,0.102,0.047,0.183,0.076c0.08,0.03,0.147,0.045,0.2,0.045c0.107,0,0.244-0.085,0.411-0.255
		s0.325-0.354,0.474-0.554c0.148-0.199,0.313-0.384,0.49-0.554C12.111,8.085,12.26,8,12.379,8c0.083,0,0.168,0.021,0.254,0.063
		s0.192,0.105,0.317,0.191c0.125,0.087,0.199,0.139,0.224,0.156c0.148,0.09,0.308,0.182,0.477,0.277
		C13.82,8.782,14.01,8.887,14.218,9s0.369,0.202,0.482,0.268c0.417,0.209,0.643,0.366,0.679,0.474
		C15.396,9.782,15.405,9.845,15.405,9.929z"/>
</g>
</svg>
