<?xml version="1.0" encoding="utf-8"?>
<!-- Generator: Adobe Illustrator 16.0.0, SVG Export Plug-In . SVG Version: 6.00 Build 0)  -->
<!DOCTYPE svg PUBLIC "-//W3C//DTD SVG 1.1//EN" "http://www.w3.org/Graphics/SVG/1.1/DTD/svg11.dtd">
<svg version="1.1" id="Isolation_Mode" xmlns="http://www.w3.org/2000/svg" xmlns:xlink="http://www.w3.org/1999/xlink" x="0px"
	 y="0px" width="120px" height="120px" viewBox="-37 -43 120 120" enable-background="new -37 -43 120 120" xml:space="preserve">
<g>
	<path fill="#FFFFFF" d="M20.5,10c0-5.523-4.477-10-10-10s-10,4.477-10,10s4.477,10,10,10c2.254,0,4.328-0.755,6-2.014V21
		c0,6.064-4.935,11-11,11h-3v2h3c7.18,0,13-5.82,13-13v-5h-0.014C19.745,14.327,20.5,12.254,20.5,10z M10.5,18c-4.411,0-8-3.588-8-8
		s3.589-8,8-8s8,3.588,8,8S14.911,18,10.5,18z"/>
	<path fill="#FFFFFF" d="M45.5,10c0-5.523-4.477-10-10-10s-10,4.477-10,10s4.477,10,10,10c2.254,0,4.328-0.755,6-2.014V21
		c0,6.064-4.936,11-11,11h-3v2h3c7.18,0,13-5.82,13-13v-5h-0.014C44.745,14.327,45.5,12.254,45.5,10z M35.5,18c-4.411,0-8-3.588-8-8
		s3.589-8,8-8s8,3.588,8,8S39.911,18,35.5,18z"/>
</g>
</svg>
