<?xml version="1.0" encoding="utf-8"?>
<!-- Generator: Adobe Illustrator 19.1.0, SVG Export Plug-In . SVG Version: 6.00 Build 0)  -->
<svg version="1.1" id="Слой_1" xmlns="http://www.w3.org/2000/svg" xmlns:xlink="http://www.w3.org/1999/xlink" x="0px" y="0px"
	 width="36px" height="36px" viewBox="0 0 36 36" style="enable-background:new 0 0 36 36;" xml:space="preserve">
<style type="text/css">
	.st0{fill:#1080d0;}
</style>
<path class="st0" d="M17.5,15.2c0.1-0.1,0.3-0.2,0.5-0.2s0.4,0.1,0.5,0.2l4.3,4.5c0.1,0.1,0.2,0.3,0.2,0.5c0,0.4-0.3,0.8-0.7,0.8
	c-0.2,0-0.4-0.1-0.5-0.2l-3.8-4l-3.8,4c-0.1,0.1-0.3,0.2-0.5,0.2c-0.4,0-0.7-0.3-0.7-0.8c0-0.2,0.1-0.4,0.2-0.5L17.5,15.2z"/>
</svg>
