<?xml version="1.0" encoding="utf-8"?>
<!-- Generator: Adobe Illustrator 16.0.0, SVG Export Plug-In . SVG Version: 6.00 Build 0)  -->
<!DOCTYPE svg PUBLIC "-//W3C//DTD SVG 1.1//EN" "http://www.w3.org/Graphics/SVG/1.1/DTD/svg11.dtd">
<svg version="1.1" id="Layer_1" xmlns="http://www.w3.org/2000/svg" xmlns:xlink="http://www.w3.org/1999/xlink" x="0px" y="0px"
	 width="24px" height="19.495px" viewBox="0 0 24 19.495" enable-background="new 0 0 24 19.495" xml:space="preserve">
<g>
	<g>
		<path fill="#FFFFFF" d="M24,2.307c-0.882,0.39-1.832,0.656-2.827,0.775c1.018-0.609,1.796-1.575,2.165-2.722
			c-0.954,0.564-2.007,0.974-3.127,1.195C19.311,0.597,18.033,0,16.617,0c-2.72,0-4.924,2.205-4.924,4.922
			c0,0.385,0.045,0.761,0.127,1.122C7.729,5.838,4.103,3.878,1.674,0.9C1.249,1.626,1.007,2.472,1.007,3.374
			c0,1.708,0.87,3.216,2.19,4.098C2.39,7.444,1.631,7.222,0.967,6.853v0.062c0,2.384,1.697,4.373,3.948,4.826
			c-0.411,0.112-0.848,0.174-1.298,0.174c-0.317,0-0.624-0.033-0.927-0.092c0.626,1.957,2.445,3.38,4.599,3.42
			c-1.685,1.319-3.808,2.104-6.114,2.104c-0.397,0-0.789-0.024-1.175-0.068c2.18,1.398,4.767,2.216,7.547,2.216
			c9.056,0,14.007-7.503,14.007-14.007L21.536,4.85C22.505,4.16,23.343,3.293,24,2.307z"/>
	</g>
</g>
</svg>
