<?xml version="1.0" encoding="utf-8"?>
<!-- Generator: Adobe Illustrator 16.0.0, SVG Export Plug-In . SVG Version: 6.00 Build 0)  -->
<!DOCTYPE svg PUBLIC "-//W3C//DTD SVG 1.1//EN" "http://www.w3.org/Graphics/SVG/1.1/DTD/svg11.dtd">
<svg version="1.1" id="Layer_1" xmlns="http://www.w3.org/2000/svg" xmlns:xlink="http://www.w3.org/1999/xlink" x="0px" y="0px"
	 width="71px" height="47px" viewBox="-479.5 4458.5 71 47" enable-background="new -479.5 4458.5 71 47" xml:space="preserve">
<g>
	<path fill="#2B4850" d="M-443.516,4480.266c5.995,0,10.856-4.878,10.856-10.855c0-5.979-4.878-10.856-10.856-10.856
		c-5.978,0-10.856,4.877-10.856,10.856C-454.373,4475.388-449.494,4480.266-443.516,4480.266z M-443.516,4461.017
		c4.632,0,8.394,3.761,8.394,8.394c0,4.631-3.762,8.392-8.394,8.392c-4.631,0-8.393-3.761-8.393-8.392
		C-451.909,4464.777-448.147,4461.017-443.516,4461.017z"/>
	<path fill="#2B4850" d="M-432.282,4485.833c-3.301-2.611-7.177-3.991-11.234-3.991c-4.057,0-7.933,1.38-11.234,3.991
		c-3.203,2.53-5.633,6.028-7.029,10.118c-0.772,2.25-0.427,4.729,0.937,6.636c1.182,1.642,2.94,2.594,4.845,2.594H-431
		c1.905,0,3.663-0.952,4.845-2.594c1.363-1.906,1.708-4.386,0.936-6.636C-426.648,4491.861-429.079,4488.363-432.282,4485.833z
		 M-428.176,4501.158c-0.706,0.984-1.741,1.56-2.841,1.56h-24.998c-1.1,0-2.119-0.575-2.841-1.56
		c-0.887-1.249-1.117-2.892-0.608-4.402c1.249-3.646,3.417-6.751,6.242-8.984c2.858-2.267,6.225-3.465,9.707-3.465
		s6.849,1.198,9.707,3.465c2.825,2.233,4.977,5.339,6.241,8.984C-427.059,4498.267-427.289,4499.909-428.176,4501.158z"/>
	<path fill="#2B4850" d="M-466.017,4480.774c4.089,0,7.424-3.333,7.424-7.424c0-4.089-3.334-7.424-7.424-7.424
		c-4.09,0-7.424,3.335-7.424,7.424C-473.441,4477.441-470.107,4480.774-466.017,4480.774z M-466.017,4467.603
		c3.169,0,5.732,2.579,5.732,5.732c0,3.17-2.579,5.731-5.732,5.731c-3.17,0-5.732-2.578-5.732-5.731
		S-469.171,4467.603-466.017,4467.603z"/>
	<path fill="#2B4850" d="M-421.721,4479.148c4.205,0,7.621-3.415,7.621-7.62c0-4.204-3.416-7.621-7.621-7.621
		c-4.205,0-7.621,3.417-7.621,7.621C-429.342,4475.733-425.926,4479.148-421.721,4479.148z M-421.721,4465.647
		c3.251,0,5.896,2.645,5.896,5.897c0,3.252-2.645,5.896-5.896,5.896c-3.252,0-5.896-2.645-5.896-5.896
		C-427.617,4468.292-424.973,4465.647-421.721,4465.647z"/>
	<path fill="#2B4850" d="M-409.057,4490.153c-0.986-2.874-2.694-5.321-4.928-7.096c-2.316-1.822-5.042-2.792-7.884-2.792
		c-2.841,0-5.568,0.97-7.883,2.792c-0.674,0.542-1.315,1.149-1.889,1.807c0.263,0.182,0.509,0.378,0.771,0.576
		c0.197,0.164,0.394,0.328,0.591,0.492c0.493-0.543,1.019-1.052,1.594-1.511c2.003-1.595,4.353-2.432,6.8-2.432
		s4.795,0.837,6.799,2.432c1.987,1.56,3.498,3.743,4.369,6.306c0.361,1.052,0.197,2.201-0.427,3.089
		c-0.493,0.689-1.215,1.1-1.987,1.1h-10.971c0.082,0.214,0.164,0.427,0.229,0.657c0.115,0.345,0.214,0.706,0.279,1.067h10.446
		c1.331,0,2.563-0.657,3.4-1.823C-408.762,4493.471-408.516,4491.73-409.057,4490.153z"/>
	<path fill="#2B4850" d="M-476.496,4495.048c-0.608-0.854-0.772-1.988-0.411-3.006c0.854-2.497,2.332-4.615,4.254-6.143
		c1.954-1.544,4.253-2.365,6.635-2.365c2.381,0,4.681,0.821,6.635,2.365c0.427,0.345,0.837,0.706,1.215,1.116
		c0.394-0.395,0.821-0.771,1.249-1.133c-0.444-0.46-0.92-0.903-1.429-1.297c-2.25-1.791-4.911-2.727-7.67-2.727
		c-2.759,0-5.42,0.936-7.67,2.727c-2.184,1.725-3.843,4.122-4.813,6.914c-0.525,1.544-0.295,3.235,0.641,4.533
		c0.805,1.133,2.004,1.774,3.301,1.774h10.643c0.017-0.56,0.099-1.134,0.247-1.692h-10.906
		C-475.297,4496.115-476.003,4495.722-476.496,4495.048z"/>
</g>
</svg>
