<?xml version="1.0" encoding="utf-8"?>
<!-- Generator: Adobe Illustrator 16.0.0, SVG Export Plug-In . SVG Version: 6.00 Build 0)  -->
<!DOCTYPE svg PUBLIC "-//W3C//DTD SVG 1.1//EN" "http://www.w3.org/Graphics/SVG/1.1/DTD/svg11.dtd">
<svg version="1.1" id="Layer_1" xmlns="http://www.w3.org/2000/svg" xmlns:xlink="http://www.w3.org/1999/xlink" x="0px" y="0px"
	 width="20px" height="24px" viewBox="0 0 20 24" enable-background="new 0 0 20 24" xml:space="preserve">
<g>
	<path id="YouTube" fill="#FFFFFF" d="M16.917,17.556H15.6l0.007-0.766c0-0.341,0.279-0.618,0.62-0.618h0.084
		c0.342,0,0.621,0.277,0.621,0.618L16.917,17.556z M11.977,15.915c-0.334,0-0.607,0.225-0.607,0.5v3.721
		c0,0.274,0.273,0.499,0.607,0.499c0.335,0,0.609-0.225,0.609-0.499v-3.721C12.586,16.14,12.312,15.915,11.977,15.915z M20,13.834
		v7.079C20,22.61,18.527,24,16.728,24H3.272C1.472,24,0,22.61,0,20.913v-7.079c0-1.698,1.472-3.087,3.272-3.087h13.456
		C18.527,10.747,20,12.136,20,13.834z M4.17,21.681l-0.001-7.456l1.668,0.001V13.12L1.39,13.114V14.2l1.388,0.004v7.477H4.17z
		 M9.17,15.336H7.779v3.981c0,0.575,0.035,0.864-0.002,0.965c-0.112,0.31-0.621,0.637-0.819,0.034
		c-0.034-0.105-0.004-0.425-0.004-0.972l-0.006-4.009H5.564l0.004,3.946c0.001,0.605-0.014,1.056,0.005,1.261
		c0.034,0.361,0.022,0.783,0.357,1.024c0.625,0.451,1.825-0.066,2.125-0.711l-0.003,0.822L9.17,21.68V15.336L9.17,15.336z
		 M13.619,19.896l-0.003-3.314c-0.001-1.263-0.946-2.019-2.229-0.997l0.006-2.464l-1.389,0.002l-0.007,8.505l1.142-0.018
		l0.104-0.529C12.704,22.419,13.621,21.501,13.619,19.896z M17.971,19.456l-1.043,0.005c-0.001,0.042-0.002,0.09-0.002,0.142v0.582
		c0,0.311-0.258,0.564-0.57,0.564h-0.204c-0.313,0-0.57-0.254-0.57-0.564v-0.065v-0.64v-0.825h2.388v-0.899
		c0-0.656-0.018-1.313-0.071-1.688c-0.171-1.188-1.838-1.376-2.681-0.768c-0.265,0.189-0.467,0.443-0.583,0.785
		c-0.118,0.342-0.177,0.808-0.177,1.4v1.977C14.458,22.745,18.448,22.28,17.971,19.456z M12.623,8.729
		c0.071,0.174,0.183,0.315,0.335,0.422c0.148,0.105,0.34,0.158,0.568,0.158c0.2,0,0.378-0.055,0.532-0.166
		c0.154-0.112,0.284-0.278,0.391-0.499l-0.026,0.545h1.551V2.597h-1.221v5.131c0,0.278-0.229,0.505-0.509,0.505
		c-0.278,0-0.508-0.228-0.508-0.505V2.597h-1.273v4.447c0,0.566,0.011,0.944,0.027,1.136C12.507,8.369,12.551,8.552,12.623,8.729z
		 M7.925,5.005c0-0.633,0.053-1.127,0.157-1.483c0.106-0.355,0.295-0.641,0.57-0.855C8.926,2.45,9.277,2.342,9.703,2.342
		c0.358,0,0.666,0.07,0.922,0.208c0.258,0.138,0.457,0.318,0.595,0.541c0.139,0.223,0.236,0.452,0.287,0.687
		c0.053,0.237,0.077,0.596,0.077,1.08v1.667c0,0.612-0.024,1.062-0.072,1.347c-0.047,0.287-0.147,0.552-0.305,0.801
		c-0.155,0.246-0.355,0.431-0.597,0.549c-0.245,0.118-0.524,0.176-0.841,0.176c-0.353,0-0.65-0.049-0.896-0.151
		C8.626,9.145,8.437,8.993,8.301,8.789C8.165,8.586,8.068,8.339,8.01,8.05C7.952,7.762,7.924,7.328,7.924,6.75L7.925,5.005
		L7.925,5.005z M9.139,7.624c0,0.374,0.278,0.678,0.616,0.678c0.339,0,0.616-0.304,0.616-0.678V4.114
		c0-0.373-0.277-0.678-0.616-0.678c-0.338,0-0.616,0.305-0.616,0.678V7.624z M4.849,9.396h1.462L6.313,4.34l1.729-4.332h-1.6
		L5.522,3.226L4.591,0H3.008l1.838,4.342L4.849,9.396z"/>
</g>
</svg>
