<?xml version="1.0" encoding="utf-8"?>
<!-- Generator: Adobe Illustrator 16.0.0, SVG Export Plug-In . SVG Version: 6.00 Build 0)  -->
<!DOCTYPE svg PUBLIC "-//W3C//DTD SVG 1.1//EN" "http://www.w3.org/Graphics/SVG/1.1/DTD/svg11.dtd">
<svg version="1.1" id="Objects" xmlns="http://www.w3.org/2000/svg" xmlns:xlink="http://www.w3.org/1999/xlink" x="0px" y="0px"
	 width="494.396px" height="703px" viewBox="0 0 494.396 703" enable-background="new 0 0 494.396 703" xml:space="preserve">
<path fill="#EDEDED" d="M492.946,295.845l-16.791,2.211c-1.234-9.364-3.314-18.465-6.177-27.217l16.086-5.261
	c-6.814-20.841-17.5-39.923-31.752-56.718l-12.906,10.951c-6.03-7.105-12.706-13.646-19.935-19.541l10.703-13.122
	c-17.067-13.923-36.359-24.227-57.344-30.626l-4.94,16.198c-8.793-2.683-17.925-4.595-27.32-5.647l1.875-16.718
	c-5.583-0.624-11.276-0.677-16.928-0.746c-0.692-0.007-1.389,0.393-2.077,0.393c-0.006,0-0.007,0-0.011,0
	c-15.521,0-30.913,1.814-45.741,5.983l4.515,15.909c-9.026,2.545-17.72,5.845-25.989,9.933l-7.5-15.198
	c-19.665,9.721-37.035,22.982-51.632,39.436l12.658,11.226c-6.17,6.955-11.705,14.482-16.532,22.49l-14.505-8.741
	c-11.351,18.841-18.807,39.408-22.158,61.129l16.736,2.582c-1.085,7.028-1.701,14.215-1.79,21.532
	c-0.025,2.12,0.004,4.226,0.065,6.327l-16.928,0.487c0.634,22.021,5.464,43.352,14.354,63.402l15.478-6.864
	c3.797,8.566,8.363,16.716,13.614,24.366l-13.963,9.579c12.43,18.115,28.018,33.438,46.336,45.544l9.333-14.121
	c7.734,5.111,15.968,9.529,24.611,13.177l-6.59,15.602c20.168,8.516,41.578,12.968,63.602,13.23l0.443,0.003l0.118-16.926
	c9.491,0.094,18.789-0.69,27.818-2.266l2.911,16.681c21.638-3.775,42.051-11.639,60.678-23.367l-9.021-14.328
	c7.906-4.978,15.322-10.664,22.16-16.973l11.481,12.445c16.177-14.922,29.112-32.554,38.438-52.398l-15.319-7.2
	c3.929-8.361,7.111-17.143,9.48-26.258l16.395,4.254c3.417-13.172,5.233-26.807,5.398-40.57c0.007-0.685,0.012-1.369,0.012-2.052
	C494.396,310.634,493.908,303.161,492.946,295.845z M218.75,316.833c0.714-58.941,49.087-106.149,108.016-105.442
	c58.963,0.708,106.148,49.086,105.44,108.016c-0.714,58.933-49.084,106.131-108.025,105.423
	C265.241,424.134,218.042,375.773,218.75,316.833z"/>
<path fill="#F2F2F2" d="M147.379,618.75l-1.299-10.008c5.583-0.727,11.01-1.956,16.229-3.65l3.115,9.592
	c12.428-4.036,23.814-10.381,33.839-18.854l-6.511-7.704c4.241-3.585,8.148-7.557,11.668-11.856l7.809,6.393
	c8.317-10.155,14.48-21.639,18.319-34.138l-9.647-2.962c1.608-5.237,2.758-10.679,3.397-16.276l9.96,1.138
	c0.379-3.328,0.546-6.719,0.594-10.087c0.007-0.414-0.103-0.829-0.103-1.239c0-0.002,0-0.004,0-0.005
	c0-9.251-1.174-18.426-3.641-27.265l-9.552,2.67c-1.506-5.382-3.495-10.567-5.921-15.499l9.051-4.453
	c-5.771-11.729-13.661-22.097-23.45-30.815l-6.708,7.529c-4.138-3.685-8.619-6.993-13.386-9.877l5.225-8.634
	c-11.214-6.788-23.462-11.254-36.402-13.277l-1.56,9.973c-4.188-0.656-8.469-1.032-12.83-1.093c-1.263-0.018-2.518-0.003-3.77,0.03
	l-0.271-10.089c-13.125,0.354-25.842,3.207-37.801,8.48l4.072,9.231c-5.109,2.252-9.971,4.964-14.537,8.084l-5.692-8.332
	c-10.81,7.387-19.959,16.659-27.197,27.562l8.406,5.577c-3.056,4.604-5.697,9.505-7.882,14.652l-9.289-3.946
	c-5.1,12.011-7.777,24.764-7.959,37.888l-0.003,0.266l10.087,0.09c-0.067,5.655,0.39,11.197,1.318,16.58l-9.945,1.714
	c2.225,12.9,6.887,25.075,13.854,36.189l8.55-5.359c2.957,4.719,6.337,9.146,10.088,13.228l-7.43,6.827
	c8.874,9.656,19.366,17.388,31.181,22.969l4.309-9.123c4.978,2.352,10.208,4.259,15.636,5.682l-2.554,9.766
	c7.846,2.052,15.97,3.148,24.171,3.266c0.408,0.005,0.815,0.009,1.222,0.01C138.564,619.596,143.019,619.313,147.379,618.75z
	 M135.193,455.319c35.125,0.494,63.202,29.376,62.71,64.495c-0.49,35.138-29.376,63.2-64.494,62.709
	c-35.121-0.494-63.19-29.376-62.699-64.501C71.193,482.899,100.068,454.829,135.193,455.319z"/>
<g>
	<path fill="#333333" d="M264.417,594.021l-0.171-0.002c-3.282-0.039-6.509-0.68-9.562-1.903l3.724-9.281
		c1.901,0.763,3.915,1.162,5.985,1.187L264.417,594.021z M275.14,591.848l-3.968-9.179c1.888-0.816,3.593-1.964,5.065-3.412
		l7.008,7.134C280.89,588.705,278.163,590.541,275.14,591.848z M245.558,586.006c-2.309-2.364-4.137-5.096-5.434-8.122l9.191-3.938
		c0.809,1.888,1.951,3.595,3.396,5.073L245.558,586.006z M289.327,577.25l-9.29-3.699c0.751-1.886,1.144-3.885,1.169-5.938l10-0.003
		l-0.002,0.179C291.166,571.017,290.534,574.219,289.327,577.25z M247.981,567.21l-10-0.061c0.041-3.364,0.679-6.583,1.898-9.627
		l9.283,3.717C248.405,563.135,248.007,565.144,247.981,567.21z M279.86,560.844c-0.813-1.886-1.959-3.591-3.406-5.065l7.139-7.003
		c2.314,2.358,4.148,5.088,5.451,8.111L279.86,560.844z M252.974,555.539l-6.995-7.146c2.361-2.311,5.092-4.142,8.118-5.441
		l3.947,9.188C256.156,552.949,254.451,554.093,252.974,555.539z M270.75,551.974c-1.892-0.755-3.894-1.15-5.955-1.176l-0.118-0.003
		l0.139-3.866l-0.002-6.131l0.104,0.002v-0.001c3.295,0.04,6.505,0.675,9.542,1.888L270.75,551.974z"/>
	<path fill="#333333" d="M264.854,545.799c-11.935-0.145-21.728,9.414-21.873,21.352c-0.144,11.933,9.416,21.728,21.35,21.87
		c11.935,0.144,21.729-9.414,21.872-21.35C286.351,555.736,276.79,545.943,264.854,545.799z M264.469,577.729
		c-5.7-0.066-10.265-4.743-10.196-10.443c0.069-5.7,4.748-10.266,10.446-10.197c5.702,0.068,10.267,4.747,10.197,10.446
		S270.169,577.799,264.469,577.729z"/>
</g>
<g>
	<path fill="#333333" d="M375.417,250.021l-0.171-0.002c-3.282-0.039-6.509-0.68-9.563-1.904l3.725-9.281
		c1.9,0.763,3.915,1.162,5.984,1.187L375.417,250.021z M386.14,247.848l-3.968-9.179c1.889-0.816,3.592-1.964,5.065-3.412
		l7.008,7.134C391.89,244.705,389.163,246.541,386.14,247.848z M356.558,242.006c-2.309-2.364-4.137-5.096-5.434-8.122l9.191-3.939
		c0.809,1.888,1.951,3.595,3.396,5.074L356.558,242.006z M400.327,233.25l-9.29-3.699c0.751-1.886,1.144-3.885,1.169-5.939l10-0.003
		l-0.002,0.179C402.166,227.017,401.534,230.219,400.327,233.25z M358.982,223.21l-10-0.061c0.041-3.364,0.679-6.583,1.897-9.627
		l9.283,3.717C359.405,219.135,359.007,221.144,358.982,223.21z M390.86,216.844c-0.813-1.886-1.959-3.591-3.406-5.066l7.139-7.003
		c2.314,2.359,4.148,5.088,5.451,8.112L390.86,216.844z M363.974,211.539l-6.995-7.146c2.361-2.311,5.093-4.142,8.117-5.442
		l3.948,9.188C367.156,208.949,365.451,210.093,363.974,211.539z M381.75,207.974c-1.891-0.755-3.895-1.151-5.955-1.176
		l-0.118-0.003l0.139-3.866l-0.001-6.131l0.103,0.002v-0.001c3.295,0.04,6.505,0.675,9.542,1.888L381.75,207.974z"/>
	<path fill="#333333" d="M375.855,201.799c-11.936-0.145-21.729,9.414-21.873,21.351c-0.145,11.933,9.416,21.728,21.35,21.87
		c11.934,0.144,21.729-9.414,21.872-21.349C397.351,211.736,387.79,201.943,375.855,201.799z M375.469,233.73
		c-5.7-0.067-10.265-4.744-10.195-10.444c0.068-5.7,4.746-10.266,10.445-10.197c5.702,0.068,10.267,4.747,10.197,10.446
		C385.847,229.234,381.169,233.799,375.469,233.73z"/>
</g>
<path fill="#AAAAAA" d="M393.444,658c-6.896,0-13.704-0.934-20.244-2.776l1.627-5.774c6.01,1.692,12.271,2.551,18.61,2.551
	c0.416,0,0.825-0.004,1.233-0.012l0.116,5.999C394.341,657.996,393.895,658,393.444,658z M403.509,657.278l-0.86-5.938
	c6.635-0.963,13.021-2.974,18.984-5.978l2.699,5.357C417.791,654.017,410.785,656.223,403.509,657.278z M364.947,652.357
	c-6.772-2.818-13.038-6.622-18.625-11.307l3.854-4.598c5.12,4.293,10.865,7.78,17.074,10.364L364.947,652.357z M431.888,646.285
	l-3.361-4.97c5.5-3.722,10.403-8.303,14.577-13.615l4.719,3.706C443.264,637.209,437.903,642.215,431.888,646.285z M339.979,635.031
	c-5.012-5.38-9.116-11.462-12.201-18.078l5.438-2.536c2.819,6.045,6.572,11.604,11.154,16.525L339.979,635.031z M452.792,624.224
	l-5.128-3.113c3.459-5.696,6.077-11.901,7.78-18.442l5.807,1.512C459.4,611.285,456.555,618.029,452.792,624.224z M324.583,608.667
	c-2.212-6.91-3.333-13.667-3.333-21.667h6c0,7,1.025,13.457,3.048,19.775L324.583,608.667z M462.964,595.631l-5.939-0.847
	c0.48-3.376,0.725-6.835,0.725-10.281V574h6v10.503C463.749,588.231,463.485,591.975,462.964,595.631z M463.749,566h-6v-21h6V566z
	 M463.749,536h-6v-21h6V536z M463.749,507h-6v-21h6V507z M463.749,478h-6v-21h6V478z M463.749,448h-6v-21h6V448z M463.749,419h-6
	l-0.011-21.041l5.992-0.366l0.019,0.407V419z M457.254,389.529c-0.587-8.361-1.416-15.021-2.534-20.362l5.873-1.229
	c1.19,5.688,2.031,12.416,2.646,21.17L457.254,389.529z M452.631,361.465c-2.258-6.48-5.458-11.236-10.701-15.899l3.987-4.483
	c5.979,5.318,9.796,10.995,12.379,18.408L452.631,361.465z M435.601,340.573c-1.43-1.029-3.025-2.135-5.023-3.48
	c-1.099-0.74-4.233-2.385-12.928-6.023l2.314-5.535c9.919,4.15,12.72,5.744,13.964,6.582c2.051,1.381,3.695,2.521,5.178,3.587
	L435.601,340.573z M67.311,334.356c-2.048,0-4.133-0.106-6.197-0.315l0.604-5.97c6.657,0.674,13.295,0.138,19.686-1.585l1.563,5.793
	C77.855,333.657,72.588,334.356,67.311,334.356z M52.455,332.557c-4.865-1.172-9.792-2.938-14.644-5.25
	c-1.901-0.906-3.759-1.881-5.522-2.899l2.999-5.196c1.627,0.939,3.344,1.84,5.104,2.678c4.476,2.133,9.007,3.759,13.468,4.834
	L52.455,332.557z M91.277,329.391l-2.36-5.517c5.976-2.557,11.637-6.156,16.827-10.697l3.951,4.516
	C104.03,322.65,97.833,326.586,91.277,329.391z M409.887,327.892c-5.481-2.205-12.06-4.781-19.55-7.656l2.15-5.602
	c7.52,2.887,14.127,5.474,19.639,7.691L409.887,327.892z M24.992,319.589c-6.033-4.551-11.054-9.95-14.923-16.047l5.066-3.215
	c3.481,5.487,8.014,10.356,13.47,14.472L24.992,319.589z M382.491,317.239c-6.154-2.338-12.74-4.814-19.673-7.399l2.097-5.622
	c6.945,2.59,13.542,5.07,19.708,7.413L382.491,317.239z M115.921,311.579l-4.44-4.035c4.613-5.075,8.477-10.811,11.175-16.587
	l5.437,2.539C125.143,299.811,120.934,306.064,115.921,311.579z M354.947,306.914c-6.347-2.354-12.939-4.785-19.722-7.273
	l2.067-5.633c6.788,2.491,13.387,4.924,19.739,7.28L354.947,306.914z M327.341,296.752c-6.454-2.359-13.052-4.762-19.749-7.194
	l2.048-5.64c6.701,2.433,13.305,4.837,19.762,7.199L327.341,296.752z M5.914,295.758c-2.894-6.554-4.646-13.704-5.208-21.251
	l5.983-0.445c0.511,6.863,2.097,13.348,4.713,19.273L5.914,295.758z M299.698,286.696c-6.529-2.364-13.133-4.749-19.768-7.138
	l2.033-5.646c6.639,2.391,13.245,4.776,19.777,7.142L299.698,286.696z M131.216,285.2l-5.773-1.632
	c0.617-2.185,1.013-4.277,1.177-6.219c0.007-0.115,0.036-0.812,0.036-4.468c0-2.354-0.011-5.519-0.032-9.362l6-0.032
	c0.021,3.856,0.032,7.032,0.032,9.394c0,4.294-0.037,4.734-0.057,4.971C132.402,280.175,131.938,282.647,131.216,285.2z
	 M272.026,276.714c-6.603-2.374-13.219-4.747-19.812-7.106l2.021-5.649c6.595,2.36,13.216,4.734,19.82,7.109L272.026,276.714z
	 M244.308,266.78c-6.658-2.38-13.271-4.739-19.797-7.063l2.013-5.652c6.528,2.325,13.144,4.685,19.804,7.064L244.308,266.78z
	 M6.581,266.046l-5.994-0.276c0.333-7.231,1.751-14.62,4.1-21.367l5.667,1.973C8.193,252.583,6.888,259.385,6.581,266.046z
	 M216.599,256.901c-6.734-2.396-13.354-4.746-19.81-7.035l2.005-5.655c6.458,2.29,13.08,4.641,19.816,7.037L216.599,256.901z
	 M126.57,255.103c-0.042-6.096-0.099-13.199-0.167-21.021l6-0.052c0.067,7.827,0.124,14.933,0.167,21.031L126.57,255.103z
	 M188.871,247.06c-6.845-2.424-13.474-4.769-19.825-7.012l1.998-5.657c6.353,2.244,12.984,4.589,19.83,7.014L188.871,247.06z
	 M13.459,239.023l-5.353-2.711c1.782-3.519,3.778-6.595,5.932-9.145c2.391-2.831,5.046-5.506,7.892-7.953l3.912,4.549
	c-2.605,2.24-5.035,4.688-7.221,7.276C16.768,233.233,15.031,235.919,13.459,239.023z M161.122,237.251
	c-7.053-2.488-13.699-4.83-19.841-6.991l1.991-5.66c6.144,2.162,12.791,4.503,19.846,6.993L161.122,237.251z M133.346,227.469
	c-1.773-0.623-3.492-1.227-5.155-1.812l-1.86,0.017c-0.002-0.224-0.004-0.448-0.006-0.672c-4.812-1.689-9.116-3.2-12.837-4.504
	l1.984-5.662c3.187,1.117,6.801,2.385,10.794,3.787c-0.042-4.517-0.086-9.183-0.132-13.956l6-0.058
	c0.053,5.542,0.104,10.94,0.151,16.128c0.998,0.351,2.015,0.708,3.05,1.072L133.346,227.469z M32.23,218.916l-3.33-4.991
	c6.12-4.083,12.772-7.176,19.771-9.193l1.661,5.766C43.927,212.343,37.837,215.175,32.23,218.916z M105.519,217.708
	c-2.939-1.029-5.115-1.79-6.428-2.249l-0.165,0.118l-1.588-0.747c-3.746-1.761-7.583-3.201-11.406-4.281l1.632-5.774
	c4.138,1.169,8.285,2.726,12.327,4.625l0,0c0.474,0.147,1.044,0.347,1.752,0.594l5.859,2.049L105.519,217.708z M78.092,208.821
	c-6.644-1.056-13.403-1.072-19.944-0.053l-0.924-5.929c7.156-1.115,14.552-1.098,21.81,0.056L78.092,208.821z M126.053,196.263
	l-0.209-21.002l6-0.061l0.209,21.004L126.053,196.263z M125.758,166.858l-0.218-21.005l6-0.063l0.218,21.006L125.758,166.858z
	 M125.451,137.449l-0.225-21.007l6-0.065l0.225,21.009L125.451,137.449z M125.136,108.037l-0.229-21.017l6-0.066l0.229,21.018
	L125.136,108.037z M124.813,78.606l-0.235-21.055l6-0.068l0.235,21.057L124.813,78.606z"/>
<path fill="#AAAAAA" d="M128.749,644h-6v-21h6V644z M128.749,615h-6v-21h6V615z M128.749,585h-6v-21h6V585z M324.749,575h-6v-21h6
	V575z M128.749,556h-6v-21h6V556z M324.749,546h-6v-21h6V546z M128.749,527h-6v-21h6V527z M324.749,517h-6v-21h6V517z M128.749,497
	h-6v-21h6V497z M324.749,487h-6v-21h6V487z M128.749,468h-6v-21h6V468z M324.749,458h-6v-21h6V458z M128.749,439h-6v-21h6V439z
	 M324.749,429h-6v-12.871c0-2.759-0.118-5.544-0.349-8.277l5.979-0.508c0.246,2.902,0.371,5.858,0.371,8.785L324.749,429
	L324.749,429z M128.979,409.412L122.993,409c0.494-7.197,1.748-14.339,3.727-21.227l5.767,1.656
	C130.624,395.913,129.444,402.635,128.979,409.412z M317.374,399.788c-1.138-6.683-2.991-13.25-5.505-19.521l5.568-2.233
	c2.673,6.665,4.642,13.645,5.852,20.746L317.374,399.788z M135.06,381.725l-5.604-2.143c2.566-6.717,5.862-13.18,9.796-19.208
	l5.024,3.278C140.575,369.325,137.474,375.405,135.06,381.725z M308.527,372.865c-3.042-6.039-6.742-11.771-10.996-17.038
	l4.667-3.771c4.521,5.596,8.454,11.689,11.688,18.108L308.527,372.865z M149.003,357.042l-4.728-3.694
	c4.432-5.671,9.479-10.88,15.003-15.48l3.84,4.61C157.922,346.805,153.173,351.706,149.003,357.042z M292.16,349.73
	c-4.691-4.891-9.913-9.283-15.519-13.057l3.352-4.978c5.96,4.012,11.51,8.683,16.498,13.881L292.16,349.73z M169.578,337.549
	l-3.432-4.922c5.909-4.121,12.269-7.607,18.903-10.362l2.301,5.541C181.113,330.396,175.134,333.674,169.578,337.549z
	 M269.712,332.428c-5.919-3.284-12.207-5.932-18.686-7.869l1.719-5.749c6.893,2.061,13.581,4.877,19.878,8.372L269.712,332.428z
	 M194.978,325.02l-1.813-5.72c6.839-2.168,13.949-3.605,21.133-4.27l0.553,5.975C208.093,321.63,201.408,322.981,194.978,325.02z
	 M243.152,322.571c-6.334-1.312-12.862-1.977-19.403-1.977l-0.784,0.003l-0.044-6l0.823-0.003c6.954,0,13.892,0.707,20.625,2.102
	L243.152,322.571z"/>
<g>
	<path fill="#333333" d="M223.242,518.857c-0.535,0.018-1.076-0.005-1.614-0.013l0.261-17.231c0.45,0.007,0.95,0.013,1.353,0.01
		c3.549,0,7.123-0.214,10.624-0.637l2.064,17.109C231.746,518.601,227.478,518.857,223.242,518.857z M210.635,518.109
		c-4.741-0.567-9.48-1.467-14.085-2.673l4.366-16.671c3.846,1.008,7.805,1.759,11.767,2.232L210.635,518.109z M246.796,516.2
		l-3.852-16.798c3.88-0.89,7.735-2.058,11.458-3.472l6.119,16.112C256.062,513.736,251.444,515.135,246.796,516.2z M186.034,512.079
		c-4.458-1.689-8.844-3.705-13.036-5.992l8.252-15.129c3.503,1.911,7.166,3.594,10.887,5.002L186.034,512.079z M270.615,507.585
		l-7.784-15.375c3.547-1.796,7.01-3.858,10.289-6.126l9.805,14.173C279.003,502.97,274.862,505.437,270.615,507.585z
		 M163.606,500.304c-3.919-2.707-7.692-5.71-11.211-8.926l11.625-12.722c2.943,2.69,6.101,5.203,9.379,7.468L163.606,500.304z
		 M291.653,493.519l-11.232-13.07c3.025-2.6,5.898-5.43,8.542-8.412l12.896,11.432C298.701,487.03,295.267,490.413,291.653,493.519z
		 M144.656,483.527c-3.165-3.564-6.112-7.377-8.762-11.333l14.32-9.59c2.216,3.31,4.682,6.5,7.329,9.481L144.656,483.527z
		 M308.732,474.845l-14.021-10.021c2.322-3.248,4.438-6.682,6.291-10.204l15.253,8.021
		C314.04,466.854,311.508,470.962,308.732,474.845z M130.248,462.722c-2.226-4.223-4.177-8.637-5.8-13.115l16.203-5.871
		c1.354,3.739,2.984,7.425,4.842,10.951L130.248,462.722z M320.871,452.614l-16.015-6.369c1.472-3.702,2.7-7.541,3.65-11.411
		l16.736,4.109C324.105,443.58,322.634,448.178,320.871,452.614z M121.243,439.047c-1.139-4.622-1.972-9.373-2.471-14.121
		l17.139-1.804c0.417,3.967,1.111,7.938,2.064,11.798L121.243,439.047z M327.544,428.106l-16.838-2.324
		c0.534-3.938,1.043-7.962,1.043-11.964V414h17v-0.246C328.749,418.596,328.185,423.403,327.544,428.106z M116.749,413.916v-0.098
		c0-4.741,1.041-9.512,1.672-14.184l17.439,2.309c-0.529,3.906-1.336,7.902-1.336,11.875L116.749,413.916z M310.54,404.425
		c-0.421-3.97-1.12-7.938-2.075-11.796l16.729-4.145c1.145,4.619,1.979,9.369,2.484,14.119L310.54,404.425z M137.933,392.891
		l-16.741-4.095c1.133-4.634,2.601-9.233,4.359-13.673l16.021,6.35C140.103,385.178,138.879,389.02,137.933,392.891z
		 M305.78,383.816c-1.36-3.739-2.993-7.422-4.854-10.947l15.238-8.049c2.229,4.219,4.185,8.63,5.813,13.108L305.78,383.816z
		 M145.417,373.098l-15.262-8.006c2.211-4.218,4.738-8.326,7.51-12.212l14.032,10.007
		C149.378,366.136,147.266,369.571,145.417,373.098z M296.197,364.958c-2.22-3.308-4.689-6.496-7.339-9.476l12.876-11.455
		c3.167,3.56,6.117,7.37,8.771,11.324L296.197,364.958z M157.439,355.669l-12.908-11.418c3.157-3.569,6.587-6.954,10.198-10.063
		l11.244,13.062C162.952,349.85,160.081,352.684,157.439,355.669z M282.374,348.918c-2.946-2.687-6.104-5.195-9.385-7.458
		l9.777-14.191c3.924,2.704,7.699,5.704,11.221,8.916L282.374,348.918z M173.267,341.604l-9.819-14.163
		c3.917-2.715,8.057-5.187,12.302-7.341l7.801,15.367C180.003,337.268,176.542,339.333,173.267,341.604z M265.13,336.634
		c-3.501-1.906-7.165-3.585-10.89-4.991l6.086-16.124c4.462,1.685,8.851,3.696,13.043,5.978L265.13,336.634z M191.976,331.736
		l-6.137-16.104c4.456-1.698,9.072-3.102,13.721-4.173l3.871,16.793C199.547,329.146,195.694,330.319,191.976,331.736z
		 M245.458,328.848c-3.847-1.003-7.806-1.75-11.769-2.219l2.03-17.114c4.742,0.562,9.481,1.457,14.089,2.657L245.458,328.848z
		 M212.507,326.661l-2.082-17.107c4.712-0.574,9.544-0.83,14.3-0.764l-0.243,17.232C220.486,325.963,216.45,326.181,212.507,326.661
		z"/>
	<path fill="#333333" d="M223.982,323.547c-50.668,0-91.746,41.075-91.746,91.745c0,50.668,41.078,91.743,91.746,91.743
		c50.667,0,91.743-41.075,91.743-91.743C315.726,364.622,274.651,323.547,223.982,323.547z M223.982,479.221
		c-35.306,0-63.929-28.625-63.929-63.929c0-35.306,28.623-63.929,63.929-63.929c35.305,0,63.927,28.624,63.927,63.929
		C287.909,450.597,259.287,479.221,223.982,479.221z"/>
	<path fill="#333333" d="M223.981,360.341c-30.257,0-54.787,24.53-54.787,54.788c0,30.257,24.53,54.789,54.787,54.789
		c30.257,0,54.786-24.532,54.786-54.789C278.769,384.872,254.239,360.341,223.981,360.341z M223.981,438.026
		c-12.647,0-22.894-10.251-22.894-22.897s10.247-22.898,22.894-22.898c12.646,0,22.896,10.254,22.896,22.898
		C246.877,427.775,236.628,438.026,223.981,438.026z"/>
</g>
<g>
	<path fill="#333333" d="M408.749,434h-0.046c-6.902,0-13.637-1.383-20.02-3.881l5.318-13.669c4.673,1.829,9.616,2.723,14.692,2.723
		l0.454-0.01l-0.399,2.843V434L408.749,434z M416.925,433.155l-2.17-14.47c4.993-0.75,9.743-2.416,14.117-4.949l7.338,12.656
		C430.236,429.854,423.748,432.129,416.925,433.155z M381.279,426.441c-5.961-3.44-11.168-7.914-15.478-13.293l11.392-9.157
		c3.171,3.96,7.002,7.251,11.385,9.78L381.279,426.441z M442.98,421.765l-9.134-11.43c3.964-3.167,7.259-6.996,9.792-11.376
		l12.649,7.342C452.842,412.258,448.365,417.461,442.98,421.765z M361.168,406.383c-3.467-5.971-5.749-12.458-6.78-19.279
		l14.436-2.196c0.755,4.993,2.425,9.741,4.963,14.11L361.168,406.383z M459.911,398.898l-13.263-5.361
		c1.838-4.684,3.101-9.639,3.101-14.729v0.201l14-0.01v-0.168C463.749,385.752,462.421,392.504,459.911,398.898z M353.749,378.915
		v-0.083c0-6.884,1.27-13.604,3.755-19.971l13.6,5.289c-1.819,4.664-2.752,9.596-2.752,14.658L353.749,378.915z M448.554,372.635
		c-0.764-4.99-2.442-9.734-4.989-14.102l12.623-7.342c3.479,5.965,5.771,12.448,6.815,19.266L448.554,372.635z M373.713,358.725
		l-12.645-7.272c3.435-5.965,7.901-11.176,13.278-15.49l9.138,11.368C379.526,350.505,376.239,354.339,373.713,358.725z
		 M440.15,353.568c-3.18-3.955-7.017-7.238-11.403-9.759l7.292-12.638c5.967,3.428,11.183,7.891,15.502,13.264L440.15,353.568z
		 M388.452,343.918l-7.345-12.597c5.967-3.473,12.451-5.76,19.272-6.798l2.179,14.419
		C397.567,339.702,392.821,341.376,388.452,343.918z M423.317,340.97c-4.651-1.812-9.571-2.97-14.623-2.97h0.055v-14.104v10.605
		l-0.054-10.605c6.961,0,13.622,1.139,19.974,3.612L423.317,340.97z"/>
	<path fill="#333333" d="M408.703,334.501c-24.482,0-44.33,19.849-44.33,44.331s19.848,44.331,44.33,44.331
		s44.331-19.849,44.331-44.331S433.188,334.501,408.703,334.501z M439.475,356.292c3.374,4.599,5.703,9.985,6.735,15.578
		l-4.847,0.896c-0.897-4.865-2.926-9.554-5.862-13.559L439.475,356.292z M420.365,342.503c5.406,1.736,10.454,4.73,14.593,8.661
		l-3.394,3.574c-3.605-3.423-8-6.031-12.705-7.542L420.365,342.503z M434.105,378.832c0,14.027-11.373,25.402-25.402,25.402
		c-14.028,0-25.402-11.375-25.402-25.402c0-14.028,11.374-25.403,25.402-25.403C422.732,353.429,434.105,364.803,434.105,378.832z
		 M413.694,341.01l-0.641,4.887c-4.923-0.646-10.014-0.179-14.716,1.363l-1.536-4.683
		C402.204,340.807,408.042,340.269,413.694,341.01z M390.526,345.286l2.352,4.331c-4.353,2.362-8.192,5.736-11.104,9.757
		l-3.991-2.892C381.124,351.869,385.531,347.997,390.526,345.286z M374.285,362.355l4.443,2.131
		c-2.154,4.494-3.247,9.32-3.247,14.345l-3.842,0.058l-1.087-0.013C370.552,373.063,371.808,367.521,374.285,362.355z
		 M377.874,401.307c-3.365-4.607-5.682-9.998-6.702-15.593l4.848-0.884c0.889,4.867,2.905,9.559,5.834,13.568L377.874,401.307z
		 M396.955,415.135c-5.404-1.748-10.443-4.753-14.574-8.691l3.4-3.566c3.599,3.432,7.986,6.048,12.689,7.569L396.955,415.135z
		 M408.698,416.977c-1.696,0-3.403-0.112-5.075-0.334l0.648-4.886c4.925,0.655,10.017,0.198,14.719-1.334l1.525,4.687
		C416.713,416.348,412.736,416.977,408.698,416.977z M426.8,412.416l-2.342-4.337c4.356-2.353,8.204-5.72,11.123-9.733l3.986,2.899
		C436.216,405.852,431.802,409.714,426.8,412.416z M446.745,379c-0.023,5.734-1.24,11.245-3.716,16.378l-4.498-2.14
		c2.175-4.512,3.218-9.358,3.218-14.407V379H446.745c0-0.057,0.004-0.111,0.004-0.168V379H446.745z"/>
</g>
<g>
	<path fill="#333333" d="M69.243,332.239l-0.784-16.267c1.965-0.094,3.945-0.309,5.883-0.641l2.743,16.054
		C74.501,331.827,71.862,332.114,69.243,332.239z M60.228,332.042c-2.619-0.241-5.247-0.645-7.812-1.203l3.458-15.912
		c1.914,0.417,3.875,0.718,5.83,0.898L60.228,332.042z M85.84,329.257l-4.925-15.523c1.875-0.596,3.73-1.314,5.513-2.132
		l6.775,14.808C90.819,327.503,88.343,328.46,85.84,329.257z M43.746,328.304c-2.462-0.911-4.895-1.986-7.228-3.194l7.498-14.455
		c1.743,0.901,3.557,1.704,5.395,2.384L43.746,328.304z M101.129,322.08l-8.781-13.71c1.648-1.057,3.249-2.228,4.755-3.479
		l10.41,12.52C105.49,319.091,103.342,320.662,101.129,322.08z M28.818,320.424c0,0-4.218-3.183-6.141-4.928l10.931-12.071
		c1.444,1.31,2.989,2.55,4.593,3.688l0.27,0.195l-3.972,5.1L28.818,320.424z M114.037,311.168l-12.061-10.939
		c1.318-1.451,2.567-3.006,3.712-4.621l0.095-0.135l13.288,9.414l-0.098,0.139C117.454,307.167,115.794,309.234,114.037,311.168z
		 M16.43,308.976c-1.682-2.023-3.256-4.17-4.676-6.382l13.707-8.788c1.057,1.646,2.228,3.244,3.48,4.75L16.43,308.976z
		 M123.748,297.164l-14.473-7.46c0.898-1.746,1.695-3.563,2.372-5.401l15.279,5.626C126.019,292.393,124.95,294.827,123.748,297.164
		z M7.421,294.675c-1.094-2.381-2.053-4.856-2.852-7.358l15.517-4.944c0.6,1.878,1.318,3.733,2.137,5.515L7.421,294.675z
		 M129.439,281.253l-15.92-3.417c0.412-1.914,0.71-3.878,0.886-5.836l16.219,1.442C130.39,276.061,129.992,278.688,129.439,281.253z
		 M2.431,278.558c-0.442-2.584-0.732-5.221-0.86-7.838l16.267-0.802c0.095,1.964,0.313,3.945,0.646,5.887L2.431,278.558z
		 M114.539,265.245c-0.098-1.962-0.319-3.941-0.654-5.882l16.047-2.776c0.448,2.586,0.74,5.223,0.872,7.84L114.539,265.245z
		 M17.98,263.165l-16.219-1.461c0.239-2.62,0.642-5.248,1.198-7.813l15.914,3.446C18.458,259.249,18.158,261.209,17.98,263.165z
		 M112.271,252.796c-0.601-1.875-1.322-3.728-2.144-5.511l14.792-6.807c1.098,2.38,2.061,4.855,2.862,7.355L112.271,252.796z
		 M20.757,250.868l-15.27-5.648c0.909-2.461,1.981-4.894,3.188-7.23l14.461,7.483C22.235,247.218,21.436,249.034,20.757,250.868z
		 M106.882,241.374c-1.06-1.646-2.234-3.244-3.49-4.749l12.498-10.435c1.684,2.02,3.26,4.163,4.683,6.371L106.882,241.374z
		 M26.695,239.628l-13.333-9.35l0.045-0.064c1.502-2.12,3.141-4.162,4.872-6.072l12.08,10.919
		C29.058,236.496,27.826,238.033,26.695,239.628z M98.719,231.764c-1.428-1.292-2.957-2.517-4.544-3.641l9.273-13.387l0.197,0.139
		c2.05,1.452,4.083,3.082,5.985,4.802L98.719,231.764z M35.225,230.391l-10.429-12.503c2.021-1.684,4.166-3.259,6.377-4.68
		l8.8,13.698C38.328,227.965,36.73,229.137,35.225,230.391z M88.304,224.55c-1.747-0.9-3.563-1.7-5.398-2.377l5.638-15.274
		c2.46,0.907,4.895,1.979,7.232,3.184L88.304,224.55z M45.887,223.665l-6.796-14.797c2.382-1.096,4.858-2.057,7.357-2.856
		l4.949,15.515C49.524,222.124,47.671,222.843,45.887,223.665z M76.438,220.293c-1.914-0.413-3.876-0.712-5.832-0.889l1.451-16.218
		c2.619,0.236,5.249,0.637,7.813,1.192L76.438,220.293z M57.97,219.917l-2.769-16.048c2.583-0.445,5.221-0.737,7.841-0.866
		l0.811,16.265C61.887,219.364,59.908,219.583,57.97,219.917z"/>
	<path fill="#333333" d="M67.816,333.809l-0.928-19.264l1.499-0.072c1.908-0.091,3.826-0.3,5.701-0.621l1.479-0.253l3.249,19.012
		l-1.479,0.252c-2.642,0.451-5.341,0.745-8.023,0.874L67.816,333.809z M70.028,317.376l0.64,13.275
		c1.565-0.112,3.131-0.283,4.683-0.51l-2.238-13.101C72.09,317.184,71.059,317.296,70.028,317.376z M61.585,333.673l-1.495-0.138
		c-2.687-0.248-5.375-0.662-7.993-1.231l-1.465-0.319l4.095-18.843l1.466,0.319c1.852,0.403,3.752,0.696,5.648,0.87l1.493,0.137
		L61.585,333.673z M54.204,329.674c1.541,0.296,3.102,0.537,4.667,0.718l1.205-13.233c-1.022-0.125-2.041-0.282-3.051-0.47
		L54.204,329.674z M84.864,331.142l-5.833-18.383l1.429-0.455c1.813-0.576,3.61-1.271,5.342-2.065l1.365-0.626l8.024,17.536
		l-1.363,0.625c-2.435,1.117-4.97,2.097-7.534,2.913L84.864,331.142z M82.791,314.688l4.019,12.667
		c1.486-0.512,2.958-1.081,4.398-1.701l-5.529-12.083C84.729,313.973,83.764,314.346,82.791,314.688z M44.631,330.231l-1.405-0.52
		c-2.518-0.932-5.006-2.031-7.397-3.269l-1.333-0.69l8.879-17.117l1.331,0.688c1.691,0.875,3.45,1.652,5.226,2.31l1.408,0.521
		L44.631,330.231z M38.549,324.452c1.414,0.69,2.859,1.328,4.318,1.909l4.623-12.458c-0.951-0.385-1.894-0.802-2.822-1.247
		L38.549,324.452z M100.675,324.152l-10.399-16.236l1.262-0.809c1.596-1.023,3.146-2.158,4.606-3.37l1.153-0.958l12.328,14.827
		l-1.154,0.959c-2.067,1.718-4.265,3.325-6.532,4.778L100.675,324.152z M94.407,308.804l7.167,11.188
		c1.305-0.881,2.581-1.814,3.814-2.791l-8.495-10.217C96.084,307.616,95.253,308.224,94.407,308.804z M29.148,322.553l-1.233-0.931
		c-0.175-0.131-4.294-3.244-6.246-5.014l-1.109-1.007l12.944-14.294l1.112,1.009c1.397,1.268,2.896,2.47,4.453,3.575l1.542,1.112
		l-4.928,6.328L29.148,322.553z M24.82,315.365c1.188,0.991,2.656,2.138,3.673,2.923l4.783-6.748l3.059-3.93
		c-0.891-0.665-1.764-1.361-2.607-2.082L24.82,315.365z M114.14,313.286l-14.283-12.954l1.009-1.111
		c1.277-1.406,2.488-2.914,3.599-4.48l0.955-1.363l15.737,11.148l-0.955,1.362c-1.564,2.205-3.263,4.318-5.053,6.29L114.14,313.286z
		 M104.079,300.111l9.843,8.927c1.058-1.222,2.077-2.494,3.046-3.803l-10.842-7.682C105.469,298.43,104.785,299.285,104.079,300.111
		z M16.236,311.089l-0.959-1.154c-1.726-2.077-3.336-4.274-4.785-6.531l-0.811-1.263l16.232-10.407l0.81,1.261
		c1.027,1.599,2.162,3.147,3.371,4.601l0.959,1.153L16.236,311.089z M13.842,303.037c0.88,1.301,1.815,2.578,2.795,3.814
		l10.21-8.503c-0.63-0.807-1.238-1.636-1.819-2.483L13.842,303.037z M124.395,299.185l-17.14-8.834l0.686-1.333
		c0.868-1.686,1.641-3.447,2.298-5.233l0.518-1.408l18.094,6.663l-0.518,1.408c-0.929,2.524-2.022,5.015-3.251,7.403
		L124.395,299.185z M111.273,289.047l11.811,6.088c0.685-1.414,1.32-2.86,1.898-4.322l-12.468-4.591
		C112.13,287.175,111.715,288.12,111.273,289.047z M6.684,296.663l-0.625-1.362c-1.117-2.431-2.099-4.963-2.917-7.528l-0.457-1.43
		l18.375-5.854l0.456,1.428c0.581,1.819,1.278,3.618,2.071,5.345l0.626,1.364L6.684,296.663z M6.472,288.285
		c0.514,1.486,1.083,2.956,1.703,4.394l12.08-5.539c-0.402-0.95-0.776-1.915-1.12-2.89L6.472,288.285z M130.59,283.034
		l-18.853-4.046l0.316-1.468c0.398-1.852,0.688-3.754,0.858-5.654l0.135-1.493l19.206,1.708l-0.134,1.495
		c-0.24,2.682-0.648,5.371-1.213,7.993L130.59,283.034z M115.279,276.68l12.992,2.788c0.293-1.542,0.53-3.103,0.708-4.667
		l-13.235-1.176C115.62,274.648,115.465,275.669,115.279,276.68z M1.206,280.29l-0.253-1.479c-0.453-2.646-0.749-5.343-0.879-8.018
		L0,269.296l19.264-0.95l0.072,1.5c0.092,1.901,0.303,3.821,0.627,5.705l0.254,1.479L1.206,280.29z M3.161,272.144
		c0.113,1.562,0.285,3.128,0.513,4.68l13.1-2.247c-0.145-1.025-0.258-2.057-0.339-3.087L3.161,272.144z M113.115,266.819
		l-0.075-1.499c-0.095-1.896-0.309-3.815-0.634-5.702l-0.255-1.478l19.002-3.288l0.256,1.478c0.457,2.64,0.757,5.338,0.892,8.021
		l0.075,1.498L113.115,266.819z M115.596,260.589c0.146,1.025,0.261,2.056,0.343,3.084l13.272-0.668
		c-0.116-1.565-0.29-3.131-0.52-4.681L115.596,260.589z M19.339,264.793l-19.207-1.73l0.136-1.496
		c0.244-2.681,0.657-5.371,1.226-7.995l0.317-1.465l18.846,4.081l-0.318,1.466c-0.401,1.852-0.692,3.752-0.865,5.646L19.339,264.793
		z M3.41,260.347l13.235,1.192c0.124-1.021,0.28-2.04,0.467-3.049l-12.986-2.813C3.83,257.221,3.59,258.783,3.41,260.347z
		 M111.3,254.682l-0.458-1.428c-0.582-1.816-1.281-3.612-2.078-5.34l-0.628-1.363l17.517-8.061l0.628,1.361
		c1.124,2.437,2.109,4.969,2.928,7.525l0.458,1.429L111.3,254.682z M112.097,248.03c0.403,0.949,0.779,1.914,1.123,2.888
		l12.657-4.049c-0.515-1.483-1.086-2.953-1.709-4.393L112.097,248.03z M21.643,252.795L3.56,246.107l0.519-1.406
		c0.93-2.518,2.027-5.007,3.263-7.4l0.689-1.333l17.126,8.862l-0.688,1.332c-0.87,1.685-1.646,3.443-2.306,5.229L21.643,252.795z
		 M7.43,244.34l12.461,4.609c0.386-0.954,0.802-1.896,1.245-2.823l-11.801-6.107C8.647,241.435,8.01,242.88,7.43,244.34z
		 M106.433,243.447l-0.812-1.261c-1.027-1.595-2.164-3.143-3.38-4.6l-0.96-1.151l14.801-12.358l0.961,1.153
		c1.726,2.069,3.338,4.263,4.792,6.519l0.813,1.262L106.433,243.447z M105.487,236.831c0.633,0.808,1.243,1.637,1.825,2.483
		l11.172-7.191c-0.883-1.3-1.819-2.573-2.798-3.807L105.487,236.831z M27.056,241.713L11.265,230.64l0.874-1.23
		c1.582-2.232,3.259-4.322,5.029-6.275l1.006-1.11l14.306,12.931l-1.009,1.113c-1.256,1.385-2.451,2.875-3.552,4.427L27.056,241.713
		z M15.47,229.925l10.882,7.631c0.613-0.813,1.249-1.606,1.903-2.375l-9.858-8.91C17.382,227.448,16.403,228.67,15.47,229.925z
		 M98.827,233.884l-1.114-1.007c-1.385-1.252-2.867-2.44-4.405-3.529l-1.211-0.858l10.98-15.851l1.434,1.011
		c2.116,1.499,4.177,3.152,6.126,4.916l1.111,1.005L98.827,233.884z M96.241,227.775c0.805,0.606,1.592,1.236,2.355,1.887
		l8.905-9.864c-1.197-1.032-2.432-2.02-3.69-2.951L96.241,227.775z M35.033,232.503l-12.35-14.806l1.153-0.961
		c2.071-1.726,4.267-3.337,6.527-4.79l1.262-0.813l10.421,16.221l-1.261,0.811c-1.596,1.027-3.144,2.163-4.601,3.376L35.033,232.503
		z M26.92,218.094l8.511,10.203c0.808-0.632,1.637-1.241,2.482-1.822l-7.182-11.178C29.43,216.179,28.155,217.114,26.92,218.094z
		 M88.949,226.57l-1.333-0.687c-1.688-0.87-3.447-1.645-5.23-2.303l-1.407-0.52l6.676-18.088l1.407,0.519
		c2.516,0.927,5.005,2.023,7.4,3.257l1.335,0.688L88.949,226.57z M84.825,221.307c0.953,0.385,1.897,0.8,2.824,1.243l6.098-11.806
		c-1.417-0.688-2.862-1.324-4.321-1.902L84.825,221.307z M45.15,225.655l-8.048-17.524l1.362-0.626
		c2.44-1.122,4.973-2.105,7.527-2.922l1.43-0.457l5.861,18.373l-1.428,0.456c-1.813,0.579-3.61,1.277-5.34,2.073L45.15,225.655z
		 M41.087,209.62l5.546,12.075c0.95-0.403,1.914-0.777,2.887-1.121l-4.039-12.661C43.999,208.427,42.529,208.998,41.087,209.62z
		 M77.588,222.076l-1.466-0.316c-1.861-0.401-3.762-0.691-5.651-0.861l-1.493-0.135l1.718-19.206l1.495,0.135
		c2.682,0.242,5.373,0.653,7.996,1.22l1.465,0.317L77.588,222.076z M72.232,218.068c1.02,0.123,2.04,0.278,3.052,0.465l2.801-12.987
		c-1.543-0.295-3.104-0.533-4.668-0.712L72.232,218.068z M56.747,221.649l-3.279-19.005l1.479-0.254
		c2.649-0.457,5.348-0.754,8.021-0.886l1.497-0.074l0.96,19.261l-1.499,0.074c-1.902,0.094-3.821,0.306-5.702,0.629L56.747,221.649z
		 M56.938,205.109l2.259,13.097c1.024-0.145,2.054-0.259,3.084-0.341l-0.662-13.273C60.057,204.707,58.491,204.879,56.938,205.109z"
		/>
	<path fill="#333333" d="M99.67,220.367c-26.09-18.488-62.235-12.326-80.729,13.764C0.449,260.23,6.616,296.376,32.706,314.869
		c26.099,18.492,62.245,12.325,80.737-13.764C131.927,275.006,125.768,238.86,99.67,220.367z M48.645,255.187
		c6.868-9.69,20.296-11.977,29.979-5.111c9.691,6.865,11.98,20.287,5.112,29.977c-6.863,9.688-20.284,11.977-29.974,5.109
		C44.072,278.298,41.789,264.874,48.645,255.187z"/>
</g>
<g>
	<path fill="#333333" d="M385.295,664.766c-6.532-0.6-12.966-2.03-19.123-4.253l8.416-23.306c4.171,1.505,8.534,2.475,12.966,2.882
		L385.295,664.766z M406.129,663.867l-4.379-24.394c4.396-0.789,8.675-2.129,12.719-3.982l10.319,22.53
		C418.85,660.744,412.572,662.71,406.129,663.867z M347.646,650.823c-0.006-0.003-0.011-0.007-0.016-0.01l0,0l-0.018-0.014
		c-5.33-3.782-10.157-8.21-14.347-13.163l18.914-16.009c2.854,3.371,6.149,6.393,9.797,8.979l0.396,0.287l-4.588,5.704
		L347.646,650.823z M442.427,646.825l-16.001-18.922c3.382-2.858,6.412-6.162,9.005-9.82l0.113-0.159l20.224,14.323l-0.118,0.167
		C451.854,637.771,447.403,642.619,442.427,646.825z M322.063,620.009c-2.728-5.937-4.698-12.214-5.859-18.657l24.391-4.393
		c0.791,4.394,2.135,8.672,3.991,12.714L322.063,620.009z M465.383,613.754l-23.324-8.371c1.497-4.173,2.458-8.537,2.857-12.971
		l24.683,2.211C469.012,601.157,467.593,607.593,465.383,613.754z M339.969,582.763l-24.679-2.24
		c0.595-6.53,2.021-12.966,4.238-19.125l23.313,8.396C341.341,573.968,340.374,578.332,339.969,582.763z M444.276,578.215
		c-0.796-4.392-2.145-8.668-4.005-12.709l22.513-10.362c2.732,5.936,4.712,12.209,5.88,18.651L444.276,578.215z M349.365,557.282
		l-20.141-14.442l12.692,9.066l-12.937-8.71l0.256-0.373c3.776-5.329,8.2-10.156,13.147-14.348l16.021,18.904
		c-3.302,2.796-6.266,6.02-8.813,9.58L349.365,557.282z M432.66,553.563c-2.845-3.354-6.129-6.358-9.761-8.933l14.226-20.294
		l0.132,0.093c5.29,3.749,10.109,8.162,14.295,13.096L432.66,553.563z M370.355,539.775l-10.348-22.519
		c5.938-2.73,12.213-4.706,18.654-5.869l4.405,24.39C378.675,536.57,374.398,537.916,370.355,539.775z M410.23,538.01
		c-4.171-1.5-8.533-2.464-12.967-2.864l2.228-24.683c6.535,0.592,12.972,2.017,19.131,4.23L410.23,538.01z"/>
	<path fill="#333333" d="M428.082,537.319c-27.773-19.682-66.25-13.122-85.938,14.651c-19.685,27.781-13.119,66.258,14.652,85.945
		c27.782,19.686,66.26,13.121,85.945-14.651C462.418,595.483,455.863,557.005,428.082,537.319z M433.253,616.542
		c-15.972,22.533-47.19,27.859-69.733,11.887c-22.532-15.972-27.859-47.191-11.888-69.732
		c15.974-22.535,47.192-27.856,69.728-11.889C443.899,562.78,449.219,593.999,433.253,616.542z"/>
	<path fill="#333333" d="M413.964,557.243c-16.771-11.887-40.008-7.924-51.897,8.848c-11.888,16.777-7.924,40.016,8.849,51.904
		c16.777,11.889,40.014,7.924,51.903-8.85C434.701,592.368,430.741,569.132,413.964,557.243z M416.464,604.646
		c-9.396,13.264-27.772,16.397-41.042,6.993c-13.269-9.396-16.395-27.778-7.007-41.042c9.404-13.268,27.792-16.397,41.05-6.998
		C422.733,572.998,425.868,591.375,416.464,604.646z"/>
</g>
<path fill="#47B90C" d="M33.749,652v51h187v-51H33.749z"/>
<g>
	<path fill="#FFFFFF" d="M74.053,683.01V671.65h7.632v1.936h-5.424v2.928h4.512v1.792h-4.512v4.704H74.053L74.053,683.01z"/>
	<path fill="#FFFFFF" d="M83.032,683.01V671.65h5.024c0.522,0,1.005,0.108,1.448,0.327c0.443,0.22,0.824,0.508,1.144,0.864
		c0.32,0.357,0.571,0.764,0.752,1.216c0.182,0.454,0.272,0.91,0.272,1.368c0,0.736-0.184,1.405-0.552,2.008
		c-0.368,0.604-0.867,1.038-1.496,1.305l2.672,4.271H89.8l-2.384-3.808H85.24v3.808H83.032z M85.24,677.266h2.768
		c0.202,0,0.392-0.048,0.568-0.144c0.176-0.096,0.328-0.227,0.456-0.393c0.128-0.166,0.229-0.359,0.304-0.584
		c0.075-0.224,0.112-0.464,0.112-0.72c0-0.267-0.043-0.512-0.128-0.735c-0.085-0.225-0.2-0.418-0.344-0.584s-0.31-0.293-0.496-0.385
		c-0.187-0.09-0.376-0.136-0.568-0.136H85.24V677.266z"/>
	<path fill="#FFFFFF" d="M101.59,681.074v1.936h-7.888V671.65h7.744v1.936H95.91v2.736h4.784v1.792H95.91v2.96H101.59z"/>
	<path fill="#FFFFFF" d="M111.325,681.074v1.936h-7.888V671.65h7.744v1.936h-5.536v2.736h4.784v1.792h-4.784v2.96H111.325z"/>
	<path fill="#FFFFFF" d="M116.925,683.01v-11.344h2.208v11.344H116.925z"/>
	<path fill="#FFFFFF" d="M123.709,675.729v7.28h-2.208V671.65h1.712l5.92,7.456v-7.44h2.208v11.344h-1.792L123.709,675.729z"/>
	<path fill="#FFFFFF" d="M141.277,682.242c-0.405,0.267-0.845,0.475-1.32,0.624c-0.475,0.148-0.984,0.224-1.528,0.224
		c-0.8,0-1.531-0.166-2.192-0.496c-0.662-0.331-1.229-0.763-1.704-1.296c-0.475-0.533-0.84-1.146-1.096-1.84
		c-0.256-0.693-0.384-1.403-0.384-2.128c0-0.757,0.136-1.482,0.408-2.176c0.272-0.694,0.65-1.308,1.136-1.841
		c0.485-0.533,1.059-0.957,1.72-1.271c0.661-0.315,1.381-0.472,2.16-0.472c0.8,0,1.53,0.168,2.192,0.504
		c0.661,0.336,1.227,0.775,1.696,1.319c0.469,0.545,0.832,1.163,1.088,1.856s0.384,1.397,0.384,2.112c0,0.726-0.12,1.416-0.36,2.072
		c-0.24,0.655-0.584,1.245-1.032,1.768l1.616,1.808h-2.096L141.277,682.242z M138.461,681.138c0.544,0,1.035-0.133,1.472-0.399
		l-1.712-1.937h2.096l0.704,0.8c0.395-0.692,0.592-1.449,0.592-2.271c0-0.49-0.075-0.965-0.224-1.424
		c-0.149-0.458-0.36-0.864-0.632-1.216c-0.272-0.353-0.603-0.636-0.992-0.849c-0.39-0.213-0.83-0.319-1.32-0.319
		c-0.512,0-0.963,0.108-1.352,0.327c-0.389,0.22-0.72,0.511-0.992,0.872c-0.272,0.363-0.478,0.771-0.616,1.225
		c-0.139,0.454-0.208,0.915-0.208,1.384c0,0.491,0.072,0.966,0.216,1.424c0.144,0.458,0.352,0.864,0.624,1.216
		c0.272,0.353,0.605,0.635,1,0.849C137.512,681.031,137.96,681.138,138.461,681.138z"/>
	<path fill="#FFFFFF" d="M150.333,681.138c0.523,0,0.963-0.105,1.32-0.319s0.645-0.491,0.864-0.832
		c0.219-0.341,0.374-0.733,0.464-1.177c0.09-0.441,0.136-0.897,0.136-1.367v-5.792h2.192v5.792c0,0.778-0.093,1.509-0.28,2.191
		c-0.187,0.684-0.48,1.28-0.88,1.792c-0.4,0.513-0.915,0.917-1.544,1.216c-0.63,0.3-1.382,0.448-2.256,0.448
		c-0.907,0-1.677-0.157-2.312-0.472c-0.635-0.314-1.149-0.73-1.544-1.248s-0.68-1.117-0.856-1.8
		c-0.176-0.684-0.264-1.393-0.264-2.128v-5.792h2.208v5.792c0,0.479,0.045,0.94,0.136,1.384c0.09,0.442,0.245,0.835,0.464,1.176
		c0.219,0.341,0.504,0.616,0.856,0.824S149.822,681.138,150.333,681.138z"/>
	<path fill="#FFFFFF" d="M157.548,683.01v-11.344h2.208v11.344H157.548z"/>
	<path fill="#FFFFFF" d="M162.124,683.01V671.65h5.024c0.522,0,1.005,0.108,1.448,0.327c0.443,0.22,0.824,0.508,1.144,0.864
		c0.32,0.357,0.571,0.764,0.752,1.216c0.182,0.454,0.272,0.91,0.272,1.368c0,0.736-0.184,1.405-0.552,2.008
		c-0.368,0.604-0.867,1.038-1.496,1.305l2.672,4.271h-2.496l-2.384-3.808h-2.176v3.808H162.124z M164.332,677.266h2.768
		c0.202,0,0.392-0.048,0.568-0.144s0.328-0.227,0.456-0.393s0.229-0.359,0.304-0.584c0.075-0.224,0.112-0.464,0.112-0.72
		c0-0.267-0.043-0.512-0.128-0.735c-0.085-0.225-0.2-0.418-0.344-0.584s-0.31-0.293-0.496-0.385
		c-0.187-0.09-0.376-0.136-0.568-0.136h-2.672V677.266z"/>
	<path fill="#FFFFFF" d="M173.428,671.65l2.8,5.472l2.848-5.472h2.384l-4.128,7.392v3.968h-2.192v-4l-4.112-7.359H173.428
		L173.428,671.65z"/>
</g>
<path fill="#333333" d="M213.749,52h-173V0h173V52z M41.749,51h171V1h-171V51z"/>
<g>
	<polygon fill="#3AADD5" points="156.221,96.438 150.279,90.495 144.327,96.458 145.324,97.453 149.664,93.104 149.664,140.753 
		151.058,140.753 151.058,93.267 155.225,97.434 	"/>
	<path fill="#333333" d="M151.558,141.253h-2.394v-46.94l-3.84,3.847l-1.705-1.702l6.659-6.67l6.649,6.65l-1.703,1.703l-3.667-3.667
		L151.558,141.253L151.558,141.253z M150.164,140.253h0.394V92.06l4.667,4.667l0.289-0.289l-5.234-5.235l-5.246,5.254l0.29,0.289
		l4.841-4.851L150.164,140.253L150.164,140.253z"/>
</g>
<g>
	<polygon fill="#3AADD5" points="156.131,569.834 150.189,563.892 144.237,569.854 145.234,570.85 149.575,566.501 149.575,614.15 
		150.969,614.15 150.969,566.664 155.136,570.831 	"/>
	<path fill="#333333" d="M151.469,614.65h-2.394v-46.94l-3.84,3.847l-1.705-1.702l6.659-6.67l6.649,6.65l-1.703,1.703l-3.667-3.667
		L151.469,614.65L151.469,614.65z M150.075,613.65h0.394v-48.193l4.667,4.667l0.289-0.289l-5.234-5.235l-5.246,5.255l0.29,0.289
		l4.841-4.852L150.075,613.65L150.075,613.65z"/>
</g>
<g>
	<path d="M93.785,30.667v-9.94h3.612c0.812,0,1.523,0.131,2.135,0.392c0.611,0.261,1.122,0.616,1.533,1.064
		c0.411,0.448,0.719,0.973,0.924,1.575c0.205,0.602,0.308,1.244,0.308,1.925c0,0.756-0.114,1.44-0.343,2.051
		s-0.558,1.134-0.987,1.568c-0.429,0.434-0.945,0.771-1.547,1.008s-1.276,0.357-2.023,0.357H93.785z M100.351,25.683
		c0-0.476-0.065-0.915-0.196-1.316c-0.13-0.401-0.322-0.747-0.574-1.036s-0.563-0.513-0.931-0.672
		c-0.368-0.159-0.786-0.238-1.253-0.238h-1.68v6.552h1.68c0.476,0,0.898-0.084,1.267-0.252c0.369-0.168,0.677-0.399,0.924-0.693
		c0.248-0.294,0.437-0.642,0.567-1.043C100.286,26.584,100.351,26.15,100.351,25.683z"/>
	<path d="M107.078,30.807c-0.598,0-1.134-0.103-1.61-0.308c-0.476-0.205-0.88-0.483-1.211-0.833
		c-0.332-0.35-0.586-0.753-0.763-1.211c-0.178-0.457-0.266-0.938-0.266-1.442c0-0.513,0.088-0.999,0.266-1.456
		c0.177-0.458,0.431-0.861,0.763-1.211c0.331-0.35,0.735-0.628,1.211-0.833c0.476-0.206,1.013-0.308,1.61-0.308
		c0.597,0,1.131,0.103,1.603,0.308c0.471,0.205,0.873,0.483,1.204,0.833c0.332,0.35,0.586,0.753,0.763,1.211
		c0.177,0.457,0.266,0.943,0.266,1.456c0,0.504-0.089,0.985-0.266,1.442c-0.177,0.458-0.429,0.861-0.756,1.211
		c-0.327,0.35-0.728,0.628-1.204,0.833S107.675,30.807,107.078,30.807z M105.16,27.013c0,0.327,0.049,0.623,0.147,0.889
		c0.098,0.266,0.233,0.497,0.406,0.693c0.173,0.196,0.375,0.348,0.609,0.455c0.233,0.107,0.485,0.161,0.756,0.161
		s0.522-0.054,0.756-0.161c0.233-0.107,0.436-0.259,0.609-0.455c0.173-0.196,0.308-0.429,0.406-0.7
		c0.098-0.271,0.147-0.569,0.147-0.896c0-0.317-0.049-0.611-0.147-0.882c-0.098-0.271-0.233-0.504-0.406-0.7
		c-0.173-0.196-0.376-0.348-0.609-0.455s-0.485-0.161-0.756-0.161s-0.523,0.056-0.756,0.168c-0.233,0.112-0.436,0.266-0.609,0.462
		c-0.173,0.196-0.308,0.429-0.406,0.7C105.209,26.402,105.16,26.696,105.16,27.013z"/>
	<path d="M120.915,23.331h1.792l-3.066,7.336h-1.54l-1.26-3.22l-1.246,3.22h-1.54l-3.066-7.336h1.778l2.184,5.572l0.896-2.38
		l-1.288-3.178h1.512l0.77,2.254l0.784-2.254h1.512l-1.274,3.178l0.882,2.38L120.915,23.331z"/>
	<path d="M130.356,30.667h-1.876v-4.116c0-0.588-0.103-1.017-0.308-1.288c-0.206-0.271-0.49-0.406-0.854-0.406
		c-0.187,0-0.378,0.038-0.574,0.112c-0.196,0.075-0.38,0.18-0.553,0.315c-0.173,0.135-0.329,0.296-0.469,0.483
		c-0.14,0.187-0.243,0.392-0.308,0.616v4.284h-1.876v-7.336h1.694v1.358c0.271-0.467,0.663-0.831,1.176-1.092
		c0.513-0.261,1.092-0.392,1.736-0.392c0.458,0,0.831,0.084,1.12,0.252c0.289,0.168,0.513,0.387,0.672,0.658
		c0.159,0.271,0.269,0.579,0.329,0.924c0.06,0.345,0.091,0.695,0.091,1.05V30.667L130.356,30.667z"/>
	<path d="M131.924,20.447h1.876v7.784c0,0.569,0.256,0.854,0.77,0.854c0.103,0,0.221-0.019,0.357-0.056
		c0.135-0.037,0.264-0.079,0.385-0.126l0.252,1.498c-0.252,0.122-0.546,0.215-0.882,0.28s-0.639,0.098-0.91,0.098
		c-0.588,0-1.043-0.156-1.365-0.469c-0.322-0.313-0.483-0.758-0.483-1.337V20.447L131.924,20.447z"/>
	<path d="M139.686,30.807c-0.598,0-1.134-0.103-1.61-0.308c-0.476-0.205-0.88-0.483-1.211-0.833
		c-0.332-0.35-0.586-0.753-0.763-1.211c-0.178-0.457-0.266-0.938-0.266-1.442c0-0.513,0.088-0.999,0.266-1.456
		c0.177-0.458,0.431-0.861,0.763-1.211c0.331-0.35,0.735-0.628,1.211-0.833c0.476-0.206,1.013-0.308,1.61-0.308
		s1.131,0.103,1.603,0.308c0.471,0.205,0.873,0.483,1.204,0.833c0.332,0.35,0.586,0.753,0.763,1.211
		c0.177,0.457,0.266,0.943,0.266,1.456c0,0.504-0.089,0.985-0.266,1.442c-0.177,0.458-0.429,0.861-0.756,1.211
		s-0.728,0.628-1.204,0.833S140.283,30.807,139.686,30.807z M137.768,27.013c0,0.327,0.049,0.623,0.147,0.889
		s0.233,0.497,0.406,0.693c0.173,0.196,0.375,0.348,0.609,0.455c0.233,0.107,0.485,0.161,0.756,0.161s0.522-0.054,0.756-0.161
		c0.233-0.107,0.436-0.259,0.609-0.455c0.173-0.196,0.308-0.429,0.406-0.7s0.147-0.569,0.147-0.896c0-0.317-0.049-0.611-0.147-0.882
		s-0.233-0.504-0.406-0.7c-0.173-0.196-0.376-0.348-0.609-0.455s-0.485-0.161-0.756-0.161s-0.523,0.056-0.756,0.168
		c-0.233,0.112-0.436,0.266-0.609,0.462c-0.173,0.196-0.308,0.429-0.406,0.7S137.768,26.696,137.768,27.013z"/>
	<path d="M146.734,30.807c-0.355,0-0.686-0.059-0.994-0.175c-0.308-0.116-0.574-0.28-0.798-0.49s-0.399-0.455-0.525-0.735
		c-0.126-0.28-0.189-0.588-0.189-0.924c0-0.345,0.077-0.665,0.231-0.959s0.369-0.543,0.644-0.749
		c0.275-0.205,0.604-0.366,0.987-0.483c0.383-0.117,0.803-0.175,1.26-0.175c0.327,0,0.646,0.028,0.959,0.084
		c0.313,0.056,0.59,0.135,0.833,0.238v-0.42c0-0.485-0.138-0.859-0.413-1.12c-0.275-0.261-0.684-0.392-1.225-0.392
		c-0.392,0-0.775,0.07-1.148,0.21c-0.374,0.14-0.756,0.346-1.148,0.616l-0.574-1.19c0.943-0.625,1.96-0.938,3.052-0.938
		c1.055,0,1.874,0.259,2.457,0.777s0.875,1.267,0.875,2.247v2.282c0,0.196,0.037,0.336,0.112,0.42
		c0.075,0.084,0.205,0.131,0.392,0.14v1.596c-0.177,0.037-0.343,0.063-0.497,0.077c-0.154,0.014-0.287,0.021-0.399,0.021
		c-0.355-0.01-0.625-0.091-0.812-0.245s-0.303-0.362-0.35-0.623l-0.042-0.406c-0.327,0.429-0.723,0.756-1.19,0.98
		C147.766,30.695,147.267,30.807,146.734,30.807z M147.267,29.435c0.317,0,0.618-0.056,0.903-0.168s0.506-0.261,0.665-0.448
		c0.205-0.159,0.308-0.336,0.308-0.532v-0.84c-0.224-0.084-0.467-0.151-0.728-0.203c-0.262-0.051-0.514-0.077-0.756-0.077
		c-0.485,0-0.882,0.11-1.19,0.329c-0.308,0.219-0.462,0.497-0.462,0.833c0,0.317,0.121,0.581,0.364,0.791
		C146.613,29.33,146.912,29.435,147.267,29.435z"/>
	<path d="M155.735,30.807c-0.504,0-0.968-0.098-1.393-0.294c-0.425-0.196-0.791-0.467-1.099-0.812
		c-0.308-0.345-0.549-0.749-0.721-1.211c-0.173-0.462-0.259-0.959-0.259-1.491s0.082-1.027,0.245-1.484
		c0.163-0.458,0.39-0.859,0.679-1.204s0.634-0.616,1.036-0.812c0.401-0.196,0.84-0.294,1.316-0.294c0.532,0,1.015,0.131,1.449,0.392
		c0.434,0.261,0.772,0.602,1.015,1.022v-4.172h1.876v8.063c0,0.196,0.037,0.336,0.112,0.42c0.075,0.084,0.206,0.131,0.392,0.14
		v1.596c-0.354,0.065-0.653,0.098-0.896,0.098c-0.345-0.01-0.614-0.089-0.805-0.238s-0.311-0.359-0.357-0.63l-0.042-0.504
		c-0.271,0.467-0.635,0.819-1.092,1.057C156.733,30.688,156.248,30.807,155.735,30.807z M156.225,29.211
		c0.177,0,0.359-0.03,0.546-0.091s0.359-0.147,0.518-0.259c0.159-0.112,0.303-0.243,0.434-0.392c0.13-0.149,0.229-0.313,0.294-0.49
		v-1.75c-0.159-0.411-0.418-0.751-0.777-1.022c-0.359-0.271-0.735-0.406-1.127-0.406c-0.28,0-0.539,0.061-0.777,0.182
		c-0.238,0.122-0.441,0.287-0.609,0.497s-0.299,0.45-0.392,0.721c-0.093,0.271-0.14,0.551-0.14,0.84
		c0,0.308,0.051,0.593,0.154,0.854s0.245,0.49,0.427,0.686c0.182,0.196,0.396,0.35,0.644,0.462
		C155.667,29.155,155.936,29.211,156.225,29.211z"/>
</g>
<path fill="#333333" d="M84.849,403.807c3.631-3.617,5.328-6.709,6.621-10.477l4.526,1.438c1.484-4.326,2.067-9.065,1.599-13.625
	L92.95,381.6c-0.419-4.084-1.754-8.106-4.038-11.697l3.96-2.52c-2.453-3.857-5.793-7.219-9.64-9.693l-2.534,3.944
	c-3.578-2.299-7.577-3.678-11.666-4.12l0.504-4.652c-4.56-0.492-9.259,0.021-13.591,1.488l1.499,4.436
	c-3.709,1.255-7.204,3.338-10.196,6.258c-0.1,0.098-0.194,0.201-0.292,0.3l-3.328-3.305c-3.285,3.306-5.749,7.19-7.325,11.552
	l4.406,1.592c-1.426,3.946-1.898,8.159-1.426,12.287l-4.658,0.533c0.528,4.63,2.03,8.982,4.459,12.939l3.997-2.454
	c1.032,1.682,2.258,3.278,3.695,4.751c1.538,1.576,3.226,2.917,5.012,4.035l-2.489,3.975c3.934,2.464,8.274,4.002,12.898,4.572
	l0.575-4.652c4.123,0.509,15.903-2.588,12.304-1.322l1.459,4.331c4.371-1.538,8.188-4.061,11.527-7.315l-0.119,0.115L84.849,403.807
	z M55.027,395.188c-5.974-6.119-5.851-15.924,0.27-21.897c6.124-5.978,15.927-5.858,21.901,0.261
	c5.971,6.119,5.85,15.924-0.273,21.899C70.804,401.425,60.999,401.307,55.027,395.188z"/>
</svg>
