<?xml version="1.0" encoding="utf-8"?>
<!-- Generator: Adobe Illustrator 19.1.0, SVG Export Plug-In . SVG Version: 6.00 Build 0)  -->
<svg version="1.1" id="Слой_1" xmlns="http://www.w3.org/2000/svg" xmlns:xlink="http://www.w3.org/1999/xlink" x="0px" y="0px"
	 width="185px" height="40px" viewBox="0 0 185 40" style="enable-background:new 0 0 185 40;" xml:space="preserve">
<style type="text/css">
	.st0{fill:#5F82C1;}
	.st1{fill:none;stroke:#000000;stroke-width:6;stroke-miterlimit:10;}
	.st2{fill:none;stroke:#000000;stroke-width:5;stroke-miterlimit:10;}
</style>
<path class="st0" d="M25.5,33.3c-1.3-1.3-1.9-3-1.9-5.1s0.7-3.8,2-5c1.4-1.2,3-1.9,4.9-1.9c2.4,0,4.4,1,6,3l3.2-3.6
	c-2.5-2.8-5.6-4.3-9.4-4.3c-3.3,0-6.2,1.1-8.5,3.4c-2.3,2.3-3.5,5.1-3.5,8.4c0,3.4,1.1,6.2,3.4,8.4c2.3,2.2,5.1,3.3,8.6,3.3
	c3.5,0,6.5-1.5,9.1-4.4l-3.3-3.3c-1.6,2-3.6,3-6.1,3C28.3,35.3,26.7,34.6,25.5,33.3z"/>
<path class="st0" d="M56,33.4c-1.3,1.4-2.9,2.1-4.8,2.1c-1.9,0-3.5-0.7-4.8-2.1c-1.3-1.4-2-3.1-2-5.2c0-2,0.7-3.8,2-5.2
	c1.3-1.4,2.9-2.1,4.8-2.1c1.9,0,3.5,0.7,4.8,2.1c1.3,1.4,2,3.2,2,5.2C57.9,30.3,57.3,32,56,33.4z M63.1,28.2c0-3.3-1.1-6.1-3.4-8.4
	c-2.3-2.2-5.1-3.4-8.5-3.4c-3.4,0-6.2,1.1-8.5,3.4c-2.3,2.2-3.4,5-3.4,8.4c0,3.3,1.1,6.1,3.4,8.4c2.3,2.2,5.1,3.4,8.5,3.4
	c3.4,0,6.2-1.1,8.5-3.4C62,34.4,63.1,31.6,63.1,28.2z"/>
<path class="st0" d="M80.9,31.6L69.7,17H65v22.7H70V25.5l10.8,14.2h5.1V17h-5.1V31.6z"/>
<path class="st0" d="M105.2,21.4V17H87.2v4.4h6.4v18.3h5.1V21.4H105.2z"/>
<path class="st0" d="M106.4,17v22.7h16.7v-4.5h-11.7v-4.7h10.2v-4.3h-10.2v-4.7h11.3V17H106.4z"/>
<path class="st0" d="M141.2,31.6L130,17h-4.7v22.7h5.1V25.5l10.8,14.2h5.1V17h-5.1V31.6z"/>
<path class="st0" d="M1.7,16.2c0.7,0.2,1.3,0.3,1.9,0.3c1.2,0,2.1-0.3,2.9-0.8c0.8-0.5,1.1-1.2,1.1-2.1c0-0.8-0.3-1.4-0.8-1.8
	c-0.5-0.4-1.2-0.6-2.1-0.6c-0.3,0-0.6,0-1.2,0.1c-0.5,0.1-0.9,0.1-1.1,0.1c-0.6,0-0.8-0.1-0.8-0.4c0-0.2,0.1-0.3,0.4-0.4
	c0.3-0.1,0.5-0.2,0.6-0.2L4,10.5c0.9-0.1,1.7-0.5,2.3-1.1C6.8,8.7,7.1,8,7.1,7c0-0.9-0.2-1.6-0.6-2.1l1-0.7l-1.1-1l-0.8,1
	C5.1,3.8,4.4,3.6,3.5,3.6c-1,0-1.8,0.3-2.5,1C0.3,5.2,0,6,0,7c0,1.5,0.6,2.6,1.9,3.2c-0.5,0.1-0.8,0.3-1.1,0.5
	c-0.3,0.2-0.5,0.5-0.5,0.8c0,1,0.7,1.5,2,1.5c0.3,0,0.6,0,1.1-0.1c0.5-0.1,0.8-0.1,1-0.1C5.5,12.7,6,13,6,13.8
	c0,0.4-0.2,0.7-0.6,0.9c-0.4,0.3-1,0.4-1.7,0.4c-0.8,0-1.7-0.3-2.6-1l-0.9,1.3C0.5,15.8,1.1,16,1.7,16.2z M4.9,5.5
	C5.2,5.9,5.4,6.4,5.4,7c0,0.7-0.2,1.2-0.5,1.6C4.6,9,4.2,9.2,3.6,9.2C3,9.2,2.5,9,2.2,8.6C1.8,8.1,1.7,7.6,1.7,7
	c0-0.6,0.2-1.1,0.5-1.5C2.6,5.1,3,4.9,3.6,4.9C4.1,4.9,4.5,5.1,4.9,5.5z"/>
<path class="st0" d="M9.3,11.8c0.7,0.9,1.7,1.3,3.1,1.3c1.3,0,2.3-0.4,3-1.3c0.7-0.9,1.1-2,1.1-3.5c0-1.5-0.4-2.6-1.1-3.5
	c-0.7-0.8-1.7-1.3-3.1-1.3c-1.2,0-2.2,0.4-3,1.3c-0.8,0.9-1.1,2-1.1,3.4C8.2,9.8,8.6,11,9.3,11.8z M10.6,5.8c0.4-0.6,1-0.9,1.8-0.9
	c1.6,0,2.4,1.1,2.4,3.4c0,1.1-0.2,1.9-0.6,2.5c-0.4,0.6-1,0.9-1.8,0.9c-1.6,0-2.4-1.2-2.4-3.5C9.9,7.3,10.2,6.4,10.6,5.8z"/>
<path class="st0" d="M18.3,11.8c0.7,0.9,1.7,1.3,3.1,1.3c1.3,0,2.3-0.4,3-1.3c0.7-0.9,1.1-2,1.1-3.5c0-1.5-0.4-2.6-1.1-3.5
	c-0.7-0.8-1.7-1.3-3.1-1.3c-1.2,0-2.2,0.4-3,1.3c-0.8,0.9-1.1,2-1.1,3.4C17.2,9.8,17.6,11,18.3,11.8z M19.6,5.8
	c0.4-0.6,1-0.9,1.8-0.9c1.6,0,2.4,1.1,2.4,3.4c0,1.1-0.2,1.9-0.6,2.5c-0.4,0.6-1,0.9-1.8,0.9c-1.6,0-2.4-1.2-2.4-3.5
	C18.9,7.3,19.1,6.4,19.6,5.8z"/>
<path class="st0" d="M34.2,12.9V0h-1.6v4.3c-0.5-0.4-1.2-0.7-2.2-0.7c-1.1,0-2.1,0.5-2.9,1.5c-0.8,1-1.2,2.2-1.2,3.5
	c0,1.4,0.4,2.5,1.1,3.3c0.7,0.8,1.6,1.2,2.8,1.2c1.1,0,1.9-0.3,2.5-0.8v0.7H34.2z M32.6,11c-0.1,0.2-0.3,0.4-0.7,0.5
	c-0.4,0.2-0.7,0.2-0.9,0.2c-2,0-3-1.1-3-3.3c0-1,0.3-1.8,0.8-2.5s1.2-1,2.1-1c0.7,0,1.3,0.3,1.7,0.9V11z"/>
<path class="st0" d="M142.9,13.5V7.3c0-1-0.3-1.8-0.8-2.4c-0.5-0.6-1.3-0.8-2.2-0.8c-0.5,0-1,0.1-1.5,0.4c-0.5,0.2-0.8,0.5-1,0.9
	c-0.5-0.8-1.4-1.2-2.8-1.2c-0.9,0-1.7,0.4-2.4,1.2l-0.5-1.1h-1.1v9.2h1.6V6.7c0.2-0.3,0.4-0.6,0.8-0.8c0.4-0.3,0.7-0.4,1-0.4
	c0.6,0,1,0.1,1.3,0.4c0.3,0.3,0.5,0.6,0.5,1.1v6.5h1.6V6.7c0.1-0.3,0.4-0.6,0.7-0.8c0.3-0.2,0.7-0.4,1.1-0.4c1.2,0,1.9,0.7,1.9,2.2
	v5.8H142.9z"/>
<path class="st0" d="M150.7,13.4c0.3,0.2,0.8,0.3,1.5,0.3v-0.8c-0.5-0.3-0.7-0.8-0.7-1.6V7.9c0-1.3-0.3-2.3-0.9-2.9
	c-0.6-0.6-1.6-0.9-2.9-0.9c-0.5,0-1,0.1-1.6,0.3c-0.5,0.2-1,0.4-1.3,0.6l0.7,1.4c0.5-0.5,1.3-0.8,2.3-0.8c1.3,0,2,0.7,2,2.2
	c-0.4-0.1-0.8-0.2-1.2-0.2c-1.3,0-2.3,0.3-3.1,1c-0.8,0.6-1.2,1.4-1.2,2.4c0,0.8,0.3,1.4,0.8,2c0.5,0.5,1.2,0.8,1.9,0.8
	c1.3,0,2.3-0.4,3-1.2C150.1,12.9,150.4,13.2,150.7,13.4z M149.8,11.2c-0.6,0.8-1.4,1.2-2.2,1.2c-1.1,0-1.7-0.5-1.7-1.4
	c0-0.6,0.3-1.1,0.8-1.5c0.5-0.4,1.2-0.6,2-0.6c0.2,0,0.6,0.1,1.1,0.2V11.2z"/>
<path class="st0" d="M161.3,13.5l-3.6-5.7l2.9-3.5h-1.9l-3.5,4.3v-8h-1.6v13h1.6v-3.1l1.4-1.5l2.9,4.6H161.3z"/>
<path class="st0" d="M169.8,8.1c0-1.2-0.4-2.1-1.1-2.8c-0.7-0.7-1.8-1.1-3.1-1.1c-1.1,0-2.1,0.4-2.9,1.2c-0.9,0.9-1.4,2.1-1.4,3.6
	c0,1.5,0.4,2.6,1.3,3.5c0.8,0.8,1.8,1.2,2.9,1.2c0.8,0,1.5-0.1,2.2-0.4c0.5-0.2,0.9-0.4,1.2-0.7l-0.7-1.2c-0.6,0.5-1.4,0.8-2.3,0.8
	c-0.8,0-1.5-0.3-2-0.8c-0.6-0.6-0.9-1.4-0.9-2.5h6.6C169.8,8.8,169.8,8.4,169.8,8.1L169.8,8.1z M167.6,6.2c0.4,0.4,0.6,1,0.6,1.6
	h-5.1c0.1-0.7,0.3-1.2,0.8-1.7c0.5-0.5,1.1-0.7,1.8-0.7C166.5,5.5,167.1,5.7,167.6,6.2L167.6,6.2z"/>
<path class="st0" d="M176.7,4.3c-0.5-0.1-1-0.2-1.3-0.2c-1.2,0-2.1,0.5-2.6,1.6V4.3h-1.6v9.2h1.6V8.2c0-0.7,0.2-1.4,0.6-1.9
	s0.9-0.8,1.5-0.8c0.4,0,0.7,0.1,1.1,0.4L176.7,4.3z"/>
<path class="st0" d="M179.6,13.7c1,0,1.8-0.2,2.4-0.7c0.6-0.5,0.9-1.1,0.9-1.9c0-0.6-0.2-1.2-0.5-1.6c-0.3-0.4-0.8-0.8-1.6-1.1
	l-1.2-0.5c-0.7-0.3-1-0.7-1-1.3c0-0.3,0.1-0.5,0.4-0.7c0.3-0.2,0.6-0.3,1-0.3c0.7,0,1.3,0.3,1.9,0.8l0.5-1.5c-1-0.4-1.9-0.6-2.5-0.6
	c-0.9,0-1.6,0.2-2.1,0.6c-0.5,0.4-0.8,1-0.8,1.8c0,0.3,0,0.6,0.1,0.8c0.1,0.3,0.2,0.5,0.4,0.7c0.2,0.2,0.4,0.4,0.7,0.6
	c0.3,0.2,0.8,0.4,1.5,0.8c1,0.4,1.5,1,1.5,1.6c0,0.8-0.5,1.3-1.5,1.3c-0.6,0-1.3-0.3-2.2-0.9l-0.6,1.5
	C177.7,13.4,178.6,13.7,179.6,13.7L179.6,13.7z"/>
<path class="st0" d="M165.4,21.4V17h-17.9v4.4h6.4v18.3h5.1V21.4H165.4z"/>
<line class="st1" x1="166.7" y1="20" x2="183.2" y2="20"/>
<line class="st2" x1="166.7" y1="37.2" x2="183.2" y2="37.2"/>
<line class="st1" x1="166.7" y1="28.6" x2="183.2" y2="28.6"/>
<line class="st1" x1="0" y1="20" x2="16.5" y2="20"/>
<line class="st2" x1="0" y1="37.2" x2="16.5" y2="37.2"/>
<line class="st1" x1="0" y1="28.6" x2="16.5" y2="28.6"/>
</svg>
