<?xml version="1.0" encoding="utf-8"?>
<!-- Generator: Adobe Illustrator 19.1.0, SVG Export Plug-In . SVG Version: 6.00 Build 0)  -->
<svg version="1.1" id="Layer_1" xmlns="http://www.w3.org/2000/svg" xmlns:xlink="http://www.w3.org/1999/xlink" x="0px" y="0px"
	 width="135px" height="36px" viewBox="44 35 135 36" style="enable-background:new 44 35 135 36;" xml:space="preserve">
<style type="text/css">
	.st0{fill:#253B80;}
	.st1{fill:#179BD7;}
</style>
<path class="st0" d="M60.2,35H49.7c-0.7,0-1.3,0.5-1.4,1.2L44,63.2c-0.1,0.5,0.3,1,0.9,1h5c0.7,0,1.3-0.5,1.4-1.2l1.1-7.3
	c0.1-0.7,0.7-1.2,1.4-1.2h3.3c6.9,0,10.9-3.3,12-10c0.5-2.9,0-5.2-1.3-6.8C66.4,35.9,63.7,35,60.2,35z M61.4,44.8
	c-0.6,3.8-3.5,3.8-6.2,3.8h-1.6l1.1-7c0.1-0.4,0.4-0.7,0.9-0.7h0.7c1.9,0,3.7,0,4.6,1.1C61.5,42.6,61.6,43.5,61.4,44.8z"/>
<path class="st0" d="M91.6,44.7h-5c-0.4,0-0.8,0.3-0.9,0.7l-0.2,1.4l-0.4-0.5c-1.1-1.6-3.5-2.1-5.9-2.1c-5.6,0-10.3,4.2-11.2,10.1
	c-0.5,2.9,0.2,5.8,1.9,7.7c1.5,1.8,3.7,2.6,6.3,2.6c4.5,0,7-2.9,7-2.9l-0.2,1.4c-0.1,0.5,0.3,1,0.9,1h4.5c0.7,0,1.3-0.5,1.4-1.2
	l2.7-17.2C92.6,45.2,92.2,44.7,91.6,44.7z M84.6,54.5c-0.5,2.9-2.8,4.8-5.7,4.8c-1.5,0-2.6-0.5-3.4-1.4c-0.7-0.9-1-2.1-0.8-3.5
	c0.5-2.9,2.8-4.8,5.6-4.8c1.4,0,2.6,0.5,3.4,1.4C84.5,51.9,84.8,53.1,84.6,54.5z"/>
<path class="st0" d="M118.4,44.7h-5.1c-0.5,0-0.9,0.2-1.2,0.6l-7,10.3l-3-9.9c-0.2-0.6-0.8-1-1.4-1h-5c-0.6,0-1,0.6-0.8,1.2
	l5.6,16.3l-5.2,7.4c-0.4,0.6,0,1.4,0.7,1.4h5.1c0.5,0,0.9-0.2,1.2-0.6l16.8-24.3C119.5,45.5,119.1,44.7,118.4,44.7z"/>
<path class="st1" d="M135.2,35h-10.5c-0.7,0-1.3,0.5-1.4,1.2L119,63.2c-0.1,0.5,0.3,1,0.9,1h5.4c0.5,0,0.9-0.4,1-0.9l1.2-7.6
	c0.1-0.7,0.7-1.2,1.4-1.2h3.3c6.9,0,10.9-3.3,12-10c0.5-2.9,0-5.2-1.3-6.8C141.3,35.9,138.7,35,135.2,35z M136.4,44.8
	c-0.6,3.8-3.5,3.8-6.2,3.8h-1.6l1.1-7c0.1-0.4,0.4-0.7,0.9-0.7h0.7c1.9,0,3.7,0,4.6,1.1C136.4,42.6,136.6,43.5,136.4,44.8z"/>
<path class="st1" d="M166.6,44.7h-5c-0.4,0-0.8,0.3-0.9,0.7l-0.2,1.4l-0.4-0.5c-1.1-1.6-3.5-2.1-5.9-2.1c-5.6,0-10.3,4.2-11.2,10.1
	c-0.5,2.9,0.2,5.8,1.9,7.7c1.5,1.8,3.7,2.6,6.3,2.6c4.5,0,7-2.9,7-2.9l-0.2,1.4c-0.1,0.5,0.3,1,0.9,1h4.5c0.7,0,1.3-0.5,1.4-1.2
	l2.7-17.2C167.5,45.2,167.1,44.7,166.6,44.7z M159.6,54.5c-0.5,2.9-2.8,4.8-5.7,4.8c-1.5,0-2.6-0.5-3.4-1.4c-0.7-0.9-1-2.1-0.8-3.5
	c0.5-2.9,2.8-4.8,5.6-4.8c1.4,0,2.6,0.5,3.4,1.4C159.5,51.9,159.8,53.1,159.6,54.5z"/>
<path class="st1" d="M172.5,35.7l-4.3,27.4c-0.1,0.5,0.3,1,0.9,1h4.3c0.7,0,1.3-0.5,1.4-1.2l4.3-26.9c0.1-0.5-0.3-1-0.9-1h-4.9
	C172.9,35,172.6,35.3,172.5,35.7z"/>
</svg>
