<?xml version="1.0" encoding="utf-8"?>
<!-- Generator: Adobe Illustrator 19.1.0, SVG Export Plug-In . SVG Version: 6.00 Build 0)  -->
<svg version="1.1" id="Слой_1" xmlns="http://www.w3.org/2000/svg" xmlns:xlink="http://www.w3.org/1999/xlink" x="0px" y="0px"
	 width="110px" height="36px" viewBox="37 0 110 36" style="enable-background:new 37 0 110 36;" xml:space="preserve">
<style type="text/css">
	.st0{fill:#862165;}
</style>
<g>
	<path id="Fill-1" class="st0" d="M110.3,8.6c2.3,0,4.2-1.9,4.2-4.3c0-2.4-1.9-4.3-4.2-4.3c-2.3,0-4.2,1.9-4.2,4.3
		C106.2,6.7,108,8.6,110.3,8.6L110.3,8.6L110.3,8.6z M78.2,11c-0.2,0.5-1.6,4.5-4.8,8.6V2l-8.8,1.8v31.9h8.8v-9.9
		c2.5,3.9,3.8,9.9,3.8,9.9h10.5c-1-4.5-5.6-12.7-5.6-12.7c4.1-5.3,5.9-11,6.2-12H78.2L78.2,11z M101.3,10.7
		c-7.9,0.3-11.8,3.9-11.8,11.1v13.9H98V24.3c0-4.3,0.5-6.2,5.5-6.4v-7.2C102.7,10.6,101.3,10.7,101.3,10.7L101.3,10.7L101.3,10.7z
		 M49.9,14.5c-1.1-0.1-3.6-0.2-3.6-2.6c0-2.8,3.6-2.8,4.9-2.8c2.4,0,5.4,0.7,7.6,1.4c0,0,1.2,0.4,2.3,0.9l0.1,0V3.8l-0.1,0
		C58.5,2.9,55.5,2,50,2c-9.6,0-13,5.8-13,10.7c0,2.8,1.2,9.5,12.2,10.3c0.9,0.1,3.4,0.2,3.4,2.6c0,2-2,3.1-5.4,3.1
		c-3.7,0-7.3-1-9.5-1.9v7.9c3.3,0.9,7,1.3,11.3,1.3c9.4,0,13.6-5.5,13.6-10.9C62.5,19,57.8,15,49.9,14.5L49.9,14.5L49.9,14.5z
		 M106.1,35.6h8.5V11h-8.5V35.6L106.1,35.6z M130.6,3.5v32.1h8.5V2L130.6,3.5L130.6,3.5z M118.2,3.5l8.5-1.6v33.7h-8.5V3.5
		L118.2,3.5z"/>
</g>
</svg>
