<?xml version="1.0" encoding="utf-8"?><svg width="1869" height="1728" viewBox="0 0 1869 1728" xmlns="http://www.w3.org/2000/svg" xmlns:xlink="http://www.w3.org/1999/xlink"><svg width="7" height="11" viewBox="0 0 7 11" id="arrow-green-continue"><path fill="#40BB5A" d="M.877 10.244a.874.874 0 0 1-.62-.26.875.875 0 0 1 0-1.239l3.625-3.624L.257 1.498a.876.876 0 0 1 0-1.24.875.875 0 0 1 1.241 0l4.245 4.243a.88.88 0 0 1 .258.62.88.88 0 0 1-.258.62L1.498 9.984a.875.875 0 0 1-.621.26z"/></svg><svg width="7" height="11" viewBox="0 0 7 11" id="arrow-orange-continue" x="7" y="11"><path fill="#EDAD43" d="M.878 10.244a.88.88 0 0 1-.621-1.499l3.626-3.624L.257 1.498A.877.877 0 1 1 1.498.258l4.245 4.244a.88.88 0 0 1 .258.62.88.88 0 0 1-.258.62L1.498 9.985a.88.88 0 0 1-.62.259z"/></svg><svg width="7" height="11" viewBox="0 0 7 11" id="arrow-white-continue" x="14" y="22"><path fill="#FFF" d="M.877 10.244a.878.878 0 0 1-.62-1.499l3.625-3.624L.257 1.498a.876.876 0 0 1 0-1.24.875.875 0 0 1 1.241 0l4.245 4.243a.88.88 0 0 1 .258.62.88.88 0 0 1-.258.62L1.498 9.985a.878.878 0 0 1-.621.259z"/></svg><svg width="73" height="74" viewBox="0 0 73 74" id="benefit-impression" x="21" y="33"><path fill="#FFF" d="M36.501 8.137C20.584 8.137 7.636 21.085 7.636 37c0 15.916 12.948 28.863 28.865 28.863 15.914 0 28.863-12.947 28.863-28.863 0-15.915-12.949-28.863-28.863-28.863zM9.625 37c0-14.819 12.056-26.875 26.875-26.875 14.818 0 26.875 12.056 26.875 26.875 0 2.754-.418 5.412-1.191 7.919.674-2.979.863-6.069.5-9.104-1.324-10.059-8.781-18.556-18.562-21.145-10.24-2.713-21.248 1.588-26.765 10.457-5.968 9.595-4.11 22.275 4.323 29.494 8.234 7.051 20.784 6.912 28.573-.316 6.272-5.824 8.354-15.218 5.058-22.841-2.076-4.797-6.127-8.595-11.119-10.422-4.869-1.783-10.037-1.529-14.548.711-4.674 2.321-8.064 6.625-9.303 11.809-1.169 4.896-.17 9.941 2.738 13.838 3.229 4.365 8.671 6.795 14.21 6.341 5.274-.435 9.647-3.314 11.998-7.905 2.014-3.934 2.062-8.673.123-12.676-1.791-3.71-5.093-6.293-9.056-7.085-4.882-.979-9.972 1.065-12.652 5.083-3.085 4.623-2.294 10.955 1.801 14.421a9.9 9.9 0 0 0 7.578 2.263c2.541-.31 4.744-1.587 6.203-3.603 2.195-3.031 2.176-7.175-.047-9.854-1.67-2.011-4.641-2.976-7.226-2.344-2.181.533-3.705 2.098-4.18 4.294-.332 1.531.072 3.197 1.054 4.352.818.959 1.947 1.451 3.172 1.388 1.493-.08 2.267-.832 2.652-1.448.264-.423.85-2.042-.018-2.927-.729-.748-1.416-.521-1.416-.521s1 1-.141 2.438c-.137.172-.492.525-1.188.563-.786.041-1.262-.443-1.55-.781-.579-.68-.823-1.715-.624-2.639.422-1.948 1.878-2.58 2.708-2.782 1.843-.45 4.039.256 5.222 1.683 1.625 1.957 1.611 5.146-.033 7.416-1.13 1.562-2.846 2.553-4.83 2.793a7.92 7.92 0 0 1-6.053-1.808c-3.335-2.821-3.964-8.005-1.431-11.798 2.24-3.357 6.499-5.059 10.608-4.239 3.396.681 6.112 2.812 7.653 6.001 1.666 3.446 1.627 7.522-.104 10.902-2.029 3.967-5.816 6.454-10.391 6.831-4.854.397-9.625-1.726-12.45-5.544-2.557-3.428-3.432-7.869-2.4-12.188 1.101-4.609 4.109-8.433 8.252-10.489 4.02-1.997 8.629-2.219 12.98-.626 4.479 1.64 8.117 5.046 9.976 9.344 2.971 6.863 1.086 15.332-4.582 20.596-7.063 6.549-18.449 6.666-25.927.263-7.695-6.589-9.384-18.165-3.93-26.934 5.06-8.134 15.164-12.075 24.568-9.583 9.007 2.385 15.877 10.212 17.095 19.468.819 6.854-1.363 14.037-5.845 19.212-4.771 5.511-11.854 8.563-19.068 8.584C21.302 63.48 9.625 51.582 9.625 37z"/></svg><svg width="53" height="68.5" viewBox="0 -0.5 53 68.5" id="benefit-text" x="94" y="107"><path fill="#FFF" d="M0-.5v68h45l8-8v-60H0zm51 60l-6 6H2v-64h49v58z"/><path fill="none" stroke="#FFF" stroke-width="2" stroke-miterlimit="10" stroke-dasharray="35,35,35,35,35,36" d="M9 54.5h35m-35-7h35m-35-7h35m-35-7h35m-35-7h35m-35-7h35m-35-7h35"/></svg><svg width="73" height="74" viewBox="0 0 73 74" id="benefit-time" x="147" y="176"><g fill="#FFF"><path d="M35.947 64.363c-14.852 0-26.932-12.081-26.932-26.932 0-14.85 12.08-26.932 26.932-26.932 14.85 0 26.931 12.082 26.931 26.932 0 14.851-12.081 26.932-26.931 26.932zm0-51.863c-13.748 0-24.932 11.184-24.932 24.932S22.2 62.365 35.947 62.365c13.746 0 24.931-11.185 24.931-24.933S49.693 12.5 35.947 12.5z"/><path d="M35.947 48.583c-6.149 0-11.152-5.003-11.152-11.151S29.798 26.28 35.947 26.28c6.148 0 11.15 5.003 11.15 11.151s-5.001 11.152-11.15 11.152zm0-20.304c-5.047 0-9.152 4.106-9.152 9.153 0 5.045 4.105 9.15 9.152 9.15 5.045 0 9.15-4.105 9.15-9.15.001-5.047-4.105-9.153-9.15-9.153z"/><path d="M35.947 41.977c-2.508 0-4.547-2.039-4.547-4.545s2.039-4.544 4.547-4.544c2.506 0 4.545 2.039 4.545 4.544s-2.039 4.545-4.545 4.545zm0-7.09a2.55 2.55 0 0 0-2.547 2.544 2.55 2.55 0 0 0 2.547 2.545 2.549 2.549 0 0 0 2.545-2.545 2.548 2.548 0 0 0-2.545-2.544z"/><path d="M35.947 41.977c-2.508 0-4.547-2.039-4.547-4.545s2.039-4.544 4.547-4.544c2.506 0 4.545 2.039 4.545 4.544s-2.039 4.545-4.545 4.545zm0-7.09a2.55 2.55 0 0 0-2.547 2.544 2.55 2.55 0 0 0 2.547 2.545 2.549 2.549 0 0 0 2.545-2.545 2.548 2.548 0 0 0-2.545-2.544zM15.75 1.5h2v18h-2zm0 53.854h2V73.5h-2zm39 0h2V73.5h-2zm-1-53.854h2v18.146h-2zm-7 0h2v13.187h-2zm-24 0h2v13.187h-2zm25 58.814h2V73.5h-2zm-26 0h2V73.5h-2zm44.148-18.488h-4.097v-2h3.697v-4.738h-3.772v-2h4.172c.883 0 1.602.718 1.602 1.6v5.539c0 .88-.719 1.599-1.602 1.599zM56.75 36.5h2v2h-2zm-43 0h2v2h-2zm21 21h2v2h-2zm0-43h2v2h-2zm0-13h2v2h-2zm0 5h2v2h-2zm0 60h2v2h-2zm0 5h2v2h-2z"/><path d="M34.5 14.5h3v18h-3z"/><path d="M34.5 21.5h3v11h-3z"/></g></svg><svg width="63" height="69" viewBox="775.5 439.5 63 69" id="bio" x="220" y="250"><path fill="#3AADD5" d="M835.5 444.5h-57c-2 0-3 1.094-3 3.031v57.99c0 1.979 1 2.979 3 2.979h57c2 0 3-1 3-3v-58c0-2-1-3-3-3zm-57 2h57c.664 0 1 .335 1 1v12h-59v-12c0-.665.335-1 1-1zm57 60h-57c-.665 0-1-.335-1-1v-44h59v44c0 .665-.336 1-1 1z"/><path fill="#3AADD5" d="M786.5 450.5c-.499 0-1-.501-1-1v-7.976c0-.499.501-1.024 1-1.024s1 .442 1 .941v8.059c0 .416-.501 1-1 1zm10 0c-.499 0-1-.501-1-1v-8c0-.499.501-1 1-1s1 .501 1 1v8c0 .416-.501 1-1 1zm10 0c-.5 0-1-.501-1-1v-8c0-.499.5-1 1-1 .498 0 1 .501 1 1v8c0 .416-.502 1-1 1zm11 0c-.498 0-1-.501-1-1v-8c0-.499.502-1 1-1 .5 0 1 .501 1 1v8c0 .416-.5 1-1 1zm10 0c-.5 0-1-.501-1-1v-8c0-.499.5-1 1-1 .498 0 1 .501 1 1v8c0 .416-.502 1-1 1zm-34.184 38.212l2.656-.349c.279 1.537.838 2.585 1.607 3.284s1.677.979 2.725.979c1.258 0 2.307-.419 3.215-1.328.838-.909 1.328-1.957 1.328-3.285 0-1.258-.42-2.236-1.189-3.075-.838-.769-1.816-1.188-3.074-1.188-.489 0-1.118.07-1.887.28l.28-2.376h.419c1.118 0 2.167-.28 3.075-.909s1.398-1.537 1.398-2.725c0-.979-.35-1.817-.979-2.446-.699-.629-1.537-.979-2.586-.979-1.048 0-1.887.35-2.585.979s-1.118 1.607-1.328 2.935l-2.795-.279c.349-1.817 1.048-3.214 2.236-4.193 1.188-.978 2.585-1.467 4.333-1.467 1.189 0 2.306.279 3.285.769s1.746 1.188 2.307 2.097c.559.908.768 1.817.768 2.795 0 .979-.279 1.817-.768 2.585-.49.769-1.258 1.398-2.236 1.817 1.258.28 2.305.909 3.004 1.887.699.909 1.049 2.097 1.049 3.494 0 1.887-.699 3.494-2.096 4.822-1.398 1.328-3.145 1.957-5.312 1.957-1.887 0-3.494-.559-4.752-1.747-1.259-1.19-1.888-2.517-2.098-4.334zM817.5 494.5v-18c-1 2-4 3-6 4v-2c2-1 5-4 6-6h3v22.012l-3-.012z"/></svg><svg width="21" height="20" viewBox="0 0 21 20" id="comments" x="283" y="319"><path fill="#424242" d="M10.659.528c-5.472 0-9.958 3.74-10 8.336-.026 2.844 1.067 4.887 3.545 6.622.036.035.073.074.099.103.076 1.048-.573 2.235-1.929 3.529l-.096.093a.369.369 0 1 0 .26.631c.009 0 .019.005.029.005 2.84-.223 5.738-2.309 6.255-2.698l.225-.024c.33.043 1.27.133 1.61.133h.001c5.514 0 10-3.767 10-8.365S16.173.528 10.659.528zm-.025 15.941c-.318 0-1.34-.075-1.528-.107a.402.402 0 0 0-.12 0l-.372.06a.373.373 0 0 0-.169.074c-.026.021-2.374 1.832-4.864 2.434 1.083-1.233 1.57-2.41 1.448-3.507a.376.376 0 0 0-.021-.088c-.015-.04-.06-.162-.316-.403a.347.347 0 0 0-.042-.034c-2.304-1.606-3.277-3.408-3.253-6.026.039-4.193 4.193-7.605 9.262-7.605 5.107 0 9.262 3.41 9.262 7.602s-4.155 7.6-9.287 7.6z"/></svg><svg width="50" height="50" viewBox="5 -17 50 50" id="essay-battle-logo" x="304" y="339"><path fill="#40BB5A" d="M45.134-6.894c-.872 0-2.198.128-3.113 1.11 4.813 3.646 7.927 9.417 7.927 15.906C49.947 21.121 41 30.068 30 30.068s-19.948-8.947-19.948-19.945c0-6.426 3.057-12.148 7.791-15.799-1.035-.896-2.441-1.036-3.257-.968C10.062-2.48 7.223 3.488 7.223 10.123c0 12.58 10.198 22.775 22.777 22.775 12.578 0 22.777-10.195 22.777-22.775 0-6.769-2.955-12.845-7.643-17.017z"/><g fill="#40BB5A"><circle cx="29.799" cy="-14.422" r="2.476"/><path d="M40.833-15.2a2.477 2.477 0 1 1 .002 4.954 2.477 2.477 0 0 1-.002-4.954z"/><circle cx="18.765" cy="-12.725" r="2.476"/><path d="M11.536-8.952s5.265.814 7.629-.201c2.263-.973 3.787-1.892 3.787-1.892l1.338.901s-1.011 1.19-1.348 2.167c-.327.945.04 2.185.04 2.185s-.847-.378-2.025.424c-1.18.801-1.885 2.876-1.885 2.876s.094-2.892-1.088-3.63c-1.691-1.059-3.553-.755-4.778-1.086-1.227-.33-1.67-.754-1.67-.754v-.99zm12.658-3.295l1.874-1.45.602.635-1.238 1.556zm24.268 3.013s-5.226.815-7.588-.201a43.55 43.55 0 0 1-3.827-1.856l-1.251.92s.996 1.137 1.334 2.112c.327.946-.036 2.184-.036 2.184s.846-.378 2.026.425c1.18.802 1.888 2.876 1.888 2.876s-.098-2.893 1.086-3.632c1.692-1.057 3.515-.754 4.739-1.085 1.227-.33 1.631-.754 1.631-.754v-.989h-.002zM35.883-12.53l-1.874-1.451-.602.637 1.239 1.557z"/><path d="M27.783-8.622v2.83s.855.542 1.775.542 1.917-.495 1.917-.495v-2.594l5.908-3.771v-1.039l-1.14.509-3.402 1.624h-6.226l-3.391-1.642-.9-.382-.054 1.006 5.513 3.412z"/></g><g fill="#40BB5A"><path d="M28.729 28.14c-.123.019-.094.199.027.189.047-.003.541-.246 1.174-.519a6.8 6.8 0 0 1-.232-.102c-.51.229-.936.428-.969.432zm12.138-4.93c.034-.074.065-.146.093-.222l.002-.034-.002.034c.261-.7.284-1.495.286-2.244 0-.084-.105-.139-.163-.063-.604.785-1.401 1.937-.809 2.902.22-.115.46-.215.593-.373z"/><path d="M47.775 14.366c-.724.269-1.409.717-1.879 1.336a18.47 18.47 0 0 0 .398-1.664c1.222-.272 1.832-1.611 2.03-2.739.02-.116-.148-.18-.216-.084-.35.519-1.152.901-1.61 1.438.052-.484.085-.972.098-1.46.438-.019.759-.269.959-.674.358-.727.445-1.676.588-2.462.023-.129-.148-.174-.222-.087-.371.438-.77.858-1.051 1.362a2.763 2.763 0 0 0-.286.775 16.144 16.144 0 0 0-.192-1.957c.407-.291.698-.702.806-1.199.127-.581-.088-1.171.112-1.741.044-.121-.103-.243-.21-.155a2.949 2.949 0 0 0-.991 1.693 16.708 16.708 0 0 0-.463-1.551c.013.006.028.009.046.006 1.595-.28.521-2.499.425-3.39-.018-.176-.273-.132-.266.037.048 1.005-.553 1.959-.331 2.952-.007-.003-.015-.008-.027-.009a15.962 15.962 0 0 0-.986-2.111c-.006-.01-.01-.019-.018-.027a.15.15 0 0 0 .004-.089 2.357 2.357 0 0 0 .079-1.597 2.348 2.348 0 0 0-.312-.676c-.138-.211-.332-.39-.472-.601 0-.004-.004-.01-.004-.014-.002-.028-.02-.044-.04-.052a.874.874 0 0 1-.11-.258c-.038-.138-.271-.163-.276.005-.018.798-.447 3.206.856 3.346-.003.022 0 .05.015.077.287.534.545 1.081.777 1.635-.613-.685-1.579-1.023-2.322-1.55-.077-.053-.192.009-.177.105.225 1.378 1.375 2.334 2.755 2.09.289.77.524 1.557.698 2.363a3.184 3.184 0 0 0-.548-.778c-.448-.459-1.188-.671-1.464-1.271-.049-.108-.241-.063-.207.059.281 1.026.91 2.88 2.308 2.565.006.016.016.032.021.046.002.011.01.021.018.025.021.132.044.266.062.398.1.665.155 1.333.173 2.001a3.453 3.453 0 0 0-.482-.803c-.366-.445-.765-.768-.986-1.315-.026-.063-.134-.088-.171-.02-.752 1.347.304 2.514 1.646 2.755-.006.575-.043 1.15-.107 1.721a3.425 3.425 0 0 0-1.471-1.935c-.071-.044-.194.003-.171.104.197.843.33 2.772 1.493 2.841a16.088 16.088 0 0 1-.466 1.93c-.168-.71-.93-1.331-1.051-2.048-.022-.136-.227-.137-.239.003-.088.979-.126 2.467.994 2.891a.09.09 0 0 0-.005.063 15.395 15.395 0 0 1-.673 1.567c-.012-.723-.583-1.515-.518-2.229.004-.072-.085-.135-.146-.08-1.008.906-.627 2.297.232 3.128.003.002.003.004.003.005 0 .005-.003.006-.003.007-.107-.036-.163.095-.09.159-.065.114-.135.23-.204.345-.302.497-.639.991-1.005 1.475.077-.793-.288-1.602-.018-2.393.021-.063-.046-.15-.115-.111-1.133.641-.907 2.067-.225 2.962a17.095 17.095 0 0 1-1.765 1.882 2.22 2.22 0 0 0 .087-.185c-.129.16-.371.261-.591.374.034.053.067.106.111.16a14.74 14.74 0 0 1-1.467 1.098c.141-.202.252-.427.324-.678.152-.527.155-1.071.354-1.588.034-.086-.066-.147-.137-.103-.956.626-1.495 1.706-1.33 2.844-.701.388-1.435.7-2.195.92.298-.259.582-.537.775-.882.193-.351.203-.77.354-1.128l.055-.075c.01-.013.007-.026-.002-.036.032-.061.07-.12.114-.175.063-.074-.028-.186-.114-.145-1.063.46-1.722 1.43-1.739 2.583-.164.036-2.205.353-3.384.525-.219.03-.884.315-1.501.589.079.034.155.07.231.104.427-.18.896-.363 1.318-.493.947-.291 3.227-.473 3.398-.506a.087.087 0 0 0 .025.011.067.067 0 0 0 .034.01h.009c.271.478.593.995 1.158 1.139.263.067.493.023.74-.063.431-.146.803-.307 1.262-.353.123-.011.136-.19.027-.233a9.761 9.761 0 0 0-2.676-.64 9.515 9.515 0 0 0 2.266-.933.067.067 0 0 0 .012.012c1.168.732 2.326-.144 3.503-.3.125-.017.125-.223-.003-.223-.803.006-1.746-.291-2.548-.09a16.7 16.7 0 0 0 1.385-1.062l.222-.194c.853.71 2.147-.332 2.971-.583.123-.037.052-.2-.054-.194-.569.025-1.101-.253-1.68-.167a1.783 1.783 0 0 0-.331.084c.347-.357.674-.728.983-1.111a.105.105 0 0 0 .06-.017c.37.238.86.22 1.263.044.661-.291.907-.971 1.485-1.344.111-.071-.006-.266-.118-.201-.494.287-1.056.272-1.579.456a2.559 2.559 0 0 0-.46.211c.347-.489.669-.994.96-1.511 1.278.4 2.104-1.47 2.848-2.141.101-.088.008-.239-.115-.196-.72.244-1.47.519-2.05.991.184-.41.356-.825.509-1.246 1.226.035 1.781-1.323 2.38-2.189.079-.102-.032-.235-.154-.192z"/><path d="M32.759 26.807c.061-.051.118-.106.174-.162.007-.012.016-.019.018-.031-.004.013-.013.02-.018.031.525-.534.873-1.246 1.184-1.929.035-.078-.038-.172-.123-.127-.871.471-2.071 1.192-1.926 2.315.245-.014.507-.008.691-.097z"/><path d="M32.123 26.983c.407 1.055 1.807 1.122 2.795 1.12.098-.003.118-.118.049-.169-.598-.454-1.243-.916-1.959-1.135.012.006.021.013.032.017l-.032-.017a5.144 5.144 0 0 0-.23-.062c-.204.011-.431.142-.655.246zM19.726 23.583c.593-.966-.203-2.117-.806-2.902-.059-.075-.164-.021-.164.063.003.749.026 1.544.287 2.244-.002-.011-.004-.021-.004-.034 0 .014.002.023.004.034.027.076.059.147.092.222.131.158.373.258.591.373z"/><path d="M12.071 14.565c.597.863 1.155 2.224 2.379 2.187.152.422.324.839.51 1.247-.58-.471-1.328-.747-2.051-.991a.115.115 0 0 0-.115.197c.745.67 1.571 2.542 2.847 2.139.294.521.613 1.025.961 1.512a2.835 2.835 0 0 0-.458-.211c-.525-.185-1.088-.17-1.58-.454-.113-.067-.23.128-.118.202.579.371.821 1.052 1.485 1.341.401.176.891.195 1.263-.043a.127.127 0 0 0 .058.017c.311.383.64.752.985 1.109a1.954 1.954 0 0 0-.333-.083c-.577-.085-1.107.194-1.68.166-.106-.004-.175.158-.055.196.824.251 2.121 1.291 2.973.583.073.063.146.13.221.193.44.374.902.732 1.385 1.063-.803-.2-1.746.095-2.548.088-.129-.001-.128.206-.004.224 1.177.155 2.335 1.031 3.504.298a.02.02 0 0 0 .012-.012 9.695 9.695 0 0 0 2.265.936c-.917.081-1.812.3-2.674.638-.109.044-.097.223.026.234.459.046.832.205 1.261.352.248.086.479.13.741.063.566-.143.888-.662 1.157-1.138h.011l.032-.008c.01-.005.019-.007.026-.013.171.031 2.451.216 3.397.505.424.13.893.313 1.318.495l.232-.104c-.617-.275-1.283-.557-1.5-.59-1.181-.172-3.222-.49-3.386-.525-.016-1.153-.676-2.123-1.738-2.584-.087-.038-.177.071-.115.147a.924.924 0 0 1 .114.173c-.008.009-.012.022 0 .038l.054.073c.15.357.161.778.354 1.129.191.347.477.622.774.881a10.694 10.694 0 0 1-2.194-.92c.164-1.137-.375-2.218-1.33-2.843-.07-.046-.169.015-.137.102.199.519.202 1.063.354 1.589.073.25.184.475.323.678-.507-.332-1-.701-1.466-1.1.043-.053.077-.106.11-.158-.218-.114-.46-.215-.592-.373.029.06.055.122.087.182a16.998 16.998 0 0 1-1.763-1.882c.682-.894.907-2.321-.225-2.96-.068-.039-.138.049-.114.111.269.79-.095 1.601-.019 2.391a17.182 17.182 0 0 1-1.007-1.475c-.068-.112-.138-.227-.204-.344.074-.063.018-.195-.089-.159l-.003-.004.002-.008c.858-.831 1.239-2.223.231-3.128-.06-.053-.15.009-.144.082.063.712-.507 1.505-.521 2.227a15.958 15.958 0 0 1-.673-1.567.086.086 0 0 0-.004-.063c1.119-.422 1.08-1.91.993-2.89-.013-.138-.218-.138-.241-.004-.119.718-.88 1.339-1.05 2.048a16.071 16.071 0 0 1-.464-1.929c1.163-.069 1.297-1.999 1.492-2.842.023-.101-.101-.148-.172-.103a3.42 3.42 0 0 0-1.468 1.934 16.755 16.755 0 0 1-.108-1.721c1.342-.241 2.396-1.408 1.645-2.755-.038-.068-.145-.044-.17.02-.222.548-.622.872-.985 1.316a3.413 3.413 0 0 0-.484.803 16.37 16.37 0 0 1 .236-2.399.065.065 0 0 0 .017-.026c.007-.015.015-.03.021-.046 1.398.314 2.028-1.539 2.308-2.565.034-.123-.158-.167-.207-.058-.277.601-1.016.813-1.464 1.272-.226.23-.406.492-.548.777.174-.807.407-1.594.697-2.363 1.38.243 2.53-.712 2.755-2.091.016-.096-.1-.157-.175-.104-.745.523-1.712.864-2.325 1.549.233-.555.49-1.101.777-1.636a.122.122 0 0 0 .017-.077c1.304-.139.872-2.547.854-3.345-.003-.169-.238-.145-.274-.004a.957.957 0 0 1-.11.256.067.067 0 0 0-.042.053v.014c-.142.209-.336.39-.476.6-.137.208-.24.435-.311.675a2.381 2.381 0 0 0 .08 1.599.143.143 0 0 0 .005.089c-.007.007-.013.018-.019.027a15.94 15.94 0 0 0-.987 2.11.092.092 0 0 0-.028.009c.222-.993-.377-1.946-.329-2.951.009-.168-.247-.214-.266-.038-.099.893-1.169 3.11.426 3.39.018.004.031 0 .046-.005a16.3 16.3 0 0 0-.463 1.55 2.943 2.943 0 0 0-.993-1.693c-.106-.088-.25.034-.207.156.199.569-.015 1.16.11 1.74.107.496.398.908.804 1.2a16.92 16.92 0 0 0-.19 1.957 2.788 2.788 0 0 0-.285-.775c-.283-.505-.679-.924-1.05-1.364-.073-.086-.245-.042-.222.089.144.787.229 1.734.587 2.46.198.405.521.655.958.676.013.488.045.976.096 1.459-.455-.536-1.258-.92-1.61-1.437-.064-.098-.233-.033-.214.086.197 1.124.808 2.463 2.03 2.738.105.56.239 1.114.399 1.662-.469-.618-1.156-1.066-1.88-1.335-.114-.048-.224.085-.148.194z"/><path d="M27.935 26.904c.145-1.123-1.056-1.845-1.925-2.315-.085-.045-.16.048-.123.127.309.683.658 1.396 1.184 1.929-.007-.012-.015-.019-.02-.031.005.013.013.02.02.031.055.056.112.109.174.162.182.089.445.083.69.097z"/><path d="M27.225 26.738c-.078.019-.156.038-.232.061a.593.593 0 0 1-.03.018c.01-.008.02-.012.03-.018-.716.219-1.361.682-1.958 1.134-.068.051-.049.168.048.168.989.004 2.389-.063 2.796-1.117-.223-.105-.45-.236-.654-.246zM31.102 28.329c.121.01.151-.171.027-.189-.033-.004-.46-.203-.968-.431-.08.033-.158.067-.232.1.631.273 1.126.517 1.173.52z"/><path d="M29.696 27.709l.232.102.232-.102c-.077-.033-.154-.069-.232-.104l-.232.104z"/></g><path fill="#333" d="M30.464 6.491l2.924 3.155 4.962-4.598.155-3.553-3.555.155-4.486 4.841zm-3.814 4.118l-1.891 2.037-1.451-1.453-.901.901 2.02 2.022-2.929 2.932 1.451 1.455 2.932-2.932 2.026 2.02.898-.902-1.454-1.451 2.146-1.988-2.847-2.641zm10.946 1.488l-.901-.901-1.456 1.455-10.19-11.002-3.554-.153.158 3.554L32.65 15.238l-1.455 1.457.9.898 2.024-2.021 2.934 2.934 1.451-1.457-2.929-2.932 2.021-2.02z"/></svg><svg width="13.516" height="25" viewBox="41.304 35.562 13.516 25" id="facebook" x="354" y="389"><path fill="#FFF" d="M54.31 35.567l-3.241-.005c-3.642 0-5.996 2.415-5.996 6.152v2.837h-3.26a.509.509 0 0 0-.509.51v4.11a.51.51 0 0 0 .509.509h3.26v10.373c0 .28.228.509.509.509h4.253a.51.51 0 0 0 .51-.509V49.68h3.812a.51.51 0 0 0 .51-.509l.001-4.11a.513.513 0 0 0-.508-.51h-3.813v-2.405c0-1.156.275-1.743 1.782-1.743l2.183-.001a.51.51 0 0 0 .51-.509v-3.816a.513.513 0 0 0-.512-.51z"/></svg><svg width="21.388" height="24" viewBox="0 0 21.388 24" id="google" x="368" y="414"><path d="M13.92 1.001H8.674c-2.338 0-3.957.513-5.413 1.716-1.145.989-1.829 2.425-1.829 3.842 0 2.185 1.666 4.506 4.751 4.506.298 0 .626-.031.915-.058l-.043.104c-.123.297-.241.577-.241 1.014 0 .853.411 1.377.809 1.886l.051.064-.089.007c-1.274.087-3.646.25-5.38 1.313C.159 16.613 0 18.384 0 18.897 0 20.939 1.902 23 6.154 23c4.944 0 7.532-2.728 7.532-5.421 0-1.993-1.17-2.978-2.409-4.021l-1.046-.813c-.324-.269-.727-.602-.727-1.219 0-.607.402-1.008.759-1.362l.036-.037c1.129-.891 2.411-1.899 2.411-4.082 0-2.195-1.372-3.328-2.031-3.874h1.741a.116.116 0 0 0 .06-.017l1.499-.943a.112.112 0 0 0 .049-.128.112.112 0 0 0-.108-.082zM7.558 21.798c-3.014 0-5.038-1.407-5.038-3.502 0-1.368.828-2.361 2.459-2.952 1.307-.44 2.992-.463 3.009-.463.286 0 .43 0 .658.029 2.109 1.501 3.121 2.288 3.121 3.79 0 1.911-1.612 3.098-4.209 3.098zm-.029-11.537c-2.528 0-3.578-3.324-3.578-5.104 0-.906.206-1.599.629-2.125.46-.576 1.247-.947 2.006-.947 2.321 0 3.606 3.121 3.606 5.279 0 .341 0 1.376-.716 2.095-.481.48-1.264.802-1.947.802zm13.744 1.015h-2.764V8.521a.113.113 0 0 0-.113-.113h-1.189a.112.112 0 0 0-.113.113v2.755h-2.751a.113.113 0 0 0-.113.114v1.205c0 .063.051.113.113.113h2.751v2.773c0 .062.051.112.113.112h1.189a.113.113 0 0 0 .113-.112v-2.773h2.764a.115.115 0 0 0 .115-.113V11.39a.114.114 0 0 0-.115-.114z" fill="#FFF"/></svg><svg width="70" height="52" viewBox="1.5 1.5 70 52" id="letters" x="390" y="438"><path fill="#3AADD5" d="M66.5 1.5h-55c-3 0-5 2-5 5v37c0 3 2 5 5 5h55c3 0 5-2 5-5v-37c0-3-2-5-5-5zm0 2c.513 0 .961.085 1.351.238l-29.13 22.338L10.149 3.739a3.67 3.67 0 0 1 1.352-.238L66.5 3.5zm3 40c0 1.907-1.093 3-3 3h-55c-1.394 0-2.346-.589-2.762-1.648l1.522 1.297 15.451-18.16-1.523-1.296-15.45 18.159A3.675 3.675 0 0 1 8.5 43.5v-37c0-1.354.562-2.288 1.563-2.722l-1.18 1.509 29.825 23.316 30.4-23.311-1.155-1.507c.992.437 1.547 1.367 1.547 2.713V43.5z"/><path fill="#3AADD5" d="M53.483 26.674l15.759 18.16-1.51 1.311-15.76-18.16zM6.5 53.5h55c3 0 5-2 5-5v-1h-2v1c0 1.907-1.093 3-3 3h-55c-1.907 0-3-1.093-3-3v-37c0-1.907 1.093-3 3-3h1v-2h-1c-3 0-5 2-5 5v37c0 3 2 5 5 5z"/></svg><svg width="18" height="13" viewBox="0 0 18 13" id="mail" x="460" y="490"><path fill="#fff" d="M18 1.445v10.106c0 .397-.157.737-.472 1.02a1.638 1.638 0 0 1-1.135.425H1.607a1.64 1.64 0 0 1-1.135-.425C.157 12.288 0 11.948 0 11.551V1.445C0 1.048.157.708.472.424A1.643 1.643 0 0 1 1.607 0h14.786c.442 0 .821.142 1.135.424.315.284.472.623.472 1.021zm-1.286.333v-.221c0-.027-.002-.066-.005-.117a.222.222 0 0 0-.03-.113l-.056-.082a.174.174 0 0 0-.09-.067.4.4 0 0 0-.141-.023H1.607a.329.329 0 0 0-.226.086.266.266 0 0 0-.095.204c0 1.011.492 1.866 1.477 2.564 1.291.915 2.634 1.869 4.027 2.863l.352.267c.195.148.348.26.462.338s.263.173.447.284c.184.112.353.195.507.249s.298.081.431.081h.021c.134 0 .278-.027.432-.081s.323-.137.507-.249a9.54 9.54 0 0 0 .447-.284c.113-.078.267-.191.461-.339l.352-.267c1.393-.993 2.736-1.947 4.028-2.862a4.418 4.418 0 0 0 1.01-1.043c.312-.436.467-.832.467-1.188zm0 9.773V4.334a5.555 5.555 0 0 1-.693.596 139.106 139.106 0 0 0-4.279 3.053c-.342.259-.62.46-.834.604a4.795 4.795 0 0 1-.869.438 2.74 2.74 0 0 1-1.029.223h-.021c-.321 0-.664-.075-1.029-.222a4.925 4.925 0 0 1-.869-.439 18.734 18.734 0 0 1-.833-.604A139.106 139.106 0 0 0 1.979 4.93a5.555 5.555 0 0 1-.693-.596v7.216c0 .078.032.146.096.203a.327.327 0 0 0 .226.086h14.786a.331.331 0 0 0 .227-.086.264.264 0 0 0 .093-.202z"/></svg><svg width="18" height="13" viewBox="0 0 18 13" id="mail-black" x="478" y="503"><path d="M18 1.445v10.106c0 .397-.157.737-.472 1.02a1.638 1.638 0 0 1-1.135.425H1.607a1.64 1.64 0 0 1-1.135-.425C.157 12.288 0 11.948 0 11.551V1.445C0 1.048.157.708.472.424A1.643 1.643 0 0 1 1.607 0h14.786c.442 0 .821.142 1.135.424.315.284.472.623.472 1.021zm-1.286.333v-.221c0-.027-.002-.066-.005-.117a.222.222 0 0 0-.03-.113l-.056-.082a.174.174 0 0 0-.09-.067.4.4 0 0 0-.141-.023H1.607a.329.329 0 0 0-.226.086.266.266 0 0 0-.095.204c0 1.011.492 1.866 1.477 2.564 1.291.915 2.634 1.869 4.027 2.863l.352.267c.195.148.348.26.462.338s.263.173.447.284c.184.112.353.195.507.249s.298.081.431.081h.021c.134 0 .278-.027.432-.081s.323-.137.507-.249a9.54 9.54 0 0 0 .447-.284c.113-.078.267-.191.461-.339l.352-.267c1.393-.993 2.736-1.947 4.028-2.862a4.418 4.418 0 0 0 1.01-1.043c.312-.436.467-.832.467-1.188zm0 9.773V4.334a5.555 5.555 0 0 1-.693.596 139.106 139.106 0 0 0-4.279 3.053c-.342.259-.62.46-.834.604a4.795 4.795 0 0 1-.869.438 2.74 2.74 0 0 1-1.029.223h-.021c-.321 0-.664-.075-1.029-.222a4.925 4.925 0 0 1-.869-.439 18.734 18.734 0 0 1-.833-.604A139.106 139.106 0 0 0 1.979 4.93a5.555 5.555 0 0 1-.693-.596v7.216c0 .078.032.146.096.203a.327.327 0 0 0 .226.086h14.786a.331.331 0 0 0 .227-.086.264.264 0 0 0 .093-.202z"/></svg><svg width="70" height="66" viewBox="764.5 446.5 70 66" id="marketing" x="496" y="516"><path fill="#3CAED5" d="M771.5 500.5c2.757 0 5 2.243 5 5s-2.243 5-5 5-5-2.243-5-5 2.243-5 5-5m0-2a7 7 0 1 0 0 14 7 7 0 0 0 0-14zm42.5-6.021c-8.667 0-16.434-5.486-19.327-13.651l1.885-.668c2.611 7.368 9.621 12.319 17.442 12.319 10.201 0 18.5-8.299 18.5-18.5s-8.299-18.5-18.5-18.5c-7.838 0-14.853 4.964-17.454 12.353l-1.887-.664c2.883-8.188 10.655-13.688 19.341-13.688 11.304 0 20.5 9.196 20.5 20.5s-9.196 20.499-20.5 20.499zm-32.795-44.694l11 11-1.415 1.414-11-11z"/><path fill="#3CAED5" d="M790.79 447.785l1.415 1.414-11 11-1.414-1.415zm-24.584 16.005l11 11-1.415 1.414-11-11zm46.999-.006l7 7-1.415 1.414-7-7z"/><path fill="#3CAED5" d="M818.79 470.784l1.415 1.414-7 7-1.414-1.414zm-42.999-6.994l1.414 1.414-11 11-1.414-1.415zm9.414 22.994l11 11-1.414 1.414-11-11z"/><path fill="#3CAED5" d="M794.79 486.784l1.415 1.415-11 11-1.414-1.415zm6.415 13l11 11-1.414 1.414-11-11z"/><path fill="#3CAED5" d="M810.79 499.784l1.415 1.414-11 11-1.414-1.414zm10.415-3l11 11-1.414 1.414-11-11z"/><path fill="#3CAED5" d="M830.79 496.784l1.415 1.414-11 11-1.414-1.414zM772.5 498.5h-2c0-15.439 11.664-28 26-28h22v2h-22c-13.233 0-24 11.664-24 26z"/></svg><svg width="75" height="69" viewBox="761.5 474.5 75 69" id="plan" x="566" y="582"><g fill="#3AADD5"><path d="M761.5 476.5h7v48l-7 .042v1.958h30l-8 17h2l5-10h17l5 10h2l-8-17h30v-2h-7.026l.026-48h7v-2h-75v2zm45 55h-15l2-5h11l2 5zm21-7h-57v-48h57v48z"/><circle cx="787.527" cy="491.75" r="2.109"/><path d="M781.603 495.214l-1.892 2.313 2.039 2.039 2.405-1.969a6.592 6.592 0 0 0 1.612.598l.316 3.167h2.894l.316-3.167a6.584 6.584 0 0 0 1.613-.598l2.404 1.969 2.037-2.039-1.892-2.315c.328-.53.581-1.111.75-1.728l2.937-.293v-2.883l-2.934-.293a6.627 6.627 0 0 0-.752-1.729l1.892-2.313-2.037-2.039-2.404 1.969a6.584 6.584 0 0 0-1.613-.598l-.316-3.167h-2.894l-.316 3.167a6.569 6.569 0 0 0-1.615.598l-2.405-1.969-2.039 2.039 1.892 2.313a6.514 6.514 0 0 0-.752 1.729l-2.932.293v2.883l2.937.293c.167.617.42 1.198.749 1.73zm5.924-7.802a4.337 4.337 0 0 1 4.336 4.338 4.337 4.337 0 1 1-8.672 0 4.34 4.34 0 0 1 4.336-4.338z"/><circle cx="810.518" cy="509.888" r="2.109"/><path d="M804.59 513.35l-1.894 2.315 2.039 2.039 2.404-1.969a6.592 6.592 0 0 0 1.612.598l.316 3.167h2.894l.316-3.167a6.584 6.584 0 0 0 1.613-.598l2.404 1.969 2.039-2.039-1.892-2.315c.328-.53.581-1.111.75-1.728l2.937-.293v-2.883l-2.934-.293a6.645 6.645 0 0 0-.753-1.729l1.892-2.313-2.039-2.039-2.404 1.969a6.584 6.584 0 0 0-1.613-.598l-.316-3.166h-2.894l-.316 3.166a6.592 6.592 0 0 0-1.612.598l-2.404-1.969-2.039 2.039 1.892 2.313a6.55 6.55 0 0 0-.753 1.729l-2.935.293v2.883l2.938.293c.171.617.426 1.198.752 1.728zm5.925-7.8a4.337 4.337 0 0 1 4.336 4.338 4.336 4.336 0 1 1-8.672 0 4.339 4.339 0 0 1 4.336-4.338zM801.5 483.5h19v2h-19zm0 5h19v2h-19zm0 5h19v2h-19zm-24 12h20v2h-20zm0 5h20v2h-20zm0 5h20v2h-20z"/></g></svg><svg width="76" height="74" viewBox="760.5 440.5 76 74" id="presentation" x="641" y="651"><g fill="#3AADD5"><path d="M835.5 450.5v-10h-74v10h3v49h-3c-1 0-1 1-1 1s0 1 1 1h36v3c-2 0-4 2-4 5s2 5 5 5 5-2 5-5-2-5-4-5v-3h36c1 0 1-1 1-1s0-1-1-1h-3v-49h3zm-34 59c0 1.357-1 3-3 3s-3-1.643-3-3c0-1.356 1-3 3-3s3 1.644 3 3zm-38-67h70v6h-70v-6zm67.066 57.2h-64.133l.067-49.2h64l.066 49.2z"/><path d="M823.5 464.5h-19c-1 0-1 1-1 1s0 1 1 1h19c1 0 1-1 1-1s0-1-1-1zm0 9h-15c-1 0-1 1-1 1s0 1 1 1h15c1 0 1-1 1-1s0-1-1-1zm-38 9h-12c-1 0-1 1-1 1s0 1 1 1h12c1 0 1-1 1-1s0-1-1-1zm13 8h-19c-1 0-1 1-1 1s0 1 1 1h19c1 0 1-1 1-1s0-1-1-1zm25 0h-20c-1 0-1 1-1 1s0 1 1 1h20c1 0 1-1 1-1s0-1-1-1zm-5-8h-20c-1 0-1 1-1 1s0 1 1 1h20c1 0 1-1 1-1s0-1-1-1zm-20-24h19c1 0 1-1 1-1s0-1-1-1h-19c-1 0-1 1-1 1s0 1 1 1zm-6.167-1.967H772.6v19.733h19.733v-19.733zM790.5 474.5h-16v-16h16v16z"/></g><circle fill="#3AADD5" cx="823" cy="458" r="1.5"/><circle fill="#3AADD5" cx="799" cy="466" r="1.5"/><circle fill="#3AADD5" cx="799" cy="475" r="1.5"/><circle fill="#3AADD5" cx="791" cy="484" r="1.5"/><circle fill="#3AADD5" cx="774" cy="492" r="1.5"/><circle fill="#3AADD5" cx="823" cy="484" r="1.5"/><circle fill="#3AADD5" cx="804" cy="475" r="1.5"/></svg><svg width="70" height="72" viewBox="1.5 0.5 70 72" id="product" x="717" y="725"><path d="M36.5 71.646l-35-19.559V22.05l35-20.712L71.518 22.05 71.5 52.087l-35 19.559zm-33-20.733l33 18.441 33-18.441.018-27.723L36.5 3.662 3.5 23.19v27.723z"/><path d="M37.5 70.5h-2V42.089L2.015 23.494l.97-1.748L37.5 40.911z"/><path d="M70.032 21.74l.97 1.747-34.011 18.889-.97-1.748z"/><path d="M46.5 55.368V36.054L13.657 15.527l10.839-7.226L57.5 29.96v18.075l-11 7.333zM17.343 15.473L48.5 34.946v16.686l7-4.667V31.04L24.504 10.699l-7.161 4.774z"/><path d="M24.038 13.66l25.002 16-1.079 1.685-25-16.001zM52.5 42.5l-2 1v-7l2-1zm0 3.709l-2 1.291v-2l2-1z"/></svg><svg width="58" height="73" viewBox="-0.5 0 58 73" id="report" x="787" y="797"><path fill="#2AACD5" d="M4.5 0v5h-5v68h53v-5h5V0h-53zm46 71h-49V7h3v61h46v3zm5-5h-49V2h49v64z"/><path fill="#2AACD5" d="M14.5 23c1.103 0 2 .897 2 2s-.897 2-2 2-2-.897-2-2 .897-2 2-2m0-2a4 4 0 1 0 0 8 4 4 0 0 0 0-8zm22 2c1.103 0 2 .897 2 2s-.897 2-2 2-2-.897-2-2 .897-2 2-2m0-2a4 4 0 1 0 0 8 4 4 0 0 0 0-8zm-11-9c1.103 0 2 .897 2 2s-.897 2-2 2-2-.897-2-2 .897-2 2-2m0-2a4 4 0 1 0 0 8 4 4 0 0 0 0-8zm22 2c1.103 0 2 .897 2 2s-.897 2-2 2-2-.897-2-2 .897-2 2-2m0-2a4 4 0 1 0 0 8 4 4 0 0 0 0-8z"/><path fill="#2AACD5" d="M22.793 15.293l1.414 1.414-7 7-1.414-1.415zm5.414-.001l7 7-1.415 1.414-7-7zm16.586 0l1.414 1.415-7 7-1.414-1.415zM13.5 46.414l-3.707-3.707 1.414-1.414 2.293 2.293 5.293-5.293 1.414 1.414zm0 13l-3.707-3.707 1.414-1.414 2.293 2.293 5.293-5.293 1.414 1.414zM25.5 38h26v2h-26zm0 5h26v2h-26zm0 8h26v2h-26zm0 5h26v2h-26z"/></svg><svg width="58" height="73" viewBox="1.5 -1.5 58 73" id="resume" x="845" y="870"><g fill="#2AACD5"><path d="M32.5 11.5l10 5v12l-10 5-10-5v-12l10-5zm0 2l-8 4v10l8 4 8-4v-10l-8-4zm.054 3l2.946 1v4l-3 1-3-1v-4l3.054-1zm-.054 1l-1 1v2l1 1 1-1v-2l-1-1zm6 5v4l-6 3-6-3v-4h2v3l4 2 4-2v-3h2zm8 16v2h-27v-2h27zm0 7v2h-27v-2h27zm0 7v2h-27v-2h27z"/><path d="M6.5-1.5v5h-5v68h53v-5h5v-68h-53zm46 71h-49v-64h3v61h46v3zm5-5h-49V.5h49v64z"/></g></svg><svg width="22" height="29" viewBox="0 0 22 29" id="sample" x="903" y="943"><path fill="#62808D" d="M20.963 27.447a.52.52 0 0 1-.519.519l-18.866-.003a.52.52 0 0 1-.519-.519L1.037 8.028 6.444 8C7.302 8 8 7.302 8 6.444V1l12.456.04a.52.52 0 0 1 .519.519l-.012 25.888zm1.049-25.889c0-.858-.698-1.556-1.556-1.556L8-.037c-.702 0-1.641.389-2.137.885L.886 5.891C.389 6.387 0 7.326 0 8.028l.022 19.417C.022 28.302.721 29 1.578 29l18.866.002c.857 0 1.556-.698 1.556-1.556l.012-25.888zm-15.416.023a1.75 1.75 0 0 1 .367-.263v5.126a.52.52 0 0 1-.519.519l-5.089.028c.081-.145.17-.273.263-.367l4.978-5.043z"/></svg><svg width="67" height="88" viewBox="67 16.5 67 88" id="sample-big" x="925" y="972"><path fill="#FFF" d="M73.106 104.005c-2.475 0-5.606-3.886-5.606-6.268V38.67c0-2.216 2.032-4.583 3.243-5.796l15.63-14.424c1.445-1.445 4.322-1.445 6.423-1.445L128.083 17c2.43 0 5.417 3.033 5.417 5.5v75.237c0 2.473-2.816 6.263-5.25 6.263l-55.144.005z"/><path fill="#B8C1C4" d="M128.083 17.5c2.16 0 4.917 2.804 4.917 5v75.237c0 2.189-2.653 5.763-4.75 5.763l-55.144.005c-2.052 0-5.106-3.45-5.106-5.768V38.67c0-1.487 1.129-3.471 3.068-5.415l15.673-14.466c1.284-1.284 4.041-1.284 6.055-1.284l35.287-.005m0-1l-35.287.005c-2.222 0-5.192.007-6.762 1.577L70.39 32.521C68.822 34.091 67 36.449 67 38.67v59.067c0 2.714 3.392 6.768 6.106 6.768l55.144-.005c2.714 0 5.75-4.049 5.75-6.763V22.5c0-2.713-3.203-6-5.917-6z"/><path fill="#E5E5E5" d="M67.541 39c.197-1.344 1.098-3.407 2.219-4.55l15.375-15.241c1.437-1.48 3.12-1.839 4.365-2.092v19.886A1.998 1.998 0 0 1 87.505 39H67.541z"/><path fill="#B8C1C4" d="M89 17.734v19.269c0 .825-.671 1.497-1.495 1.497H68.157c.3-1.158 1.009-2.73 1.95-3.689l15.394-15.26c1.109-1.144 2.411-1.568 3.499-1.817m1-1.234c-1.233.287-3.417.499-5.217 2.354L69.403 34.1C67.993 35.537 67 38.157 67 39.5h20.505A2.499 2.499 0 0 0 90 37.003V16.5z"/><path fill="none" stroke="#BABDB3" stroke-miterlimit="10" d="M89.904 79.938h22m-24.3 4h26.6m-24.3 4h22"/><path d="M88.816 56.383h-4.934v-8.566h4.934v1.488h-3.117v1.881h2.9v1.488h-2.9v2.209h3.117v1.5zm6.97-2.379c0 .773-.278 1.383-.835 1.828s-1.331.668-2.323.668c-.914 0-1.723-.172-2.426-.516v-1.688c.578.258 1.067.439 1.468.545s.767.159 1.099.159c.398 0 .704-.076.917-.229s.319-.379.319-.68c0-.168-.047-.317-.141-.448s-.231-.257-.413-.378-.552-.314-1.11-.58c-.523-.246-.916-.482-1.178-.709s-.471-.49-.627-.791-.234-.652-.234-1.055c0-.758.257-1.354.771-1.787s1.224-.65 2.13-.65c.445 0 .87.053 1.274.158s.827.254 1.269.445l-.586 1.412c-.457-.188-.835-.318-1.134-.393s-.593-.111-.882-.111c-.344 0-.607.08-.791.24s-.275.369-.275.627c0 .16.037.3.111.419s.192.234.354.346.546.312 1.151.601c.801.383 1.35.767 1.646 1.151s.446.857.446 1.416zm6.803 0c0 .773-.278 1.383-.835 1.828s-1.331.668-2.323.668c-.914 0-1.723-.172-2.426-.516v-1.688c.578.258 1.067.439 1.468.545s.766.159 1.098.159c.398 0 .704-.076.917-.229s.319-.379.319-.68c0-.168-.047-.317-.141-.448s-.231-.257-.413-.378-.552-.314-1.11-.58c-.523-.246-.916-.482-1.178-.709s-.471-.49-.627-.791-.234-.652-.234-1.055c0-.758.257-1.354.771-1.787s1.224-.65 2.13-.65c.445 0 .87.053 1.274.158s.827.254 1.269.445l-.586 1.412c-.457-.188-.835-.318-1.134-.393s-.593-.111-.882-.111c-.344 0-.607.08-.791.24s-.275.369-.275.627c0 .16.037.3.111.419s.192.234.354.346.546.312 1.151.601c.801.383 1.35.767 1.646 1.151s.447.857.447 1.416zm6.966 2.379l-.621-2.039h-3.123l-.621 2.039h-1.957l3.023-8.602h2.221l3.035 8.602h-1.957zM108.5 52.82c-.574-1.848-.897-2.893-.97-3.135s-.124-.434-.155-.574c-.129.5-.498 1.736-1.107 3.709h2.232zm6.11-1.476l1.787-3.527h1.957l-2.842 5.232v3.334h-1.805v-3.275l-2.842-5.291h1.969l1.776 3.527zm-31.595 17.66c0 .773-.278 1.383-.835 1.828s-1.331.668-2.324.668c-.914 0-1.723-.172-2.426-.516v-1.688c.578.258 1.067.439 1.468.545s.767.159 1.099.159c.398 0 .704-.076.917-.229s.319-.379.319-.68c0-.168-.047-.317-.141-.448s-.231-.257-.413-.378-.552-.314-1.11-.58c-.523-.246-.916-.482-1.178-.709s-.471-.49-.627-.791-.234-.652-.234-1.055c0-.758.257-1.354.771-1.787s1.224-.65 2.13-.65c.445 0 .87.053 1.274.158s.827.254 1.269.445l-.586 1.412c-.457-.188-.835-.318-1.134-.393s-.593-.111-.882-.111c-.344 0-.607.08-.791.24s-.275.369-.275.627c0 .16.037.3.111.419s.192.234.354.346.546.312 1.151.601c.801.383 1.35.767 1.646 1.151s.447.857.447 1.416zm6.965 2.379l-.621-2.039h-3.123l-.621 2.039h-1.957l3.023-8.602h2.221l3.035 8.602H89.98zm-1.054-3.563c-.574-1.848-.897-2.893-.97-3.135s-.124-.434-.155-.574c-.129.5-.498 1.736-1.107 3.709h2.232zm7.879 3.563l-2.063-6.721h-.053c.074 1.367.111 2.279.111 2.736v3.984h-1.623v-8.566h2.473l2.027 6.551h.035l2.15-6.551h2.473v8.566h-1.693v-4.055c0-.191.003-.412.009-.662s.032-.914.079-1.992h-.053l-2.209 6.709h-1.663zm13.579-5.895c0 .922-.288 1.627-.864 2.115s-1.396.732-2.458.732h-.779v3.047h-1.816v-8.566h2.736c1.039 0 1.829.224 2.37.671s.811 1.115.811 2.001zm-4.102 1.36h.598c.559 0 .977-.11 1.254-.331s.416-.542.416-.964c0-.426-.116-.74-.349-.943s-.597-.305-1.093-.305h-.826v2.543zm5.616 4.535v-8.566h1.816v7.066h3.475v1.5h-5.291zm11.671 0h-4.934v-8.566h4.934v1.488h-3.117v1.881h2.9v1.488h-2.9v2.209h3.117v1.5z" fill="#62808D"/></svg><svg width="60" height="60" viewBox="0 0 60 60" id="scroll-to-top" x="992" y="1060"><path d="M21.966 31.56a1 1 0 0 1 .412-.811l7.033-5.117c.35-.254.824-.254 1.175 0l7.036 5.117c.447.324.546.949.221 1.396s-.95.547-1.396.221l-6.448-4.689-6.445 4.689a.997.997 0 0 1-1.396-.221.98.98 0 0 1-.192-.585z"/></svg><svg width="60" height="60" viewBox="0 0 60 60" id="scroll-to-top-color" x="1052" y="1120"><path fill="#1080d0" d="M21.966 31.56a1 1 0 0 1 .412-.811l7.033-5.117c.35-.254.824-.254 1.175 0l7.036 5.117c.447.324.546.949.221 1.396s-.95.547-1.396.221l-6.448-4.689-6.445 4.689a.997.997 0 0 1-1.396-.221.98.98 0 0 1-.192-.585z"/></svg><svg width="51.5" height="50" viewBox="0 0 51.5 50" id="slide-arrow" x="1112" y="1180"><path fill="#62808D" d="M23.329 30.84a.999.999 0 0 1-.707-1.707L26.757 25l-4.135-4.133a.999.999 0 1 1 1.414-1.414l4.842 4.84a1 1 0 0 1 0 1.414l-4.842 4.84a.997.997 0 0 1-.707.293z"/></svg><svg width="205.214" height="15.94" viewBox="0 0.893 205.214 15.94" id="star" x="1164" y="1230"><path fill="#ECA229" d="M16.714 7.07c0 .147-.087.308-.261.482l-3.646 3.556.864 5.022c.007.047.01.113.01.2 0 .141-.035.26-.105.357a.355.355 0 0 1-.307.146.803.803 0 0 1-.401-.121l-4.51-2.37-4.51 2.37a.846.846 0 0 1-.402.121c-.141 0-.246-.049-.316-.146a.6.6 0 0 1-.105-.357c0-.04.007-.105.02-.2l.864-5.022L.251 7.553C.083 7.372 0 7.211 0 7.07c0-.248.188-.401.563-.462l5.042-.733 2.26-4.57c.127-.275.291-.412.492-.412.2 0 .364.138.492.412l2.26 4.57 5.042.733c.375.061.563.214.563.462zm21 0c0 .147-.087.308-.261.482l-3.646 3.556.864 5.022c.007.047.01.113.01.2 0 .141-.035.26-.105.357a.355.355 0 0 1-.307.146.803.803 0 0 1-.401-.121l-4.51-2.37-4.51 2.37a.846.846 0 0 1-.402.121c-.141 0-.246-.049-.316-.146a.6.6 0 0 1-.105-.357c0-.04.007-.105.02-.2l.864-5.022-3.656-3.556c-.17-.18-.253-.341-.253-.482 0-.248.188-.401.563-.462l5.042-.733 2.26-4.57c.127-.274.291-.412.492-.412.2 0 .364.138.492.412l2.26 4.57 5.042.733c.375.061.563.214.563.462zm21 0c0 .147-.087.308-.261.482l-3.646 3.556.864 5.022c.007.047.011.113.011.2 0 .141-.035.26-.105.357a.355.355 0 0 1-.307.146.8.8 0 0 1-.401-.121l-4.51-2.37-4.511 2.37a.842.842 0 0 1-.401.121c-.141 0-.246-.049-.316-.146a.6.6 0 0 1-.105-.357c0-.04.007-.105.021-.2l.863-5.022-3.656-3.556c-.171-.18-.254-.341-.254-.482 0-.248.188-.401.563-.462l5.042-.733 2.261-4.57c.127-.274.291-.412.492-.412.2 0 .364.138.492.412l2.259 4.57 5.043.733c.373.061.562.214.562.462zm21 0c0 .147-.087.308-.261.482l-3.646 3.556.864 5.022c.007.047.011.113.011.2 0 .141-.035.26-.105.357a.355.355 0 0 1-.307.146.8.8 0 0 1-.401-.121l-4.511-2.37-4.51 2.37a.842.842 0 0 1-.402.121c-.141 0-.245-.049-.315-.146a.607.607 0 0 1-.104-.357c0-.04.007-.105.021-.2l.863-5.022-3.656-3.556c-.172-.18-.255-.341-.255-.482 0-.248.188-.401.563-.462l5.043-.733 2.261-4.57c.127-.274.291-.412.491-.412.201 0 .365.138.492.412l2.26 4.57 5.043.733c.372.061.561.214.561.462zm21 0c0 .147-.087.308-.261.482l-3.646 3.556.864 5.022c.007.047.011.113.011.2 0 .141-.035.26-.105.357a.355.355 0 0 1-.307.146.8.8 0 0 1-.401-.121l-4.511-2.37-4.51 2.37a.842.842 0 0 1-.402.121c-.141 0-.245-.049-.315-.146a.607.607 0 0 1-.104-.357c0-.04.007-.105.021-.2l.863-5.022-3.656-3.556c-.172-.18-.255-.341-.255-.482 0-.248.188-.401.563-.462l5.043-.733 2.261-4.57c.127-.274.291-.412.491-.412.201 0 .365.138.492.412l2.26 4.57 5.043.733c.372.061.561.214.561.462zm20.5 0c0 .147-.087.308-.261.482l-3.646 3.556.863 5.022c.008.047.01.113.01.2a.6.6 0 0 1-.104.357.357.357 0 0 1-.308.146.797.797 0 0 1-.4-.121l-4.51-2.37-4.51 2.37a.846.846 0 0 1-.402.121c-.141 0-.246-.049-.316-.146a.6.6 0 0 1-.105-.357c0-.04.008-.105.021-.2l.864-5.022-3.658-3.554c-.168-.181-.251-.342-.251-.483 0-.248.188-.401.563-.462l5.041-.733 2.261-4.57c.127-.275.291-.412.491-.412.201 0 .365.138.492.412l2.26 4.57 5.043.733c.374.06.562.213.562.461zm21 0c0 .147-.087.308-.261.482l-3.646 3.556.863 5.022c.008.047.01.113.01.2a.6.6 0 0 1-.104.357.357.357 0 0 1-.308.146.797.797 0 0 1-.4-.121l-4.51-2.37-4.51 2.37a.846.846 0 0 1-.402.121c-.141 0-.246-.049-.316-.146a.6.6 0 0 1-.105-.357c0-.04.008-.105.021-.2l.864-5.022-3.656-3.556c-.17-.18-.253-.341-.253-.482 0-.248.188-.401.563-.462l5.041-.733 2.261-4.57c.127-.274.291-.412.491-.412.201 0 .365.138.492.412l2.26 4.57 5.043.733c.374.061.562.214.562.462zm21 0c0 .147-.087.308-.261.482l-3.646 3.556.864 5.022c.007.047.011.113.011.2 0 .141-.035.26-.105.357a.355.355 0 0 1-.307.146.8.8 0 0 1-.401-.121l-4.51-2.37-4.512 2.37a.842.842 0 0 1-.4.121c-.141 0-.246-.049-.316-.146a.6.6 0 0 1-.105-.357c0-.04.008-.105.021-.2l.863-5.022-3.656-3.556c-.17-.18-.253-.341-.253-.482 0-.248.188-.401.563-.462l5.041-.733 2.262-4.57c.127-.274.291-.412.492-.412.199 0 .363.138.492.412l2.259 4.57 5.043.733c.372.061.561.214.561.462zm21 0c0 .147-.087.308-.261.482l-3.646 3.556.864 5.022c.007.047.011.113.011.2 0 .141-.035.26-.105.357a.355.355 0 0 1-.307.146.8.8 0 0 1-.401-.121l-4.511-2.37-4.51 2.37a.842.842 0 0 1-.402.121c-.141 0-.245-.049-.315-.146a.607.607 0 0 1-.104-.357c0-.04.007-.105.021-.2l.863-5.022-3.656-3.556c-.17-.18-.253-.341-.253-.482 0-.248.188-.401.563-.462l5.043-.733 2.261-4.57c.127-.274.291-.412.491-.412.201 0 .365.138.492.412l2.26 4.57 5.043.733c.37.061.559.214.559.462zm21 0c0 .147-.087.308-.261.482l-3.646 3.556.864 5.022c.007.047.011.113.011.2 0 .141-.035.26-.105.357a.355.355 0 0 1-.307.146.8.8 0 0 1-.401-.121l-4.511-2.37-4.51 2.37a.842.842 0 0 1-.402.121c-.141 0-.245-.049-.315-.146a.607.607 0 0 1-.104-.357c0-.04.007-.105.021-.2l.863-5.022-3.656-3.556c-.17-.18-.253-.341-.253-.482 0-.248.188-.401.563-.462l5.043-.733 2.261-4.57c.127-.274.291-.412.491-.412.201 0 .365.138.492.412l2.26 4.57 5.043.733c.37.061.559.214.559.462z"/></svg><svg width="17" height="13" viewBox="0.5 0 17 13" id="tel" x="1370" y="1246"><path fill="#fff" d="M15.405 9.929c0 .16-.03.37-.089.629a3.733 3.733 0 0 1-.188.612c-.125.297-.488.612-1.09.946-.559.304-1.113.455-1.66.455-.161 0-.317-.011-.469-.031-.152-.021-.323-.058-.514-.111s-.332-.097-.424-.13c-.093-.032-.258-.094-.496-.183-.238-.09-.384-.144-.438-.161a8.045 8.045 0 0 1-1.562-.741c-.762-.47-1.549-1.111-2.362-1.924s-1.454-1.6-1.924-2.361a8.2 8.2 0 0 1-.739-1.563c-.018-.053-.072-.199-.16-.437-.09-.239-.151-.404-.184-.496a7.543 7.543 0 0 1-.129-.424 3.4 3.4 0 0 1-.143-.983c0-.547.152-1.101.456-1.66.333-.602.648-.965.946-1.09.148-.065.353-.128.611-.188.259-.059.469-.088.63-.088.083 0 .146.009.188.026.107.036.265.263.473.679.065.113.155.274.268.482a34.806 34.806 0 0 0 .59 1.045c.018.023.07.098.156.223s.15.23.192.317a.577.577 0 0 1 .063.254c0 .119-.084.269-.254.446a4.487 4.487 0 0 1-.556.492 5.333 5.333 0 0 0-.553.474c-.17.166-.254.303-.254.41 0 .054.015.121.044.201s.055.141.076.183c.021.041.063.112.125.214s.097.158.103.17a9.37 9.37 0 0 0 1.553 2.098 9.343 9.343 0 0 0 2.098 1.554c.012.006.068.04.17.103s.172.104.215.125c.041.021.102.047.183.076.08.03.147.045.2.045.107 0 .244-.085.411-.255s.325-.354.474-.554c.148-.199.313-.384.49-.554.179-.169.328-.254.447-.254.083 0 .168.021.254.063s.192.105.317.191l.224.156c.148.09.308.182.477.277.169.095.359.2.567.313s.369.202.482.268c.417.209.643.366.679.474a.51.51 0 0 1 .026.187z"/></svg><svg width="17" height="13" viewBox="0.5 0 17 13" id="tel-black" x="1387" y="1259"><path d="M15.405 9.929c0 .16-.03.37-.089.629a3.733 3.733 0 0 1-.188.612c-.125.297-.488.612-1.09.946-.559.304-1.113.455-1.66.455-.161 0-.317-.011-.469-.031-.152-.021-.323-.058-.514-.111s-.332-.097-.424-.13c-.093-.032-.258-.094-.496-.183-.238-.09-.384-.144-.438-.161a8.045 8.045 0 0 1-1.562-.741c-.762-.47-1.549-1.111-2.362-1.924s-1.454-1.6-1.924-2.361a8.2 8.2 0 0 1-.739-1.563c-.018-.053-.072-.199-.16-.437-.09-.239-.151-.404-.184-.496a7.543 7.543 0 0 1-.129-.424 3.4 3.4 0 0 1-.143-.983c0-.547.152-1.101.456-1.66.333-.602.648-.965.946-1.09.148-.065.353-.128.611-.188.259-.059.469-.088.63-.088.083 0 .146.009.188.026.107.036.265.263.473.679.065.113.155.274.268.482a34.806 34.806 0 0 0 .59 1.045c.018.023.07.098.156.223s.15.23.192.317a.577.577 0 0 1 .063.254c0 .119-.084.269-.254.446a4.487 4.487 0 0 1-.556.492 5.333 5.333 0 0 0-.553.474c-.17.166-.254.303-.254.41 0 .054.015.121.044.201s.055.141.076.183c.021.041.063.112.125.214s.097.158.103.17a9.37 9.37 0 0 0 1.553 2.098 9.343 9.343 0 0 0 2.098 1.554c.012.006.068.04.17.103s.172.104.215.125c.041.021.102.047.183.076.08.03.147.045.2.045.107 0 .244-.085.411-.255s.325-.354.474-.554c.148-.199.313-.384.49-.554.179-.169.328-.254.447-.254.083 0 .168.021.254.063s.192.105.317.191l.224.156c.148.09.308.182.477.277.169.095.359.2.567.313s.369.202.482.268c.417.209.643.366.679.474a.51.51 0 0 1 .026.187z"/></svg><svg width="120" height="120" viewBox="-37 -43 120 120" id="testi" x="1404" y="1272"><path d="M20.5 10c0-5.523-4.477-10-10-10S.5 4.477.5 10s4.477 10 10 10a9.94 9.94 0 0 0 6-2.014V21c0 6.064-4.935 11-11 11h-3v2h3c7.18 0 13-5.82 13-13v-5h-.014a9.942 9.942 0 0 0 2.014-6zm-10 8c-4.411 0-8-3.588-8-8s3.589-8 8-8 8 3.588 8 8-3.589 8-8 8zm35-8c0-5.523-4.477-10-10-10s-10 4.477-10 10 4.477 10 10 10a9.94 9.94 0 0 0 6-2.014V21c0 6.064-4.936 11-11 11h-3v2h3c7.18 0 13-5.82 13-13v-5h-.014a9.942 9.942 0 0 0 2.014-6zm-10 8c-4.411 0-8-3.588-8-8s3.589-8 8-8 8 3.588 8 8-3.589 8-8 8z" fill="#FFF"/></svg><svg id="to-top-black" width="36" height="36" viewBox="0 0 36 36" x="1524" y="1392"><style>.bdst0{fill:#252329}</style><path class="bdst0" d="M17.5 15.2c.1-.1.3-.2.5-.2s.4.1.5.2l4.3 4.5c.1.1.2.3.2.5 0 .4-.3.8-.7.8-.2 0-.4-.1-.5-.2l-3.8-4-3.8 4c-.1.1-.3.2-.5.2-.4 0-.7-.3-.7-.8 0-.2.1-.4.2-.5l4.3-4.5z"/></svg><svg id="to-top-color" width="36" height="36" viewBox="0 0 36 36" x="1560" y="1428"><style>.best0{fill:#1080d0}</style><path class="best0" d="M17.5 15.2c.1-.1.3-.2.5-.2s.4.1.5.2l4.3 4.5c.1.1.2.3.2.5 0 .4-.3.8-.7.8-.2 0-.4-.1-.5-.2l-3.8-4-3.8 4c-.1.1-.3.2-.5.2-.4 0-.7-.3-.7-.8 0-.2.1-.4.2-.5l4.3-4.5z"/></svg><svg width="24" height="19.495" viewBox="0 0 24 19.495" id="twitter" x="1596" y="1464"><path fill="#FFF" d="M24 2.307a9.888 9.888 0 0 1-2.827.775A4.942 4.942 0 0 0 23.338.36a9.91 9.91 0 0 1-3.127 1.195A4.917 4.917 0 0 0 16.617 0a4.924 4.924 0 0 0-4.797 6.044A13.981 13.981 0 0 1 1.674.9a4.882 4.882 0 0 0-.667 2.474c0 1.708.87 3.216 2.19 4.098a4.935 4.935 0 0 1-2.23-.619v.062a4.926 4.926 0 0 0 3.948 4.826 4.825 4.825 0 0 1-2.225.082 4.928 4.928 0 0 0 4.599 3.42 9.884 9.884 0 0 1-6.114 2.104c-.397 0-.789-.024-1.175-.068a13.933 13.933 0 0 0 7.547 2.216c9.056 0 14.007-7.503 14.007-14.007l-.018-.638A9.8 9.8 0 0 0 24 2.307z"/></svg><svg width="58" height="73" viewBox="0.5 0 58 73" id="type" x="1620" y="1484"><path fill="#FFF" d="M5.5 0v5h-5v68h53v-5h5V0h-53zm46 71h-49V7h3v61h46v3zm5-5h-49V2h49v64z"/></svg><svg id="upload-file" width="50" height="50" viewBox="0 50 50 50" x="1678" y="1557"><style>.bhst0{fill:none;stroke:#000;stroke-miterlimit:10}</style><path class="bhst0" d="M28.3 80s8 1.2 8.4-4.7c.2-3.7-2.8-4.5-2.8-4.5s.4-3.8-3.4-5.4c-4.8-2-6.8 2.2-6.8 2.2s-2.4-1.6-4.4-.6c-2.8 1.4-3 4.2-3 4.2s-3.1.8-3 3.8c.2 6.3 8.2 4.9 8.2 4.9m3.8-6.9v12"/><path class="bhst0" d="M30 76.2L25.3 72l-4.6 4.2"/></svg><svg id="upload-file-color" width="50" height="50" viewBox="0 0 50 50" x="1728" y="1607"><style>.bist0{fill:none;stroke:#1080d0;stroke-width:1;stroke-miterlimit:10}</style><path class="bist0" d="M28.3 30s8 1.2 8.4-4.7c.2-3.7-2.8-4.5-2.8-4.5s.4-3.8-3.4-5.4c-4.8-2-6.8 2.2-6.8 2.2s-2.4-1.6-4.4-.6c-2.8 1.4-3 4.2-3 4.2s-3.1.8-3 3.8c.2 6.3 8.2 4.9 8.2 4.9m3.8-6.9v12"/><path class="bist0" d="M30 26.2L25.3 22l-4.6 4.2"/></svg><svg width="71" height="47" viewBox="-479.5 4458.5 71 47" id="users" x="1778" y="1657"><g fill="#2B4850"><path d="M-443.516 4480.266c5.995 0 10.856-4.878 10.856-10.855 0-5.979-4.878-10.856-10.856-10.856s-10.856 4.877-10.856 10.856c-.001 5.977 4.878 10.855 10.856 10.855zm0-19.249c4.632 0 8.394 3.761 8.394 8.394 0 4.631-3.762 8.392-8.394 8.392-4.631 0-8.393-3.761-8.393-8.392 0-4.634 3.762-8.394 8.393-8.394zm11.234 24.816c-3.301-2.611-7.177-3.991-11.234-3.991s-7.933 1.38-11.234 3.991c-3.203 2.53-5.633 6.028-7.029 10.118-.772 2.25-.427 4.729.937 6.636 1.182 1.642 2.94 2.594 4.845 2.594H-431c1.905 0 3.663-.952 4.845-2.594 1.363-1.906 1.708-4.386.936-6.636-1.429-4.09-3.86-7.588-7.063-10.118zm4.106 15.325c-.706.984-1.741 1.56-2.841 1.56h-24.998c-1.1 0-2.119-.575-2.841-1.56-.887-1.249-1.117-2.892-.608-4.402 1.249-3.646 3.417-6.751 6.242-8.984 2.858-2.267 6.225-3.465 9.707-3.465s6.849 1.198 9.707 3.465c2.825 2.233 4.977 5.339 6.241 8.984.508 1.511.278 3.153-.609 4.402zm-37.841-20.384c4.089 0 7.424-3.333 7.424-7.424 0-4.089-3.334-7.424-7.424-7.424s-7.424 3.335-7.424 7.424c0 4.091 3.334 7.424 7.424 7.424zm0-13.171a5.738 5.738 0 0 1 5.732 5.732 5.737 5.737 0 0 1-5.732 5.731c-3.17 0-5.732-2.578-5.732-5.731s2.578-5.732 5.732-5.732zm44.296 11.545a7.625 7.625 0 0 0 7.621-7.62 7.627 7.627 0 0 0-7.621-7.621 7.627 7.627 0 0 0-7.621 7.621 7.625 7.625 0 0 0 7.621 7.62zm0-13.501a5.903 5.903 0 0 1 5.896 5.897 5.902 5.902 0 0 1-5.896 5.896 5.902 5.902 0 0 1-5.896-5.896 5.902 5.902 0 0 1 5.896-5.897z"/><path d="M-409.057 4490.153c-.986-2.874-2.694-5.321-4.928-7.096-2.316-1.822-5.042-2.792-7.884-2.792-2.841 0-5.568.97-7.883 2.792a14.922 14.922 0 0 0-1.889 1.807c.263.182.509.378.771.576l.591.492a13.721 13.721 0 0 1 1.594-1.511c2.003-1.595 4.353-2.432 6.8-2.432s4.795.837 6.799 2.432c1.987 1.56 3.498 3.743 4.369 6.306a3.434 3.434 0 0 1-.427 3.089c-.493.689-1.215 1.1-1.987 1.1h-10.971c.082.214.164.427.229.657.115.345.214.706.279 1.067h10.446c1.331 0 2.563-.657 3.4-1.823a5.088 5.088 0 0 0 .691-4.664zm-67.439 4.895a3.308 3.308 0 0 1-.411-3.006c.854-2.497 2.332-4.615 4.254-6.143 1.954-1.544 4.253-2.365 6.635-2.365 2.381 0 4.681.821 6.635 2.365.427.345.837.706 1.215 1.116.394-.395.821-.771 1.249-1.133a13.43 13.43 0 0 0-1.429-1.297c-2.25-1.791-4.911-2.727-7.67-2.727-2.759 0-5.42.936-7.67 2.727-2.184 1.725-3.843 4.122-4.813 6.914-.525 1.544-.295 3.235.641 4.533.805 1.133 2.004 1.774 3.301 1.774h10.643c.017-.56.099-1.134.247-1.692h-10.906c-.722.001-1.428-.392-1.921-1.066z"/></g></svg><svg width="20" height="24" viewBox="0 0 20 24" id="youtube" x="1849" y="1704"><path fill="#FFF" d="M16.917 17.556H15.6l.007-.766a.62.62 0 0 1 .62-.618h.084a.62.62 0 0 1 .621.618l-.015.766zm-4.94-1.641c-.334 0-.607.225-.607.5v3.721c0 .274.273.499.607.499.335 0 .609-.225.609-.499v-3.721c0-.275-.274-.5-.609-.5zM20 13.834v7.079C20 22.61 18.527 24 16.728 24H3.272C1.472 24 0 22.61 0 20.913v-7.079c0-1.698 1.472-3.087 3.272-3.087h13.456c1.799 0 3.272 1.389 3.272 3.087zM4.17 21.681l-.001-7.456 1.668.001V13.12l-4.447-.006V14.2l1.388.004v7.477H4.17zm5-6.345H7.779v3.981c0 .575.035.864-.002.965-.112.31-.621.637-.819.034-.034-.105-.004-.425-.004-.972l-.006-4.009H5.564l.004 3.946c.001.605-.014 1.056.005 1.261.034.361.022.783.357 1.024.625.451 1.825-.066 2.125-.711l-.003.822 1.118.003v-6.344zm4.449 4.56l-.003-3.314c-.001-1.263-.946-2.019-2.229-.997l.006-2.464-1.389.002-.007 8.505 1.142-.018.104-.529c1.461 1.338 2.378.42 2.376-1.185zm4.352-.44l-1.043.005-.002.142v.582a.57.57 0 0 1-.57.564h-.204a.57.57 0 0 1-.57-.564v-1.53h2.388v-.899c0-.656-.018-1.313-.071-1.688-.171-1.188-1.838-1.376-2.681-.768a1.55 1.55 0 0 0-.583.785c-.118.342-.177.808-.177 1.4v1.977c0 3.283 3.99 2.818 3.513-.006zM12.623 8.729a.94.94 0 0 0 .335.422c.148.105.34.158.568.158.2 0 .378-.055.532-.166a1.3 1.3 0 0 0 .391-.499l-.026.545h1.551V2.597h-1.221v5.131a.508.508 0 0 1-1.017 0V2.597h-1.273v4.447c0 .566.011.944.027 1.136a1.9 1.9 0 0 0 .133.549zM7.925 5.005c0-.633.053-1.127.157-1.483.106-.355.295-.641.57-.855.274-.217.625-.325 1.051-.325.358 0 .666.07.922.208.258.138.457.318.595.541.139.223.236.452.287.687.053.237.077.596.077 1.08v1.667c0 .612-.024 1.062-.072 1.347a2.11 2.11 0 0 1-.305.801 1.46 1.46 0 0 1-.597.549 1.91 1.91 0 0 1-.841.176c-.353 0-.65-.049-.896-.151a1.229 1.229 0 0 1-.572-.458 2.035 2.035 0 0 1-.291-.739c-.058-.288-.086-.722-.086-1.3l.001-1.745zm1.214 2.619c0 .374.278.678.616.678.339 0 .616-.304.616-.678v-3.51c0-.373-.277-.678-.616-.678-.338 0-.616.305-.616.678v3.51zm-4.29 1.772h1.462l.002-5.056L8.042.008h-1.6l-.92 3.218L4.591 0H3.008l1.838 4.342.003 5.054z"/></svg></svg>